<svg xmlns="http://www.w3.org/2000/svg" viewBox="0 0 112.28 104.46">
  <defs>
    <style>
      .cls-1 {
        opacity: 0.5;
      }

      .cls-2 {
        fill: #00305f;
      }
    </style>
  </defs>
  <g id="Layer_2" data-name="Layer 2">
    <g id="Layer_1-2" data-name="Layer 1">
      <g class="cls-1">
        <path class="cls-2" d="M27.36,84.26a.79.79,0,0,0-.44-.4.13.13,0,0,0,0,.09,1.13,1.13,0,0,0,.51.74A.65.65,0,0,0,27.36,84.26Z"/>
        <path class="cls-2" d="M63.34,100.28a.3.3,0,0,0,.16,0A14,14,0,0,0,62.71,98a.77.77,0,0,0-.22-.31.45.45,0,0,0-.33-.06,6,6,0,0,0,.67,2.2A1.08,1.08,0,0,0,63.34,100.28Z"/>
        <path class="cls-2" d="M16.28,100.14a1.62,1.62,0,0,0,1.48-.88,2.76,2.76,0,0,0-.92-.07l-.66,0-.76,0-.63,0A1.71,1.71,0,0,0,16.28,100.14Z"/>
        <path class="cls-2" d="M17.71,86.25a.22.22,0,0,0,.08.22,1,1,0,0,0,.69.21,3,3,0,0,0,2.27-1.55,10.32,10.32,0,0,0,.53-1l.21-.43A24.1,24.1,0,0,0,18,86,.67.67,0,0,0,17.71,86.25Z"/>
        <path class="cls-2" d="M21.61,83.42a4.88,4.88,0,0,1,.44-.73,7.86,7.86,0,0,1,1-1.09,6.34,6.34,0,0,0,1.2-1.42,229.08,229.08,0,0,1,19.5-29.87,2.06,2.06,0,0,0-1.41.13l-4.76,1.61a8.14,8.14,0,0,0-5.12,4.75L35,55.54l2.89-1.42a2.32,2.32,0,0,1,1.58-.22.65.65,0,0,1,.41.4l0,.07-.07,0a39.25,39.25,0,0,1-8.68,4.07,2.52,2.52,0,0,0-.06,1.83A1.33,1.33,0,0,0,32,61a.92.92,0,0,0,.76-.15A3.75,3.75,0,0,1,35.25,60h.12v.09c.06.64-.68,1.07-1.25,1.34-1.49.72-3,1.44-4.5,2.17l-.14.07-.05-.14c-.17-.51.18-1,.49-1.4l.14-.2a1.22,1.22,0,0,0,.24-1,.61.61,0,0,0-.29-.34c-.52-.26-1.16.24-1.54.76C24,67.47,19.82,73.84,16,80.29c.39.48,1.33.36,2,.22.95-.19,2-.08,2.21.61l0,.12h-.15l-.84,0-.48,0a1.18,1.18,0,0,1,.44.73,3.72,3.72,0,0,1,.94-.06,3.35,3.35,0,0,1,1.31.35l.22.11-.23.08-2.22.77a22.31,22.31,0,0,1,2.25.1ZM24.56,69.3l2.85-1.76c.57-.37,1.33-.6,1.76-.17l.06.06-.05.07a10.39,10.39,0,0,1-3.29,2.34,1.74,1.74,0,0,1-.89.27h-.11a.63.63,0,0,1-.47-.42A.33.33,0,0,1,24.56,69.3Zm-.81,2.83a1.83,1.83,0,0,1,1.16-.41h0a.3.3,0,0,1,.2.22.72.72,0,0,1-.26.59,3.93,3.93,0,0,1-2.43,1.3h-.13v-.11a.75.75,0,0,0-.14-.41l-.05-.08Z"/>
        <path class="cls-2" d="M14.8,85.92h0a8.51,8.51,0,0,1,3.14-2.37h0l.17-.06a3.29,3.29,0,0,0-.89-.2,2.9,2.9,0,0,0-1.57.34,2,2,0,0,0-1,2.08A.31.31,0,0,0,14.8,85.92Z"/>
        <path class="cls-2" d="M19.68,41.64l-1.83-3.47C17.23,37,16.6,35.79,16,34.6v0a11.57,11.57,0,0,0-.15-1.79,5.46,5.46,0,0,1-2.64.95l-.22,0,.1-.17c.21-.38.45-.74.69-1.09a12.84,12.84,0,0,0,.95-1.59c1.24-2.67.25-5.68-1-8.79l-1.11-2.78c-.2-.53-.49-1.1-1-1.22a1.87,1.87,0,0,0-1,.13,5.48,5.48,0,0,0-3.49,5A12,12,0,0,0,9,29.3,46.94,46.94,0,0,0,19.35,42.13l.13.11-.16.06a2.88,2.88,0,0,1-2.52-.64,20.48,20.48,0,0,0,1,6.39c.32-.73.65-1.47,1-2.2s.72-1.59,1.07-2.39a1.76,1.76,0,0,0,.23-.68,2.14,2.14,0,0,0-.37-1.14Z"/>
        <path class="cls-2" d="M16.29,48c-.13-.28-.26-.58-.37-.87h0a12.66,12.66,0,0,1-.6-2.87l0-.19a18.92,18.92,0,0,0-1.07-4.57,4.38,4.38,0,0,0-1.62-2.11,2.88,2.88,0,0,0-1.29-.4,1.92,1.92,0,0,0-1.36.36,2.43,2.43,0,0,0-.49,2.42,20.19,20.19,0,0,0,2.19,6.54,13.29,13.29,0,0,0,5,5.08,2.58,2.58,0,0,0,.15-2.07A9.33,9.33,0,0,0,16.29,48Z"/>
        <path class="cls-2" d="M12.14,15.35l.07,0a.55.55,0,0,0,.22-.46c0-.45,0-.89,0-1.33s0-1,0-1.43a3.09,3.09,0,0,0-.13-1.25,4.34,4.34,0,0,0-.6-.95l-.05-.08a29,29,0,0,1-4-6.91c-.25.3-.1.81,0,1.19L9.35,8.3l2.79,7Z"/>
        <path class="cls-2" d="M16.31,18.9a.46.46,0,0,0,0-.31l-.12-.08a1.6,1.6,0,0,0-.37,1.77A2.47,2.47,0,0,0,16.31,18.9Z"/>
        <path class="cls-2" d="M20,28.9,22.38,26l.07-.09a34.73,34.73,0,0,0,4.88-7.24h0c.83-1.84.94-3.31.32-4.5a3.58,3.58,0,0,0-2.33-1.65,2.63,2.63,0,0,0-2,.27c.17,1.65-.7,3.18-1.54,4.66-.2.35-.41.72-.6,1.08a31.86,31.86,0,0,0-2.28,6.67,1.25,1.25,0,0,0,0,.85,1.66,1.66,0,0,0,.7.59c.37.22.74.44.8.83v0a.4.4,0,0,1-.3.27,1.28,1.28,0,0,1-.92-.16l-.07-.05a1.74,1.74,0,0,0-.7-.34.32.32,0,0,0-.17,0,.63.63,0,0,0-.37.46,6,6,0,0,0,0,3.91Z"/>
        <path class="cls-2" d="M17.69,82.36a2.7,2.7,0,0,0,1-.2,4.81,4.81,0,0,0-2.61.16A10.51,10.51,0,0,0,17.69,82.36Z"/>
        <path class="cls-2" d="M25.14,62.72a.45.45,0,0,0-.1-.13.36.36,0,0,0-.17-.07h-.1a.48.48,0,0,0-.36.26.85.85,0,0,0,.19.76l.09.13a2.55,2.55,0,0,1,.3.5A2.09,2.09,0,0,0,25.44,63V63a.56.56,0,0,1-.17-.09A1.83,1.83,0,0,1,25.14,62.72Z"/>
        <path class="cls-2" d="M25.18,61.41a2.27,2.27,0,0,1,.67,1.42l0,0a.24.24,0,0,1-.09.08.6.6,0,0,0,.27-.21c.77-1,1.53-2,2.32-2.94l0,0a3.79,3.79,0,0,0,.82-1.42,3.71,3.71,0,0,0,0-1.2,3.5,3.5,0,0,1,0-1.33l-.19,0a2.92,2.92,0,0,0-1.61.59l-.09.06L25,57.91a1.73,1.73,0,0,0-.77,1.62,3.4,3.4,0,0,0,.79,1.74Z"/>
        <path class="cls-2" d="M21.84,40.94A16,16,0,0,0,25,32.53a1.71,1.71,0,0,0-.12-1,.87.87,0,0,0-.82-.48,11.41,11.41,0,0,0-4.74,1.68c-.45.31-.94.69-1,1.19a1.82,1.82,0,0,0,.11.85A43.31,43.31,0,0,0,20.62,41a.7.7,0,0,0,.33.4C21.28,41.55,21.66,41.18,21.84,40.94Z"/>
        <path class="cls-2" d="M21.93,44.64a.69.69,0,0,0-.48.33h0c-.06.27-.12.54-.17.81a1.62,1.62,0,0,0,1.22-1.1A.89.89,0,0,0,21.93,44.64Z"/>
        <path class="cls-2" d="M59.39,90.66a48.57,48.57,0,0,0-2,7c-.28,1.36.85,2.66,2.1,3.34l.16.08-.05-.16C58.67,97.52,59,94.05,59.39,90.66Z"/>
        <path class="cls-2" d="M22,41a16.32,16.32,0,0,0,3.13-8.46,2,2,0,0,0-.13-1A1,1,0,0,0,24,31a11.5,11.5,0,0,0-4.79,1.7,2.14,2.14,0,0,0-1.08,1.25,1.93,1.93,0,0,0,.12.89A41.91,41.91,0,0,0,20.51,41a.78.78,0,0,0,.38.46C21.28,41.67,21.71,41.32,22,41Zm-1.33,0a43.31,43.31,0,0,1-2.26-6.21,1.82,1.82,0,0,1-.11-.85c.08-.5.57-.88,1-1.19A11.41,11.41,0,0,1,24,31.07a.87.87,0,0,1,.82.48,1.71,1.71,0,0,1,.12,1,16,16,0,0,1-3.11,8.41c-.18.24-.56.61-.89.46A.7.7,0,0,1,20.62,41Z"/>
        <path class="cls-2" d="M25.72,62.82c-.06.1-.26.08-.36,0s-.14-.22-.23-.3a.6.6,0,0,0-.84.24,1,1,0,0,0,.2.85,2.15,2.15,0,0,1,.45.82,2.19,2.19,0,0,0,.62-1.37c.21.09.43-.09.55-.25l2.32-2.93a4,4,0,0,0,.86-1.49c.2-.86-.22-1.79.08-2.62a2.52,2.52,0,0,0-2,.55L25,57.83a1.79,1.79,0,0,0-.81,1.7A3.43,3.43,0,0,0,25,61.32C25.32,61.78,25.76,62.27,25.72,62.82Zm-.28.22A2.09,2.09,0,0,1,25,64.18a2.55,2.55,0,0,0-.3-.5l-.09-.13a.85.85,0,0,1-.19-.76.48.48,0,0,1,.36-.26h.1a.36.36,0,0,1,.17.07.45.45,0,0,1,.1.13,1.83,1.83,0,0,0,.13.16.56.56,0,0,0,.17.09ZM25,57.91l2.28-1.46.09-.06A2.92,2.92,0,0,1,29,55.8l.19,0a3.5,3.5,0,0,0,0,1.33,3.71,3.71,0,0,1,0,1.2,3.79,3.79,0,0,1-.82,1.42l0,0c-.79,1-1.55,2-2.32,2.94a.6.6,0,0,1-.27.21.24.24,0,0,0,.09-.08l0,0a2.27,2.27,0,0,0-.67-1.42l-.12-.14a3.4,3.4,0,0,1-.79-1.74A1.73,1.73,0,0,1,25,57.91Z"/>
        <path class="cls-2" d="M16.08,34.56a12.19,12.19,0,0,0-.18-2,5.25,5.25,0,0,1-2.74,1c.52-.91,1.21-1.74,1.64-2.68,1.31-2.79.17-6-1-8.86l-1.11-2.78c-.21-.54-.51-1.15-1.15-1.29a1.89,1.89,0,0,0-1.07.13,5.61,5.61,0,0,0-3.57,5.12,12.1,12.1,0,0,0,1.91,6.09A46.78,46.78,0,0,0,19.27,42.2a3,3,0,0,1-2.6-.76,20.69,20.69,0,0,0,1.08,7c.72-1.62,1.47-3.26,2.19-4.89a1.93,1.93,0,0,0,.24-.71,2.31,2.31,0,0,0-.39-1.19C18.56,39.26,17.32,36.9,16.08,34.56Zm3.74,8.9c-.35.8-.71,1.59-1.07,2.39s-.66,1.47-1,2.2a20.48,20.48,0,0,1-1-6.39,2.88,2.88,0,0,0,2.52.64l.16-.06-.13-.11A46.94,46.94,0,0,1,9,29.3a12,12,0,0,1-1.89-6,5.48,5.48,0,0,1,3.49-5,1.87,1.87,0,0,1,1-.13c.56.12.85.69,1,1.22l1.11,2.78c1.22,3.11,2.21,6.12,1,8.79a12.84,12.84,0,0,1-.95,1.59c-.24.35-.48.71-.69,1.09l-.1.17.22,0a5.46,5.46,0,0,0,2.64-.95A11.57,11.57,0,0,1,16,34.56v0c.63,1.19,1.26,2.38,1.88,3.57l1.83,3.47h0a2.14,2.14,0,0,1,.37,1.14A1.76,1.76,0,0,1,19.82,43.46Z"/>
        <path class="cls-2" d="M21.34,44.93h0c-.08.33-.15.67-.21,1a1.74,1.74,0,0,0,1.5-1.29A1,1,0,0,0,21.34,44.93Zm-.07.85c.05-.27.11-.54.17-.81h0a.69.69,0,0,1,.48-.33.89.89,0,0,1,.56,0A1.62,1.62,0,0,1,21.27,45.78Z"/>
        <path class="cls-2" d="M15.68,82.37a9.65,9.65,0,0,0,2,.1A2.42,2.42,0,0,0,19,82.12,4.76,4.76,0,0,0,15.68,82.37Zm3-.21a2.7,2.7,0,0,1-1,.2,10.51,10.51,0,0,1-1.61,0A4.81,4.81,0,0,1,18.69,82.16Z"/>
        <path class="cls-2" d="M16,47.14a13.46,13.46,0,0,1-.62-3,18.57,18.57,0,0,0-1.07-4.59,4.37,4.37,0,0,0-1.67-2.16,2.58,2.58,0,0,0-2.81,0,2.5,2.5,0,0,0-.53,2.5,20.49,20.49,0,0,0,2.21,6.57,13.42,13.42,0,0,0,5.17,5.19,2.59,2.59,0,0,0,.22-2.24C16.72,48.58,16.32,47.87,16,47.14Zm.63,4.29a13.29,13.29,0,0,1-5-5.08,20.19,20.19,0,0,1-2.19-6.54A2.43,2.43,0,0,1,10,37.39,1.92,1.92,0,0,1,11.32,37a2.88,2.88,0,0,1,1.29.4,4.38,4.38,0,0,1,1.62,2.11,18.92,18.92,0,0,1,1.07,4.57l0,.19a12.66,12.66,0,0,0,.6,2.87h0c.11.29.24.59.37.87a9.33,9.33,0,0,1,.53,1.32A2.58,2.58,0,0,1,16.67,51.43Z"/>
        <path class="cls-2" d="M17.87,85.88a.73.73,0,0,0-.28.35c-.08.34.48.59.91.56a3.07,3.07,0,0,0,2.36-1.61c.48-.79.74-1.69,1.3-2.44s1.68-1.56,2.19-2.51A227.29,227.29,0,0,1,43.92,50.28a2,2,0,0,0-1.64.06L37.52,52A8.16,8.16,0,0,0,32.24,57L38,54.21c.61-.3,1.62-.45,1.8.12A39.72,39.72,0,0,1,31,58.4a2.74,2.74,0,0,0-.07,2,1.39,1.39,0,0,0,1.9.55,3.54,3.54,0,0,1,2.38-.76c0,.56-.61,1-1.19,1.24l-4.51,2.17c-.18-.55.29-1,.62-1.53s.47-1.21-.1-1.49-1.33.28-1.71.79q-6.75,9.24-12.5,19c.4.58,1.42.47,2.19.31s1.86-.12,2.06.54l-1.67.09a1.06,1.06,0,0,1,.68,1,3.4,3.4,0,0,1,2.31.24c-.94.34-1.88.66-2.84,1a25.65,25.65,0,0,1,2.91.08A24.9,24.9,0,0,0,17.87,85.88Zm3.41-1.8a10.32,10.32,0,0,1-.53,1,3,3,0,0,1-2.27,1.55,1,1,0,0,1-.69-.21.22.22,0,0,1-.08-.22A.67.67,0,0,1,18,86a24.1,24.1,0,0,1,3.53-2.31Zm-2-.77,2.22-.77.23-.08-.22-.11A3.35,3.35,0,0,0,20.18,82a3.72,3.72,0,0,0-.94.06,1.18,1.18,0,0,0-.44-.73l.48,0,.84,0h.15l0-.12c-.21-.69-1.26-.8-2.21-.61-.69.14-1.63.26-2-.22,3.82-6.45,8-12.82,12.47-18.91.38-.52,1-1,1.54-.76a.61.61,0,0,1,.29.34,1.22,1.22,0,0,1-.24,1l-.14.2c-.31.42-.66.89-.49,1.4l.05.14.14-.07c1.49-.73,3-1.45,4.5-2.17.57-.27,1.31-.7,1.25-1.34V60h-.12a3.75,3.75,0,0,0-2.46.79A.92.92,0,0,1,32,61a1.33,1.33,0,0,1-.94-.66,2.52,2.52,0,0,1,.06-1.83,39.25,39.25,0,0,0,8.68-4.07l.07,0,0-.07a.65.65,0,0,0-.41-.4,2.32,2.32,0,0,0-1.58.22L35,55.54,32.45,56.8a8.14,8.14,0,0,1,5.12-4.75l4.76-1.61a2.06,2.06,0,0,1,1.41-.13,229.08,229.08,0,0,0-19.5,29.87A6.34,6.34,0,0,1,23,81.6a7.86,7.86,0,0,0-1,1.09,4.88,4.88,0,0,0-.44.73h-.1A22.31,22.31,0,0,0,19.26,83.31Z"/>
        <path class="cls-2" d="M12.55,14.87c0-.92,0-1.85,0-2.76a3.27,3.27,0,0,0-.15-1.28,4.12,4.12,0,0,0-.66-1.05A29.31,29.31,0,0,1,7.69,2.72c-.47.31-.31.94-.13,1.42Q9.8,9.78,12,15.43C12.35,15.55,12.55,15.15,12.55,14.87ZM7.68,4.11c-.14-.38-.29-.89,0-1.19a29,29,0,0,0,4,6.91l.05.08a4.34,4.34,0,0,1,.6.95,3.09,3.09,0,0,1,.13,1.25c0,.47,0,1,0,1.43s0,.88,0,1.33a.55.55,0,0,1-.22.46l-.07,0h0l-2.79-7Z"/>
        <path class="cls-2" d="M14.9,86a8.62,8.62,0,0,1,3.44-2.48,3.07,3.07,0,0,0-2.8,0,2.06,2.06,0,0,0-1,2.19C14.52,85.9,14.78,86.13,14.9,86Zm.71-2.35a2.9,2.9,0,0,1,1.57-.34,3.29,3.29,0,0,1,.89.2l-.17.06h0a8.51,8.51,0,0,0-3.14,2.37h0a.31.31,0,0,1-.19-.21A2,2,0,0,1,15.61,83.63Z"/>
        <path class="cls-2" d="M13.1,98.17c.11-1.66.22-3.37.35-5,.13-2,.74-5.2,3.32-5.91a6.42,6.42,0,0,0-2.47,3.16l-.21.62.44-.53a8.58,8.58,0,0,1,2.83-2.23,11.39,11.39,0,0,0-3.67,5.66l-.19.74.43-.66a24.37,24.37,0,0,1,4.17-4.84q-1.68,2.64-3.34,5.29a1.42,1.42,0,0,0-.14,1.41.68.68,0,0,0,.52.28h.1l0-.07A45.31,45.31,0,0,1,21,87.13c-1.6,3.33-3.19,6.65-4.8,10l-.26.54.46-.42a12,12,0,0,0,3.49-5.38A52.54,52.54,0,0,1,25.17,81q2.11-3.6,4.24-7.2c.71,1.45,1.47,2.88,2.24,4.25l.13.23.1-.23c.46-1,0-2.09-.53-3.11a5.22,5.22,0,0,1-.73-2.4,4.56,4.56,0,0,1,.73-2l0,0A121,121,0,0,1,48.24,47.6c1.62-1.75,3.62-3.54,6.17-3.55a1,1,0,0,0,.72-.26A2.34,2.34,0,0,0,55.61,42a1.77,1.77,0,0,1,.51-1.5.71.71,0,0,1,.57-.13A2.64,2.64,0,0,0,58.63,40a2.2,2.2,0,0,0,1.06-1.72,3.27,3.27,0,0,0-2.43-2.91l-.14,0,0,.12a3.2,3.2,0,0,1-1.2,2.09,1.88,1.88,0,0,1-1.53.09.86.86,0,0,1-.59-.63,2.39,2.39,0,0,0-2.44-1.84h0a1,1,0,0,0-.58.5,1.32,1.32,0,0,0,0,1.13,3.88,3.88,0,0,0,.74.94c.15.16.31.33.45.5a2.72,2.72,0,0,1,.17,3,3.58,3.58,0,0,1-2.79,1.86,19.88,19.88,0,0,0-10.77,4.77,48.05,48.05,0,0,0-7.32,8.32.27.27,0,0,1-.26,0,.75.75,0,0,1-.4-.55c0-.1,0-.2,0-.3a1.15,1.15,0,0,0-.25-.9c-.57-.56-1.64-.06-1.95.1l-1.93,1-1.87,1,1.29-8.64c.19-1.23-.05-2.63-1.33-2.86a.43.43,0,0,1-.35-.24,1.52,1.52,0,0,1,.47-1.34L27.9,40l3.36-3.46.49-.51-.66.35A27.71,27.71,0,0,0,24,41.79a25.87,25.87,0,0,0,2.39-6.45,6,6,0,0,0-.07-3.65,3.53,3.53,0,0,0-3.11-2.09C26.94,25.44,30.51,21,29.79,16c-.34-2.31-2.29-4.69-4.86-4.5-2.37.2-3.59,2.34-4.38,4.19L17,23.86c-1-5.67,3-11,7.22-15.92l-.18-.14a29.08,29.08,0,0,0-5.52,5.75C19,12.26,19.48,11,20,9.66c.53-1.51,1.07-3,1.62-4.53l-.24-.08L19.55,8.21c.39-1.7.76-3.41,1.14-5.11L21,1.73l-.35.49c-1.7,2.32-2.13,5.14-2.55,7.86s-.84,5.45-2.48,7.71A89.72,89.72,0,0,1,18.8,4.27l-.24-.08A42.28,42.28,0,0,0,14.8,14.86c-.15-2.16-.29-4.34-.42-6.46V8.24l-.15,0a2.45,2.45,0,0,0-1.66,1.11C10.76,6.32,8.77,3.27,6.63.29L6.42,0l0,.34c-.19,2.91.94,5.84,1.93,8.42.61,1.57,1.22,3.15,1.82,4.72l1.06,2.76a6.74,6.74,0,0,0-6,5.24c-.45,2.24.16,4.76,1.86,7.7.56,1,1.19,1.92,1.8,2.85a38.43,38.43,0,0,1,2.37,3.89,2.17,2.17,0,0,0-1.09-.17,2.58,2.58,0,0,0-1.77.92,3.83,3.83,0,0,0-.51,3c.78,6.28,5.22,12.29,11.57,15.69l.15-.17c-2.12-1.62-1.23-4.54-.38-6.59a1.17,1.17,0,0,1,.69-.66.33.33,0,0,1,.17,0,.71.71,0,0,0-.15.63.84.84,0,0,0,.53.61l.17.07v-.16a2.69,2.69,0,0,1,1.2-2,3.73,3.73,0,0,1,2.38-.71l-2,12.18q-5-1.4-9.89-2.82a5.36,5.36,0,0,1-2.23-1,1.51,1.51,0,0,1-.47-1.12.92.92,0,0,1,.38-.7c.68-.5,1.7-.14,2.69.22s2.2.78,2.91.07l.09-.1L15.6,53a7.94,7.94,0,0,0-2.36-.67,1.11,1.11,0,0,0,.22-1.19L13.4,51l-.13.08c-1,.57-2.38.32-4.3-.78L6.68,49Q3.41,47.15.15,45.28L0,45.44l3.63,2.89,3.52,2.79.08.07.09-.06a.54.54,0,0,1,.48-.08,1,1,0,0,1,.65.57,2.08,2.08,0,0,1,0,1c0,.16,0,.33-.07.5-.18,2.05,2.17,3.68,4.44,4.32.87.24,1.79.4,2.68.56A17.44,17.44,0,0,1,19.61,59a6.7,6.7,0,0,1,4.18,6,.76.76,0,0,1-.15.48,1.07,1.07,0,0,1-.68.17A12.78,12.78,0,0,1,17,64.43a2.61,2.61,0,0,1-1-.69c-.52-.69,0-1.64.78-2.06a6.6,6.6,0,0,1,2.88-.51h.1l0-.09a.81.81,0,0,0-.29-.69,2,2,0,0,0-1.34-.46,5.62,5.62,0,0,0-1.09.16,6.09,6.09,0,0,1-1,.15,2.47,2.47,0,0,1-2.43-1.56l-.25,0c.11.6.21,1.2.31,1.8l.36,2.13c.3,1.75,2,3,3.57,3.57a18.81,18.81,0,0,0,5.29.91,71.85,71.85,0,0,0-8.44,14c-.59,1.3-1.47,2.8-3.07,2.83h-.32l.24.18a4.47,4.47,0,0,0,2.21.83,20.62,20.62,0,0,0-.72,13.25l.06.21h.17Zm.64-13.33a4.26,4.26,0,0,1-2.3-.81c1.69,0,2.59-1.58,3.18-2.89A72.15,72.15,0,0,1,23.17,67a19.29,19.29,0,0,1-5.47-.92c-1.7-.65-3.21-1.91-3.48-3.49-.23-1.3-.45-2.61-.67-3.93a2.59,2.59,0,0,0,2.56,1.64c.72,0,1.4-.29,2.11-.31s1.59.43,1.5,1a6.79,6.79,0,0,0-2.94.53c-.84.46-1.37,1.47-.82,2.21a2.62,2.62,0,0,0,1,.72,13,13,0,0,0,6,1.25,1.19,1.19,0,0,0,.76-.21.75.75,0,0,0,.18-.54,6.77,6.77,0,0,0-4.25-6.08c-2.11-.94-4.57-1-6.83-1.64s-4.52-2.23-4.34-4.21a4.44,4.44,0,0,0,.08-1.49c-.15-.49-.9-.89-1.34-.55L.08,45.36l8.82,5c1.34.76,3.13,1.55,4.44.78A1,1,0,0,1,13,52.43a7.46,7.46,0,0,1,2.57.68c-1.28,1.28-4.09-1.41-5.58-.3a1.29,1.29,0,0,0,.08,2,5.53,5.53,0,0,0,2.29,1l10,2.86c.68-4.14,1.35-8.27,2-12.42-1.9-.17-3.77,1.18-3.85,2.81a.69.69,0,0,1-.25-1.16c-.41-.35-1,.19-1.16.62-.93,2.24-1.69,5.09.41,6.71C13.2,51.84,8.81,45.91,8,39.64a3.83,3.83,0,0,1,.49-2.91,2.34,2.34,0,0,1,3-.52c-1.19-2.46-3-4.69-4.34-7.07S4.85,24.09,5.36,21.5a6.61,6.61,0,0,1,6-5.17c-1-2.54-2-5.07-2.93-7.6C7.4,6,6.34,3.19,6.52.34c2.17,3,4.19,6.12,6.05,9.3a2.23,2.23,0,0,1,1.68-1.26q.23,3.63.48,7.28c1-3.9,1.94-7.84,3.94-11.42a90.21,90.21,0,0,0-3.25,14c3.71-4.59,1.88-11.24,5.32-16-.49,2.24-1,4.49-1.49,6.73q1.09-1.95,2.2-3.9l-3.32,9.28a28.92,28.92,0,0,1,6-6.5C20.05,12.74,15.74,18.31,17,24.27l3.67-8.51c.78-1.82,2-3.94,4.28-4.12,2.55-.2,4.4,2.23,4.72,4.4.73,5.09-3.12,9.67-6.77,13.68a3.36,3.36,0,0,1,3.27,2,6.05,6.05,0,0,1,.06,3.6,25.94,25.94,0,0,1-2.87,7.3,27.51,27.51,0,0,1,7.8-6.11l-6.63,6.85c-.52.54-.87,1.6,0,1.74,1.25.23,1.39,1.67,1.22,2.74l-1.32,8.87,4-2.07c.55-.29,1.36-.54,1.79-.12s.19.74.23,1.13.49.85.87.64A48,48,0,0,1,38.63,48a19.71,19.71,0,0,1,10.7-4.74c2.6-.25,4.17-3.17,2.7-5a9.84,9.84,0,0,1-1.18-1.43,1,1,0,0,1,.49-1.49A2.29,2.29,0,0,1,53.65,37c.1.82,1.54,1.08,2.31.61a3.28,3.28,0,0,0,1.25-2.15,3.18,3.18,0,0,1,2.36,2.81,2.44,2.44,0,0,1-2.85,2c-.92-.17-1.31.95-1.24,1.74S55.36,44,54.41,44c-2.63,0-4.66,1.85-6.27,3.59A120.79,120.79,0,0,0,31.26,70.47a5,5,0,0,0-.77,2c-.08,1.89,2.07,3.72,1.27,5.48-.83-1.48-1.61-3-2.34-4.47-1.46,2.47-2.92,5-4.36,7.41a52.46,52.46,0,0,0-5.33,10.88,12.06,12.06,0,0,1-3.46,5.34c1.75-3.63,3.49-7.24,5.22-10.87A46.12,46.12,0,0,0,15.16,96c-.73,0-.63-1-.29-1.52,1.25-2,2.51-4,3.76-6a24.54,24.54,0,0,0-4.81,5.4,11.37,11.37,0,0,1,4.3-6.15,9,9,0,0,0-3.7,2.63A6.4,6.4,0,0,1,17.32,87c-3,.36-3.83,3.57-4,6.12-.12,1.68-.23,3.37-.35,5A20.44,20.44,0,0,1,13.74,84.84Z"/>
        <path class="cls-2" d="M16.44,18.9a.55.55,0,0,0-.08-.36.36.36,0,0,0-.26-.14,1.68,1.68,0,0,0-.36,2.1A2.66,2.66,0,0,0,16.44,18.9Zm-.3-.39.12.08a.46.46,0,0,1,0,.31,2.47,2.47,0,0,1-.54,1.38A1.6,1.6,0,0,1,16.14,18.51Z"/>
        <path class="cls-2" d="M22.48,26.06a35,35,0,0,0,5-7.35,5.26,5.26,0,0,0,.32-4.58c-.77-1.45-3.12-2.35-4.56-1.39.24,2-1.15,3.89-2.12,5.75a31.6,31.6,0,0,0-2.3,6.7,1.27,1.27,0,0,0,0,.9c.29.59,1.4.76,1.48,1.39-.09.33-.69.26-1,.05s-.7-.51-1.07-.37a.72.72,0,0,0-.43.53,6.07,6.07,0,0,0,.06,4.18C19.36,29.93,20.93,28,22.48,26.06Zm-4.61,1.66a.63.63,0,0,1,.37-.46.32.32,0,0,1,.17,0,1.74,1.74,0,0,1,.7.34l.07.05a1.28,1.28,0,0,0,.92.16.4.4,0,0,0,.3-.27v0c-.06-.39-.43-.61-.8-.83a1.66,1.66,0,0,1-.7-.59,1.25,1.25,0,0,1,0-.85,31.86,31.86,0,0,1,2.28-6.67c.19-.36.4-.73.6-1.08.84-1.48,1.71-3,1.54-4.66a2.63,2.63,0,0,1,2-.27,3.58,3.58,0,0,1,2.33,1.65c.62,1.19.51,2.66-.32,4.5h0a34.73,34.73,0,0,1-4.88,7.24l-.07.09L20,28.9l-2.18,2.73A6,6,0,0,1,17.87,27.72Z"/>
        <path class="cls-2" d="M21.85,44.44a.92.92,0,0,0-.63.45l.06,0-.08,0c-.08.34-.14.68-.21,1l0,.15.18,0a1.87,1.87,0,0,0,1.61-1.39v-.06l-.07,0A1.1,1.1,0,0,0,21.85,44.44Zm-.73,1.48c.06-.33.13-.67.21-1h0a1,1,0,0,1,1.28-.3A1.74,1.74,0,0,1,21.12,45.92Z"/>
        <path class="cls-2" d="M25,61.53a2.14,2.14,0,0,1,.63,1.25h0a.14.14,0,0,1-.12,0,.64.64,0,0,1-.1-.13.8.8,0,0,0-.15-.17h0a.61.61,0,0,0-.5-.12.77.77,0,0,0-.54.39,1,1,0,0,0,.22.94l.09.13a1.85,1.85,0,0,1,.34.65l0,.24.18-.18a2.42,2.42,0,0,0,.64-1.31.73.73,0,0,0,.54-.32c.76-1,1.53-2,2.32-2.93l0,0a3.89,3.89,0,0,0,.85-1.5,3.75,3.75,0,0,0,0-1.25,2.9,2.9,0,0,1,.06-1.35l0-.1-.11,0a2.63,2.63,0,0,0-2.15.56l-.09.06-2.28,1.46a1.92,1.92,0,0,0-.87,1.8,3.51,3.51,0,0,0,.84,1.84Zm0-3.7,2.37-1.52a2.52,2.52,0,0,1,2-.55c-.3.83.12,1.76-.08,2.62a4,4,0,0,1-.86,1.49L26.11,62.8c-.12.16-.34.34-.55.25a2.19,2.19,0,0,1-.62,1.37,2.15,2.15,0,0,0-.45-.82,1,1,0,0,1-.2-.85.6.6,0,0,1,.84-.24c.09.08.14.21.23.3s.3.11.36,0c0-.55-.4-1-.76-1.5a3.43,3.43,0,0,1-.81-1.79A1.79,1.79,0,0,1,25,57.83Z"/>
        <path class="cls-2" d="M14.74,86.12A.25.25,0,0,0,15,86a8.34,8.34,0,0,1,3.39-2.45l.14,0h.06a25.21,25.21,0,0,1,2.53.06,24.62,24.62,0,0,0-3.35,2.22.73.73,0,0,0-.31.4.39.39,0,0,0,.14.4,1.22,1.22,0,0,0,.72.28.54.54,0,0,0,.18,0A3.2,3.2,0,0,0,21,85.23a10.8,10.8,0,0,0,.55-1.07c.11-.23.22-.48.35-.71h0a5.2,5.2,0,0,1,.39-.64,9.67,9.67,0,0,1,1-1.06,6.13,6.13,0,0,0,1.23-1.47A229.48,229.48,0,0,1,44,50.34l.07-.08L44,50.2a2.12,2.12,0,0,0-1.76,0l-4.76,1.62A8.3,8.3,0,0,0,32.12,57l-.08.25.27-.13,2.82-1.39L38,54.3a2.07,2.07,0,0,1,1.36-.2.37.37,0,0,1,.23.19,39.68,39.68,0,0,1-8.61,4l-.06,0,0,0a2.81,2.81,0,0,0-.06,2,1.57,1.57,0,0,0,1.12.78A1.16,1.16,0,0,0,33,61a3.47,3.47,0,0,1,2.17-.74c0,.47-.66.82-1.13,1l-4.36,2.09a1.76,1.76,0,0,1,.49-1.1l.15-.2a1.42,1.42,0,0,0,.26-1.17.76.76,0,0,0-.41-.47c-.68-.34-1.43.23-1.87.82-4.47,6.12-8.68,12.51-12.51,19l0,0,0,0c.46.65,1.55.52,2.33.36.54-.1,1.56-.16,1.86.34l-.68,0-.84,0-.45,0,.41.17A1,1,0,0,1,19,82a4.92,4.92,0,0,0-3.37.27l-.3.14.35.06a11.08,11.08,0,0,0,2.05.1A2.69,2.69,0,0,0,19,82.24v.1l.17,0a3.34,3.34,0,0,1,2,.13l-2.6.9-.17.06a3.25,3.25,0,0,0-2.9.06,2.16,2.16,0,0,0-1.1,2.29A.51.51,0,0,0,14.74,86.12Zm3-3.65a9.65,9.65,0,0,1-2-.1A4.76,4.76,0,0,1,19,82.12,2.42,2.42,0,0,1,17.69,82.47Zm3.74,0a3.4,3.4,0,0,0-2.31-.24,1.06,1.06,0,0,0-.68-1l1.67-.09c-.2-.66-1.29-.69-2.06-.54s-1.79.27-2.19-.31q5.75-9.73,12.5-19c.38-.51,1.08-1.11,1.71-.79s.43,1,.1,1.49-.8,1-.62,1.53l4.51-2.17c.58-.28,1.24-.68,1.19-1.24a3.54,3.54,0,0,0-2.38.76,1.39,1.39,0,0,1-1.9-.55,2.74,2.74,0,0,1,.07-2,39.72,39.72,0,0,0,8.72-4.07c-.18-.57-1.19-.42-1.8-.12L32.24,57A8.16,8.16,0,0,1,37.52,52l4.76-1.62a2,2,0,0,1,1.64-.06,227.29,227.29,0,0,0-19.57,30c-.51,1-1.55,1.62-2.19,2.51s-.82,1.65-1.3,2.44a3.07,3.07,0,0,1-2.36,1.61c-.43,0-1-.22-.91-.56a.73.73,0,0,1,.28-.35,24.9,24.9,0,0,1,3.63-2.37,25.65,25.65,0,0,0-2.91-.08C19.55,83.1,20.49,82.78,21.43,82.44Zm-5.89,1.1a3.07,3.07,0,0,1,2.8,0A8.62,8.62,0,0,0,14.9,86c-.12.15-.38-.08-.41-.25A2.06,2.06,0,0,1,15.54,83.54Z"/>
        <path class="cls-2" d="M22.05,41.06a16.34,16.34,0,0,0,3.15-8.52,1.87,1.87,0,0,0-.14-1.07A1.16,1.16,0,0,0,24,30.86h0a11.75,11.75,0,0,0-4.85,1.72A2.25,2.25,0,0,0,18,33.9a2.13,2.13,0,0,0,.11.93,42.57,42.57,0,0,0,2.28,6.24.88.88,0,0,0,.45.52.6.6,0,0,0,.22.06A1.28,1.28,0,0,0,22.05,41.06Zm-1.54,0a41.91,41.91,0,0,1-2.27-6.23,1.93,1.93,0,0,1-.12-.89,2.14,2.14,0,0,1,1.08-1.25A11.5,11.5,0,0,1,24,31a1,1,0,0,1,1,.54,2,2,0,0,1,.13,1A16.32,16.32,0,0,1,22,41c-.24.32-.67.67-1.06.5A.78.78,0,0,1,20.51,41Z"/>
        <path class="cls-2" d="M13.32,93.11c.17-2.55,1-5.76,4-6.12a6.4,6.4,0,0,0-2.9,3.41,9,9,0,0,1,3.7-2.63,11.37,11.37,0,0,0-4.3,6.15,24.54,24.54,0,0,1,4.81-5.4c-1.25,2-2.51,4-3.76,6-.34.53-.44,1.48.29,1.52a46.12,46.12,0,0,1,6.33-9.71c-1.73,3.63-3.47,7.24-5.22,10.87a12.06,12.06,0,0,0,3.46-5.34,52.46,52.46,0,0,1,5.33-10.88C26.5,78.48,28,76,29.42,73.53c.73,1.51,1.51,3,2.34,4.47.8-1.76-1.35-3.59-1.27-5.48a5,5,0,0,1,.77-2A120.79,120.79,0,0,1,48.14,47.54C49.75,45.8,51.78,44,54.41,44c1,0,1.13-1.11,1.07-1.9s.32-1.91,1.24-1.74a2.44,2.44,0,0,0,2.85-2,3.18,3.18,0,0,0-2.36-2.81A3.28,3.28,0,0,1,56,37.61c-.77.47-2.21.21-2.31-.61a2.29,2.29,0,0,0-2.31-1.75,1,1,0,0,0-.49,1.49A9.84,9.84,0,0,0,52,38.17c1.47,1.88-.1,4.8-2.7,5A19.71,19.71,0,0,0,38.63,48a48,48,0,0,0-7.32,8.33c-.38.21-.84-.25-.87-.64s.07-.83-.23-1.13-1.24-.17-1.79.12l-4,2.07,1.32-8.87c.17-1.07,0-2.51-1.22-2.74-.83-.14-.48-1.2,0-1.74l6.63-6.85a27.51,27.51,0,0,0-7.8,6.11,25.94,25.94,0,0,0,2.87-7.3,6.05,6.05,0,0,0-.06-3.6,3.36,3.36,0,0,0-3.27-2c3.65-4,7.5-8.59,6.77-13.68-.32-2.17-2.17-4.6-4.72-4.4-2.3.18-3.5,2.3-4.28,4.12L17,24.27c-1.26-6,3.05-11.53,7.16-16.39a28.92,28.92,0,0,0-6,6.5L21.45,5.1q-1.11,2-2.2,3.9c.51-2.24,1-4.49,1.49-6.73-3.44,4.73-1.61,11.38-5.32,16a90.21,90.21,0,0,1,3.25-14c-2,3.58-3,7.52-3.94,11.42q-.25-3.64-.48-7.28a2.23,2.23,0,0,0-1.68,1.26C10.71,6.46,8.69,3.37,6.52.34,6.34,3.19,7.4,6,8.45,8.73c1,2.53,2,5.06,2.93,7.6a6.61,6.61,0,0,0-6,5.17c-.51,2.59.47,5.25,1.85,7.64s3.15,4.61,4.34,7.07a2.34,2.34,0,0,0-3,.52A3.83,3.83,0,0,0,8,39.64c.79,6.27,5.18,12.2,11.51,15.6-2.1-1.62-1.34-4.47-.41-6.71.18-.43.75-1,1.16-.62a.69.69,0,0,0,.25,1.16c.08-1.63,1.95-3,3.85-2.81-.68,4.15-1.35,8.28-2,12.42l-10-2.86a5.53,5.53,0,0,1-2.29-1,1.29,1.29,0,0,1-.08-2c1.49-1.11,4.3,1.58,5.58.3A7.46,7.46,0,0,0,13,52.43a1,1,0,0,0,.37-1.24c-1.31.77-3.1,0-4.44-.78l-8.82-5,7.15,5.69c.44-.34,1.19.06,1.34.55a4.44,4.44,0,0,1-.08,1.49c-.18,2,2.1,3.57,4.34,4.21s4.72.7,6.83,1.64A6.77,6.77,0,0,1,23.91,65a.75.75,0,0,1-.18.54,1.19,1.19,0,0,1-.76.21,13,13,0,0,1-6-1.25,2.62,2.62,0,0,1-1-.72c-.55-.74,0-1.75.82-2.21a6.79,6.79,0,0,1,2.94-.53c.09-.61-.76-1.05-1.5-1s-1.39.3-2.11.31a2.59,2.59,0,0,1-2.56-1.64c.22,1.32.44,2.63.67,3.93.27,1.58,1.78,2.84,3.48,3.49a19.29,19.29,0,0,0,5.47.92,72.15,72.15,0,0,0-8.55,14.11C14,82.45,13.13,84,11.44,84a4.26,4.26,0,0,0,2.3.81A20.44,20.44,0,0,0,13,98.16C13.09,96.48,13.2,94.79,13.32,93.11Zm.54-8.23.06-.13h-.23a4.11,4.11,0,0,1-1.93-.61c1.55-.21,2.4-1.67,3-2.94a71.39,71.39,0,0,1,8.54-14.09l.11-.15h-.22A19.43,19.43,0,0,1,17.75,66c-1.46-.55-3.12-1.74-3.41-3.4L14,60.48c-.06-.35-.13-.71-.19-1.07a3,3,0,0,0,2.32,1,5.51,5.51,0,0,0,1.09-.16,6.09,6.09,0,0,1,1-.15,1.74,1.74,0,0,1,1.15.39.64.64,0,0,1,.22.44,6.53,6.53,0,0,0-2.88.54c-.89.48-1.46,1.56-.86,2.35a2.66,2.66,0,0,0,1.06.76A13,13,0,0,0,23,65.87a1.22,1.22,0,0,0,.84-.23A.83.83,0,0,0,24,65a6.89,6.89,0,0,0-4.31-6.17,17.72,17.72,0,0,0-4.19-1.1,26.7,26.7,0,0,1-2.66-.55C10.7,56.58,8.44,55,8.61,53.09a4,4,0,0,1,.07-.48,2.15,2.15,0,0,0,0-1,1.2,1.2,0,0,0-.82-.72.84.84,0,0,0-.63.06L3.8,48.18l-2.49-2,5.23,3,2.29,1.3c1.92,1.11,3.38,1.39,4.44.86a.93.93,0,0,1-.38,1l-.23.17.3,0a7.52,7.52,0,0,1,2.37.6c-.59.46-1.52.13-2.5-.22s-2.16-.77-2.95-.18a1.11,1.11,0,0,0-.47.84A1.67,1.67,0,0,0,10,54.85a5.58,5.58,0,0,0,2.34,1.07l10,2.86.14,0,2.07-12.65h-.13a3.94,3.94,0,0,0-2.69.75,3,3,0,0,0-1.28,2,.65.65,0,0,1-.23-.37.51.51,0,0,1,.18-.52l.09-.08-.09-.08a.63.63,0,0,0-.5-.13,1.38,1.38,0,0,0-.87.8c-.78,1.88-1.58,4.48-.16,6.23C13,51.3,8.89,45.58,8.14,39.63a3.75,3.75,0,0,1,.48-2.84,2.34,2.34,0,0,1,1.6-.83,1.79,1.79,0,0,1,1.25.33l.41.34-.21-.45a37.93,37.93,0,0,0-2.55-4.25c-.61-.93-1.24-1.88-1.8-2.84-1.67-2.9-2.27-5.38-1.83-7.57a6.49,6.49,0,0,1,5.9-5.08h.16l-.05-.13-1.11-2.88c-.61-1.57-1.21-3.15-1.82-4.72-1-2.46-2-5.24-1.94-8,2.1,2.94,4.06,6,5.83,9l.13.23.1-.24a2.1,2.1,0,0,1,1.44-1.16c.15,2.35.31,4.77.47,7.15l.06.8.19-.78a50.18,50.18,0,0,1,3.31-10.2,90.2,90.2,0,0,0-2.87,12.75l-.06.43.29-.36c1.92-2.37,2.37-5.33,2.82-8.19.38-2.49.78-5.06,2.14-7.24l0,.19C20,5,19.57,7,19.13,9l-.19.81,1.9-3.37L19.71,9.6c-.57,1.58-1.13,3.16-1.7,4.75l-.33.92.56-.84a28.22,28.22,0,0,1,5-5.63c-4,4.82-7.53,10-6.37,15.49l.09.39.15-.37Q19,20.07,20.78,15.8c.77-1.79,1.94-3.87,4.18-4.06,2.42-.18,4.26,2.1,4.58,4.31.72,4.94-2.94,9.43-6.74,13.6l-.19.2.3,0a3.25,3.25,0,0,1,3.14,1.93,6,6,0,0,1,.06,3.55,25.74,25.74,0,0,1-2.86,7.27l.21.12A27.24,27.24,0,0,1,30.55,37l-2.84,2.94-3.28,3.38a1.67,1.67,0,0,0-.5,1.54.68.68,0,0,0,.53.38c1.11.2,1.31,1.48,1.13,2.62l-1.36,9.08.23-.11,2.09-1.08,1.94-1c.27-.14,1.18-.57,1.62-.14a.94.94,0,0,1,.19.76c0,.1,0,.21,0,.31a.94.94,0,0,0,.54.73.58.58,0,0,0,.53,0l0,0A47.92,47.92,0,0,1,38.72,48a19.62,19.62,0,0,1,10.63-4.71,3.8,3.8,0,0,0,3-2,2.91,2.91,0,0,0-.18-3.24c-.15-.18-.31-.36-.47-.52a3.61,3.61,0,0,1-.7-.89,1.08,1.08,0,0,1,0-1,.72.72,0,0,1,.43-.38A2.15,2.15,0,0,1,53.52,37a1.06,1.06,0,0,0,.74.8A2.16,2.16,0,0,0,56,37.7a3.24,3.24,0,0,0,1.26-2.09,3,3,0,0,1,2.14,2.65,2,2,0,0,1-1,1.57,2.45,2.45,0,0,1-1.73.38,1,1,0,0,0-.79.17,1.93,1.93,0,0,0-.59,1.68A2.12,2.12,0,0,1,55,43.65a.8.8,0,0,1-.55.19c-2.65,0-4.7,1.84-6.36,3.63a120.61,120.61,0,0,0-16.89,23l0,0a4.9,4.9,0,0,0-.75,2A5.51,5.51,0,0,0,31.11,75a3.91,3.91,0,0,1,.63,2.7c-.76-1.36-1.51-2.78-2.21-4.21l-.1-.22-.12.2c-1.46,2.47-2.92,5-4.36,7.42a52.36,52.36,0,0,0-5.34,10.89,11.71,11.71,0,0,1-2.94,4.83l4.94-10.29.4-.83-.62.73a46,46,0,0,0-6.31,9.66.44.44,0,0,1-.25-.16,1.29,1.29,0,0,1,.15-1.2q1.82-2.9,3.63-5.76l.53-.83-.6.5a24.9,24.9,0,0,0-4.36,4.73,11.49,11.49,0,0,1,4-5.32l.65-.49-.79.31A9.23,9.23,0,0,0,14.8,89.8a6.65,6.65,0,0,1,2.59-2.73l.45-.25-.54.06c-1.69.21-3.78,1.45-4.1,6.22-.11,1.43-.21,2.87-.3,4.29A20.39,20.39,0,0,1,13.86,84.88Z"/>
        <path class="cls-2" d="M17.77,32.11l.15-.18c.77-1,1.55-1.94,2.33-2.9l2.33-2.91.08-.09a34.87,34.87,0,0,0,4.91-7.28c.85-1.9.95-3.42.31-4.66a3.79,3.79,0,0,0-2.5-1.77,2.89,2.89,0,0,0-2.25.33l-.05,0v.05c.19,1.62-.67,3.14-1.51,4.61-.2.36-.41.73-.6,1.09a32.24,32.24,0,0,0-2.3,6.73,1.38,1.38,0,0,0,0,1,1.83,1.83,0,0,0,.79.68c.33.2.63.38.69.66a.18.18,0,0,1-.14.11,1,1,0,0,1-.68-.13l-.07-.05c-.32-.21-.71-.49-1.12-.34a.86.86,0,0,0-.51.6,6.18,6.18,0,0,0,.06,4.24Zm0-4.42a.72.72,0,0,1,.43-.53c.37-.14.75.16,1.07.37s.93.28,1-.05c-.08-.63-1.19-.8-1.48-1.39a1.27,1.27,0,0,1,0-.9,31.6,31.6,0,0,1,2.3-6.7c1-1.86,2.36-3.71,2.12-5.75,1.44-1,3.79-.06,4.56,1.39a5.26,5.26,0,0,1-.32,4.58,35,35,0,0,1-5,7.35c-1.55,1.94-3.12,3.87-4.67,5.81A6.07,6.07,0,0,1,17.75,27.69Z"/>
        <path class="cls-2" d="M11.94,15.51l.05,0,.14,0a.44.44,0,0,0,.22-.05.79.79,0,0,0,.33-.64c0-.44,0-.88,0-1.32s0-1,0-1.43a3.12,3.12,0,0,0-.15-1.32,4,4,0,0,0-.62-1l0-.08h0a29.1,29.1,0,0,1-4.07-7l-.06-.14-.14.09c-.53.36-.35,1.05-.16,1.54C8,5.57,8.55,7,9.11,8.36q1.41,3.56,2.81,7.1ZM7.56,4.14c-.18-.48-.34-1.11.13-1.42a29.31,29.31,0,0,0,4.08,7.06,4.12,4.12,0,0,1,.66,1.05,3.27,3.27,0,0,1,.15,1.28c0,.91,0,1.84,0,2.76,0,.28-.2.68-.51.56Q9.81,9.78,7.56,4.14Z"/>
        <path class="cls-2" d="M18.08,38.09l-1.87-3.55a11.22,11.22,0,0,0-.19-2l0-.2-.18.14a5,5,0,0,1-2.43,1c.18-.3.38-.6.58-.9a11.8,11.8,0,0,0,1-1.61c1.28-2.73.27-5.78-1-8.93l-1.11-2.78a1.9,1.9,0,0,0-1.23-1.36,2,2,0,0,0-1.16.14,5.66,5.66,0,0,0-3.64,5.21,12.37,12.37,0,0,0,1.91,6.14A47.39,47.39,0,0,0,19,42.16a3.14,3.14,0,0,1-2.29-.8l-.2-.15v.22a20.84,20.84,0,0,0,1.08,7l.1.31.14-.3c.37-.83.74-1.67,1.12-2.5s.71-1.6,1.07-2.39a2.22,2.22,0,0,0,.24-.74,2.41,2.41,0,0,0-.39-1.25Zm1.86,5.41c-.72,1.63-1.47,3.27-2.19,4.89a20.69,20.69,0,0,1-1.08-7,3,3,0,0,0,2.6.76A46.78,46.78,0,0,1,8.85,29.34a12.1,12.1,0,0,1-1.91-6.09,5.61,5.61,0,0,1,3.57-5.12A1.89,1.89,0,0,1,11.58,18c.64.14.94.75,1.15,1.29l1.11,2.78c1.13,2.88,2.27,6.07,1,8.86-.43.94-1.12,1.77-1.64,2.68a5.25,5.25,0,0,0,2.74-1,12.19,12.19,0,0,1,.18,2c1.24,2.34,2.48,4.7,3.71,7a2.31,2.31,0,0,1,.39,1.19A1.93,1.93,0,0,1,19.94,43.5Z"/>
        <path class="cls-2" d="M16.52,48c-.12-.28-.25-.57-.36-.86a12.73,12.73,0,0,1-.59-2.83l0-.19a17.92,17.92,0,0,0-1.08-4.61,4.48,4.48,0,0,0-1.71-2.22,2.73,2.73,0,0,0-3,0,2.59,2.59,0,0,0-.56,2.59,20.54,20.54,0,0,0,2.22,6.61,13.57,13.57,0,0,0,5.21,5.23l.11.06.07-.09a2.7,2.7,0,0,0,.23-2.33A10.42,10.42,0,0,0,16.52,48Zm.2,3.61a13.42,13.42,0,0,1-5.17-5.19,20.49,20.49,0,0,1-2.21-6.57,2.5,2.5,0,0,1,.53-2.5,2.58,2.58,0,0,1,2.81,0,4.37,4.37,0,0,1,1.67,2.16,18.57,18.57,0,0,1,1.07,4.59,13.46,13.46,0,0,0,.62,3c.28.73.68,1.44.9,2.2A2.59,2.59,0,0,1,16.72,51.58Z"/>
        <path class="cls-2" d="M15.72,20.7l.12-.14a2.75,2.75,0,0,0,.72-1.65.65.65,0,0,0-.1-.44.54.54,0,0,0-.36-.18H16l0,0a1.79,1.79,0,0,0-.37,2.22Zm.38-2.3a.36.36,0,0,1,.26.14.55.55,0,0,1,.08.36,2.66,2.66,0,0,1-.7,1.6A1.68,1.68,0,0,1,16.1,18.4Z"/>
        <path class="cls-2" d="M53.4,88.41a1.32,1.32,0,0,0-.46.16,1.16,1.16,0,0,0-.57.92A1.67,1.67,0,0,0,53.4,88.41Z"/>
        <path class="cls-2" d="M52.12,89.66v.13l.16,0a1.93,1.93,0,0,0,1.39-1.44l0-.13h-.15a1.4,1.4,0,0,0-.75.21A1.33,1.33,0,0,0,52.12,89.66Zm1.44-1.37a1.82,1.82,0,0,1-1.32,1.36,1.23,1.23,0,0,1,.63-1.16A1.43,1.43,0,0,1,53.56,88.29Z"/>
        <path class="cls-2" d="M52.24,89.65a1.82,1.82,0,0,0,1.32-1.36,1.43,1.43,0,0,0-.69.2A1.23,1.23,0,0,0,52.24,89.65Zm.7-1.08a1.32,1.32,0,0,1,.46-.16,1.67,1.67,0,0,1-1,1.08A1.16,1.16,0,0,1,52.94,88.57Z"/>
        <path class="cls-2" d="M62.85,86.85h0a.11.11,0,0,0-.1.05c0,.06,0,.17.07.28A6.62,6.62,0,0,0,64,88.64h0A1.19,1.19,0,0,0,65,89a16.69,16.69,0,0,0-1.71-2A.78.78,0,0,0,62.85,86.85Z"/>
        <path class="cls-2" d="M63.47,86.93a1,1,0,0,0-.68-.29.33.33,0,0,0-.28.15c-.12.17,0,.37.05.48a6.93,6.93,0,0,0,1.28,1.52,1.67,1.67,0,0,0,1,.46.71.71,0,0,0,.45-.1l.09-.06L65.27,89A16.1,16.1,0,0,0,63.47,86.93Zm.46,1.78a6.65,6.65,0,0,1-1.26-1.49c-.06-.11-.14-.26-.06-.38s.57,0,.77.16a17.26,17.26,0,0,1,1.79,2.06C64.79,89.29,64.26,89,63.93,88.71Z"/>
        <path class="cls-2" d="M62.61,86.84c-.08.12,0,.27.06.38a6.65,6.65,0,0,0,1.26,1.49c.33.31.86.58,1.24.35A17.26,17.26,0,0,0,63.38,87C63.18,86.81,62.77,86.62,62.61,86.84Zm1.4,1.8h0a6.62,6.62,0,0,1-1.22-1.46c-.06-.11-.11-.22-.07-.28a.11.11,0,0,1,.1-.05h0a.78.78,0,0,1,.43.22A16.69,16.69,0,0,1,65,89,1.19,1.19,0,0,1,64,88.64Z"/>
        <path class="cls-2" d="M24.79,72.47c.2-.19.38-.53.1-.65a1.79,1.79,0,0,0-1.06.39L22.3,73.28a.87.87,0,0,1,.15.46A3.91,3.91,0,0,0,24.79,72.47Zm-.88-.17a1.59,1.59,0,0,1,.95-.37h0s0,0,.05.06a.59.59,0,0,1-.21.41,4,4,0,0,1-2.13,1.22.87.87,0,0,0-.12-.31Z"/>
        <path class="cls-2" d="M62.33,63.15a.28.28,0,0,0,.2-.23.11.11,0,0,0-.06-.12l-1.38-.64-1.48-.68c-.29-.13-.59-.25-.8-.13a.27.27,0,0,0-.14.19.22.22,0,0,0,0,.2l1,.44,1.91.83A1.14,1.14,0,0,0,62.33,63.15Z"/>
        <path class="cls-2" d="M62.13,63.38a.86.86,0,0,0,.28,0,.5.5,0,0,0,.37-.41.32.32,0,0,0-.2-.33L61.21,62l-1.49-.69a1.23,1.23,0,0,0-1-.12.49.49,0,0,0-.25.33.46.46,0,0,0,.1.39l1.08.48,1.91.82A1.8,1.8,0,0,0,62.13,63.38Zm-3.51-1.56a.36.36,0,0,1,.12-.56c.27-.15.63,0,.93.12l2.85,1.32c.26.12.12.48-.15.55a1.24,1.24,0,0,1-.81-.15Z"/>
        <path class="cls-2" d="M62.37,63.25c.27-.07.41-.43.15-.55l-2.85-1.32c-.3-.12-.66-.27-.93-.12a.36.36,0,0,0-.12.56l2.94,1.28A1.24,1.24,0,0,0,62.37,63.25ZM58.7,61.74a.22.22,0,0,1,0-.2.27.27,0,0,1,.14-.19c.21-.12.51,0,.8.13l1.48.68,1.38.64a.11.11,0,0,1,.06.12.28.28,0,0,1-.2.23,1.14,1.14,0,0,1-.71-.14l-1.91-.83Z"/>
        <path class="cls-2" d="M33.43,72.8a9,9,0,0,0,.68,2.51,1.49,1.49,0,0,1,.52.44.61.61,0,0,0,.19,0,13,13,0,0,0-1.32-3.65A1.2,1.2,0,0,0,33.43,72.8Z"/>
        <path class="cls-2" d="M33.55,71.69l-.12.11a1.14,1.14,0,0,0-.25,1,9.7,9.7,0,0,0,.71,2.6l0,0,0,0a1.31,1.31,0,0,1,.5.42l0,0h.05l.13,0A.72.72,0,0,0,35,75.9l.08,0v-.08a13.06,13.06,0,0,0-1.45-4Zm1,4.15a1.43,1.43,0,0,0-.54-.46,9.37,9.37,0,0,1-.71-2.57,1.05,1.05,0,0,1,.22-.93A13,13,0,0,1,35,75.81.6.6,0,0,1,34.55,75.84Z"/>
        <path class="cls-2" d="M33.3,72.81A9.37,9.37,0,0,0,34,75.38a1.43,1.43,0,0,1,.54.46.6.6,0,0,0,.4,0,13,13,0,0,0-1.43-3.93A1.05,1.05,0,0,0,33.3,72.81Zm1.33,2.94a1.49,1.49,0,0,0-.52-.44,9,9,0,0,1-.68-2.51,1.2,1.2,0,0,1,.07-.71,13,13,0,0,1,1.32,3.65A.61.61,0,0,1,34.63,75.75Z"/>
        <path class="cls-2" d="M64.27,68.34a41,41,0,0,0-3.77-1.86,1.37,1.37,0,0,0-.36-.11.27.27,0,0,0-.19,0h0a.11.11,0,0,0-.05.11.79.79,0,0,0,.39.42,29.24,29.24,0,0,0,4.38,2,.11.11,0,0,0,0-.09A.83.83,0,0,0,64.27,68.34Z"/>
        <path class="cls-2" d="M64.4,68.16c-1.27-.7-2.54-1.33-3.79-1.87-.48-.21-.73-.12-.85,0a.34.34,0,0,0-.11.28,1,1,0,0,0,.51.57,28.33,28.33,0,0,0,4.49,2l.07,0,0,0a.34.34,0,0,0,.19-.31A1,1,0,0,0,64.4,68.16Zm.3.91a28.69,28.69,0,0,1-4.47-2c-.3-.16-.6-.48-.38-.69s.48-.06.71,0c1.29.56,2.56,1.19,3.78,1.86C64.68,68.45,65,68.87,64.7,69.07Z"/>
        <path class="cls-2" d="M64.34,68.25c-1.22-.67-2.49-1.3-3.78-1.86-.23-.1-.54-.2-.71,0s.08.53.38.69a28.69,28.69,0,0,0,4.47,2C65,68.87,64.68,68.45,64.34,68.25Zm.33.69a29.24,29.24,0,0,1-4.38-2,.79.79,0,0,1-.39-.42.11.11,0,0,1,.05-.11h0a.27.27,0,0,1,.19,0,1.37,1.37,0,0,1,.36.11,41,41,0,0,1,3.77,1.86.83.83,0,0,1,.44.51A.11.11,0,0,1,64.67,68.94Z"/>
        <path class="cls-2" d="M24.91,70a1.43,1.43,0,0,0,.9-.23,10.69,10.69,0,0,0,3.27-2.32c-.39-.39-1.13-.11-1.59.18l-2.85,1.77C24.38,69.54,24.6,69.93,24.91,70Zm-.2-.51c.95-.6,1.91-1.19,2.85-1.77h0a2,2,0,0,1,1.06-.36.56.56,0,0,1,.29.1,10.53,10.53,0,0,1-3.17,2.22,1.28,1.28,0,0,1-.8.22.39.39,0,0,1-.28-.26A.12.12,0,0,1,24.71,69.48Z"/>
        <path class="cls-2" d="M62.39,57.85l-3-1.5a1.49,1.49,0,0,0-1.23-.2c.07.25.37.43.66.58l2,1.05,1.33.69c.19.1.54.25.72.09a.16.16,0,0,0,.07-.17A1,1,0,0,0,62.39,57.85Z"/>
        <path class="cls-2" d="M62.51,57.66l-3-1.5c-.26-.12-1-.49-1.56-.14l0,0v.06c0,.37.43.61.79.8l2,1.05,1.32.69a1.59,1.59,0,0,0,.6.19.58.58,0,0,0,.42-.12.37.37,0,0,0,.15-.35C63.15,58.09,62.81,57.81,62.51,57.66Zm.46,1c-.23.19-.61.06-.87-.08l-3.36-1.74c-.34-.17-.7-.39-.73-.72.39-.27,1-.06,1.42.16l3,1.5C62.85,58,63.29,58.38,63,58.64Z"/>
        <path class="cls-2" d="M62.45,57.76l-3-1.5c-.44-.22-1-.43-1.42-.16,0,.33.39.55.73.72l3.36,1.74c.26.14.64.27.87.08S62.85,58,62.45,57.76Zm.43.8c-.18.16-.53,0-.72-.09l-1.33-.69-2-1.05c-.29-.15-.59-.33-.66-.58a1.49,1.49,0,0,1,1.23.2l3,1.5a1,1,0,0,1,.56.54A.16.16,0,0,1,62.88,58.56Z"/>
        <path class="cls-2" d="M38,61.57a1,1,0,0,0,0,.76l.33,1.24.27,1a2.89,2.89,0,0,0,.49,1.12,1.29,1.29,0,0,0,1,.47A15.62,15.62,0,0,1,38.6,61.3.68.68,0,0,0,38,61.57Z"/>
        <path class="cls-2" d="M38.83,61.14l-.08,0a.93.93,0,0,0-1,.34,1.15,1.15,0,0,0,0,.91c.11.42.23.84.34,1.25s.18.64.26.95h0a3.12,3.12,0,0,0,.54,1.19,1.58,1.58,0,0,0,1.08.56,1.41,1.41,0,0,0,.29,0l.15,0-.06-.12a14.94,14.94,0,0,1-1.51-5ZM39,65.7a3,3,0,0,1-.52-1.15c-.19-.73-.4-1.46-.6-2.2a1.11,1.11,0,0,1,0-.84.81.81,0,0,1,.84-.29,15.49,15.49,0,0,0,1.52,5A1.38,1.38,0,0,1,39,65.7Z"/>
        <path class="cls-2" d="M37.87,61.51a1.11,1.11,0,0,0,0,.84c.2.74.41,1.47.6,2.2A3,3,0,0,0,39,65.7a1.38,1.38,0,0,0,1.24.51,15.49,15.49,0,0,1-1.52-5A.81.81,0,0,0,37.87,61.51Zm1.22,4.14a2.89,2.89,0,0,1-.49-1.12l-.27-1L38,62.33a1,1,0,0,1,0-.76.68.68,0,0,1,.62-.27,15.62,15.62,0,0,0,1.45,4.82A1.29,1.29,0,0,1,39.09,65.65Z"/>
        <path class="cls-2" d="M54.9,69.35l-1.34,1.42-1.31,1.39c-.22.24-.43.51-.35.75.36.09.73-.21,1-.49l2.18-2.29c.37-.39.75-.83.7-1.29A1.35,1.35,0,0,0,54.9,69.35Z"/>
        <path class="cls-2" d="M55.26,70.26A1.9,1.9,0,0,0,56,68.73l0-.07-.09,0a1.43,1.43,0,0,0-1.18.58l-1.35,1.42L52.05,72c-.28.29-.54.64-.36,1l0,0,0,0a.86.86,0,0,0,.23,0,1.41,1.41,0,0,0,1.1-.58ZM51.8,73c-.15-.31.1-.63.35-.9l2.66-2.81a1.28,1.28,0,0,1,1.07-.53c.1.53-.32,1-.72,1.44-.72.77-1.45,1.53-2.18,2.3C52.69,72.81,52.25,73.16,51.8,73Z"/>
        <path class="cls-2" d="M55.88,68.75a1.28,1.28,0,0,0-1.07.53l-2.66,2.81c-.25.27-.5.59-.35.9.45.17.89-.18,1.18-.5.73-.77,1.46-1.53,2.18-2.3C55.56,69.77,56,69.28,55.88,68.75Zm-3,3.67c-.25.28-.62.58-1,.49-.08-.24.13-.51.35-.75l1.31-1.39,1.34-1.42a1.35,1.35,0,0,1,.86-.51c.05.46-.33.9-.7,1.29Z"/>
        <path class="cls-2" d="M66.92,82.73c-2.15-1.34-4.12-2.46-6.36-2.62,0,.18.28.37.48.46.45.19.92.37,1.38.54a14,14,0,0,1,2.83,1.3l.18.13a2.55,2.55,0,0,0,1.45.61c.07,0,.25,0,.27-.14S67,82.77,66.92,82.73Z"/>
        <path class="cls-2" d="M66.9,83.36c.27,0,.45-.13.5-.29s0-.31-.34-.52c-2.2-1.36-4.21-2.5-6.54-2.66h-.13l0,.07c-.18.31.19.63.57.8s.93.38,1.39.55a13.8,13.8,0,0,1,2.78,1.28l.18.12a3.06,3.06,0,0,0,1.45.66Zm-1.73-.87A26.57,26.57,0,0,0,61,80.66c-.31-.14-.67-.41-.52-.66,2.42.14,4.54,1.41,6.52,2.64.16.09.34.24.29.39s-.22.21-.39.22A3,3,0,0,1,65.17,82.49Z"/>
        <path class="cls-2" d="M67.28,83c0-.15-.13-.3-.29-.39-2-1.23-4.1-2.5-6.52-2.64-.15.25.21.52.52.66a26.57,26.57,0,0,1,4.18,1.83,3,3,0,0,0,1.72.76C67.06,83.24,67.24,83.18,67.28,83Zm-1.85-.49-.18-.13a14,14,0,0,0-2.83-1.3c-.46-.17-.93-.35-1.38-.54-.2-.09-.49-.28-.48-.46,2.24.16,4.21,1.28,6.36,2.62.08,0,.27.17.23.28s-.2.13-.27.14A2.55,2.55,0,0,1,65.43,82.54Z"/>
        <path class="cls-2" d="M41.64,57.36a.58.58,0,0,0-.34-.14h0a.32.32,0,0,0-.22.08.34.34,0,0,0-.08.27h0a2.92,2.92,0,0,0,.31,1.25c.57,1.39,1.14,2.77,1.7,4.17l0,0a2.6,2.6,0,0,0,.6,1,1.2,1.2,0,0,0,1,.29A23.94,23.94,0,0,1,41.94,58,1.16,1.16,0,0,0,41.64,57.36Z"/>
        <path class="cls-2" d="M41.82,57.22a.88.88,0,0,0-.58-.21.56.56,0,0,0-.39.16.49.49,0,0,0-.14.4A3.21,3.21,0,0,0,41,58.9l1.71,4.17v0a2.82,2.82,0,0,0,.66,1.06,1.55,1.55,0,0,0,.9.37,1.2,1.2,0,0,0,.53-.08l.11,0-.06-.09A24,24,0,0,1,42.18,58,1.36,1.36,0,0,0,41.82,57.22Zm1.68,6.87A2.86,2.86,0,0,1,42.86,63l-1.71-4.17a3.09,3.09,0,0,1-.31-1.3.4.4,0,0,1,.1-.33.62.62,0,0,1,.79,0,1.28,1.28,0,0,1,.33.69,24,24,0,0,0,2.72,6.37A1.28,1.28,0,0,1,43.5,64.09Z"/>
        <path class="cls-2" d="M41.73,57.29a.62.62,0,0,0-.79,0,.4.4,0,0,0-.1.33,3.09,3.09,0,0,0,.31,1.3L42.86,63a2.86,2.86,0,0,0,.64,1.05,1.28,1.28,0,0,0,1.28.26A24,24,0,0,1,42.06,58,1.28,1.28,0,0,0,41.73,57.29ZM43.59,64a2.6,2.6,0,0,1-.6-1l0,0c-.56-1.4-1.13-2.78-1.7-4.17A2.92,2.92,0,0,1,41,57.58h0A.34.34,0,0,1,41,57.3a.32.32,0,0,1,.22-.08h0a.58.58,0,0,1,.34.14,1.16,1.16,0,0,1,.3.64,23.94,23.94,0,0,0,2.67,6.3A1.2,1.2,0,0,1,43.59,64Z"/>
        <path class="cls-2" d="M52.88,79.44a10,10,0,0,0,1.83-1.59c1.49-1.52,2.93-3.15,2.86-5h-.06a.54.54,0,0,0-.42.19,1.34,1.34,0,0,0-.18.52v.08a8,8,0,0,1-2.55,3.66c-.46.45-.94.93-1.34,1.41a.77.77,0,0,0-.21.63A.2.2,0,0,0,52.88,79.44Z"/>
        <path class="cls-2" d="M52.83,79.66l.07,0,.06,0A9.15,9.15,0,0,0,54.9,78c1.54-1.57,3-3.26,2.92-5.23V72.7l-.06,0a.77.77,0,0,0-.87.23,1.28,1.28,0,0,0-.21.61l0,.07a7.85,7.85,0,0,1-2.49,3.56c-.47.46-.94.93-1.36,1.43a1,1,0,0,0-.25.81A.51.51,0,0,0,52.83,79.66Zm.08-1c1.37-1.65,3.43-3,3.86-5A1.68,1.68,0,0,1,57,73a.6.6,0,0,1,.7-.19c.11,2-1.42,3.65-2.88,5.15a9.42,9.42,0,0,1-1.92,1.64C52.5,79.4,52.67,78.92,52.91,78.63Z"/>
        <path class="cls-2" d="M52.89,79.56a9.42,9.42,0,0,0,1.92-1.64c1.46-1.5,3-3.19,2.88-5.15A.6.6,0,0,0,57,73a1.68,1.68,0,0,0-.22.64c-.43,2-2.49,3.38-3.86,5C52.67,78.92,52.5,79.4,52.89,79.56Zm.12-.87c.4-.48.88-1,1.34-1.41a8,8,0,0,0,2.55-3.66v-.08a1.34,1.34,0,0,1,.18-.52.54.54,0,0,1,.42-.19h.06c.07,1.86-1.37,3.49-2.86,5a10,10,0,0,1-1.83,1.59.2.2,0,0,1-.08-.12A.77.77,0,0,1,53,78.69Z"/>
        <path class="cls-2" d="M47.57,58.38a1.3,1.3,0,0,0,.52.55.64.64,0,0,0,.41,0,.29.29,0,0,0,.18-.12,2.9,2.9,0,0,0-.58-1.2l0-.07a14.15,14.15,0,0,1-2.38-6.21,1.21,1.21,0,0,0-.57.52h0a2,2,0,0,0,.1,1.64A26.21,26.21,0,0,0,47.57,58.38Z"/>
        <path class="cls-2" d="M47.35,58.47a1.46,1.46,0,0,0,.62.64.89.89,0,0,0,.32.08.7.7,0,0,0,.29,0,.5.5,0,0,0,.34-.25v0a2.85,2.85,0,0,0-.61-1.32l0-.07a14.15,14.15,0,0,1-2.36-6.28l0-.15-.16.06a1.53,1.53,0,0,0-.85.69,2.13,2.13,0,0,0,.1,1.79A25.89,25.89,0,0,0,47.35,58.47ZM45,51.83a1.5,1.5,0,0,1,.79-.64,14.37,14.37,0,0,0,2.38,6.33,3,3,0,0,1,.65,1.34A.61.61,0,0,1,48,59a1.43,1.43,0,0,1-.57-.6,26.69,26.69,0,0,1-2.37-4.87A2.12,2.12,0,0,1,45,51.83Z"/>
        <path class="cls-2" d="M47.46,58.42A1.43,1.43,0,0,0,48,59a.61.61,0,0,0,.78-.16,3,3,0,0,0-.65-1.34,14.37,14.37,0,0,1-2.38-6.33,1.5,1.5,0,0,0-.79.64,2.12,2.12,0,0,0,.1,1.72A26.69,26.69,0,0,0,47.46,58.42Zm-2.35-6.54h0a1.21,1.21,0,0,1,.57-.52,14.15,14.15,0,0,0,2.38,6.21l0,.07a2.9,2.9,0,0,1,.58,1.2.29.29,0,0,1-.18.12.64.64,0,0,1-.41,0,1.3,1.3,0,0,1-.52-.55,26.21,26.21,0,0,1-2.36-4.86A2,2,0,0,1,45.11,51.88Z"/>
        <path class="cls-2" d="M10.72,50.37c.11-.46-.36-.95-.8-1.34a26.73,26.73,0,0,1-6.75-9c-.3-.66-.79-1.52-1.59-1.59A29.71,29.71,0,0,0,10.72,50.37Z"/>
        <path class="cls-2" d="M10.7,50.63l.13.1.07-.13c.32-.6-.26-1.23-.8-1.71h0a26.79,26.79,0,0,1-6.7-9c-.35-.77-.95-1.78-2-1.74H1.23l.05.13A30.06,30.06,0,0,0,10.7,50.63ZM3.29,40A26.5,26.5,0,0,0,10,49c.5.45,1.07,1,.77,1.59A29.9,29.9,0,0,1,1.4,38.31C2.37,38.26,2.93,39.21,3.29,40Z"/>
        <path class="cls-2" d="M10.78,50.55c.3-.55-.27-1.14-.77-1.59a26.5,26.5,0,0,1-6.72-9c-.36-.77-.92-1.72-1.89-1.67A29.9,29.9,0,0,0,10.78,50.55ZM3.17,40a26.73,26.73,0,0,0,6.75,9c.44.39.91.88.8,1.34A29.71,29.71,0,0,1,1.58,38.42C2.38,38.49,2.87,39.35,3.17,40Z"/>
        <path class="cls-2" d="M13.07,98.61H13l.08.28Z"/>
        <path class="cls-2" d="M27.49,84.86A.85.85,0,0,0,27,83.75l0,0c-.13-.06-.22.12-.2.24A1.26,1.26,0,0,0,27.49,84.86ZM26.91,84a.13.13,0,0,1,0-.09.79.79,0,0,1,.44.4.65.65,0,0,1,.06.43A1.13,1.13,0,0,1,26.91,84Z"/>
        <path class="cls-2" d="M16.28,100.24a1.73,1.73,0,0,0,1.64-1,2.48,2.48,0,0,0-1.09-.12l-.66,0-1.55.06A1.79,1.79,0,0,0,16.28,100.24Zm-.86-1,.76,0,.66,0a2.76,2.76,0,0,1,.92.07,1.62,1.62,0,0,1-1.48.88,1.71,1.71,0,0,1-1.49-.86Z"/>
        <path class="cls-2" d="M48.72,64.85a10.09,10.09,0,0,0,4.37-3.35,16.12,16.12,0,0,1,2.53-2.42.73.73,0,0,1,.66-.2c.19.07.26.3.3.49.43,2,.75,4.05-.54,5.52L51.92,69.6l-.27.31.42-.14a7.74,7.74,0,0,0,5-5,24.56,24.56,0,0,1,.69,4.33L59.44,86v0l0,0a.46.46,0,0,0,.47.09,1.07,1.07,0,0,0,.53-1L57,48.59l-.19.45a6.21,6.21,0,0,0-.33,2.7c0,.38,0,.77,0,1.15-.2,3.74-3.15,6.84-6.41,9.94a4.46,4.46,0,0,1-2.17,1.34,28.7,28.7,0,0,0,7.87-14.78l0,0a.66.66,0,0,0,.73-.1c.28-.27.16-.68,0-1a7.8,7.8,0,0,0-3-3.6l-.07-.05-.07,0a.55.55,0,0,0-.31.38c-.06.32.17.76.7,1.33,1.63,1.78.63,4.32-.27,6.07-6,11.65-15.86,21.4-25.4,30.82l-1-2-.13.16c-.74.94-1.48,2-1,3.11a1.76,1.76,0,0,1-.15,1.54,2.2,2.2,0,0,1-1,.9A2.72,2.72,0,0,0,24.39,84l-.18-.2,0,.25A30.43,30.43,0,0,1,19.89,95.4a7.1,7.1,0,0,1-1.38,1.71c-1.39,1.14-3.39,1.36-5.43,1.3v.1c2.05.07,4.1-.15,5.52-1.32A7.58,7.58,0,0,0,20,95.45a30.57,30.57,0,0,0,4.28-11.38,2.64,2.64,0,0,1,.28,3.23,2.09,2.09,0,0,0,1.55-2.68c-.43-1,.32-2.12,1-3,.32.64.64,1.29.95,1.93,9.72-9.6,19.56-19.36,25.56-31,1-2,1.85-4.45.25-6.18-.44-.48-1-1.24-.43-1.56a7.66,7.66,0,0,1,3,3.55c.11.29.21.64,0,.87s-.84.1-.75-.19a28.79,28.79,0,0,1-8.11,15.26,4.13,4.13,0,0,0,2.56-1.41c3-2.88,6.24-6.1,6.44-10,.07-1.28-.2-2.62.33-3.82L60.35,85.2c0,.46-.39,1.15-.78.82q-.84-8.42-1.69-16.82A22.39,22.39,0,0,0,57,64.34a7.45,7.45,0,0,1-5,5.33c1.39-1.57,2.75-3.15,4.12-4.72s1-3.69.56-5.6a.66.66,0,0,0-.38-.57.89.89,0,0,0-.79.22c-2.49,1.77-3.79,4.78-6.86,5.75-.64.21-1.41.34-1.78.84C38.54,76.7,26.44,85.77,20.12,97.84c-.77,1.48-2,3.25-3.87,3.1a4.59,4.59,0,0,1-1.52-.45A22.12,22.12,0,0,1,11,98.37c.65.06,1.32.11,2,.14l0-.11c-.65,0-1.31-.08-1.95-.14l-.41,0,.32.23a21.4,21.4,0,0,0,3.8,2.13,4.81,4.81,0,0,0,1.61.47c2,.13,3.21-1.74,3.95-3.17C24,90.63,30,84.34,35.85,78.26A142.91,142.91,0,0,0,47,65.64,2.52,2.52,0,0,1,48.33,65Z"/>
        <path class="cls-2" d="M13.08,98.51v-.1h-.17l0,.11Z"/>
        <path class="cls-2" d="M16.16,100.34h.13A1.86,1.86,0,0,0,18,99.24l0-.09-.09,0A2.75,2.75,0,0,0,16.83,99l-.67,0-.76,0-.79,0h-.16l.05.12A1.92,1.92,0,0,0,16.16,100.34Zm0-1.22.66,0a2.48,2.48,0,0,1,1.09.12,1.73,1.73,0,0,1-1.64,1,1.79,1.79,0,0,1-1.66-1.06Z"/>
        <path class="cls-2" d="M27.43,85l.12.06.05-.11a.8.8,0,0,0,0-.72,1.08,1.08,0,0,0-.57-.52l0,0a.23.23,0,0,0-.24,0,.33.33,0,0,0-.15.33A1.38,1.38,0,0,0,27.43,85ZM27,83.72l0,0a.85.85,0,0,1,.53,1.11,1.26,1.26,0,0,1-.7-.9C26.77,83.84,26.86,83.66,27,83.72Z"/>
        <path class="cls-2" d="M18.69,97.26a7.32,7.32,0,0,0,1.43-1.76h0a30.56,30.56,0,0,0,4.25-11.14,2.51,2.51,0,0,1,.09,2.89l-.16.23.31-.08a2.4,2.4,0,0,0,1.47-1.11,1.91,1.91,0,0,0,.16-1.7c-.38-.93.22-1.9.88-2.76l.94,1.9.13-.13c9.59-9.48,19.51-19.27,25.57-31,.92-1.81,2-4.42.24-6.29-.48-.51-.7-.91-.65-1.16a.41.41,0,0,1,.12-.2,7.66,7.66,0,0,1,2.87,3.45c.09.24.19.58,0,.78a.41.41,0,0,1-.43,0c-.07,0-.11-.07-.11-.11v0l-.24,0a.64.64,0,0,0,0,.07,28.42,28.42,0,0,1-8.07,15.15l-.18.18h.29A4.21,4.21,0,0,0,50.23,63c3.29-3.13,6.27-6.26,6.47-10.07,0-.38,0-.78,0-1.16a7.55,7.55,0,0,1,.13-2.07l3.4,35.53a.86.86,0,0,1-.39.79.17.17,0,0,1-.15,0L58,69.19v-.06a22.89,22.89,0,0,0-.84-4.81L57,63.85l-.09.47a7.27,7.27,0,0,1-4.51,5.09L56.24,65c1.35-1.54,1-3.65.58-5.68a.73.73,0,0,0-.45-.65,1,1,0,0,0-.92.22,16.59,16.59,0,0,0-2.56,2.46,9.75,9.75,0,0,1-4.26,3.28l-.39.11a2.65,2.65,0,0,0-1.45.77,145.45,145.45,0,0,1-11.14,12.6C29.83,84.22,23.82,90.51,20,97.79c-.71,1.37-1.87,3.17-3.71,3h0a4.85,4.85,0,0,1-1.48-.44,22,22,0,0,1-3.43-1.89c.54,0,1.08.08,1.62.1l0-.1c-.67,0-1.34-.08-2-.14a22.12,22.12,0,0,0,3.78,2.12,4.59,4.59,0,0,0,1.52.45c1.91.15,3.1-1.62,3.87-3.1C26.44,85.77,38.54,76.7,46.89,65.59c.37-.5,1.14-.63,1.78-.84,3.07-1,4.37-4,6.86-5.75a.89.89,0,0,1,.79-.22.66.66,0,0,1,.38.57c.42,1.91.79,4.06-.56,5.6S53.41,68.1,52,69.67a7.45,7.45,0,0,0,5-5.33,22.39,22.39,0,0,1,.84,4.86q.84,8.42,1.69,16.82c.39.33.82-.36.78-.82L56.9,49.08c-.53,1.2-.26,2.54-.33,3.82-.2,3.9-3.4,7.12-6.44,10a4.13,4.13,0,0,1-2.56,1.41,28.79,28.79,0,0,0,8.11-15.26c-.09.29.53.43.75.19s.13-.58,0-.87a7.66,7.66,0,0,0-3-3.55c-.59.32,0,1.08.43,1.56,1.6,1.73.76,4.2-.25,6.18-6,11.61-15.84,21.37-25.56,31-.31-.64-.63-1.29-.95-1.93-.7.9-1.45,2-1,3a2.09,2.09,0,0,1-1.55,2.68,2.64,2.64,0,0,0-.28-3.23A30.57,30.57,0,0,1,20,95.45a7.58,7.58,0,0,1-1.41,1.74c-1.42,1.17-3.47,1.39-5.52,1.32v.1C15.16,98.68,17.23,98.46,18.69,97.26Z"/>
        <path class="cls-2" d="M13,98.61h.1v-.1h-.14Z"/>
        <path class="cls-2" d="M59.66,100c.13-2.56.25-5.12.38-7.94A3.93,3.93,0,0,1,61.22,89l.21-.16v.78l.25.26a7.19,7.19,0,0,1,1.58,3.48c.34,1.38.67,2.69,1.79,3.54-.53-1.46-1.07-2.92-1.61-4.38l-.6-1.62.35.3a9.78,9.78,0,0,0,2.41,1.47l-3.82-4a8,8,0,0,0-1.92.34l-.09.71C59.34,93.09,58.9,96.62,59.66,100Z"/>
        <path class="cls-2" d="M61.42,89.73l-.07,5.68a7.65,7.65,0,0,0,.81,4.34,5.06,5.06,0,0,0,2.64,2,59.81,59.81,0,0,1-3.35-11.78ZM62,97.42a.68.68,0,0,1,.69.07,1,1,0,0,1,.28.39,12.78,12.78,0,0,1,.82,2.47l0,.08-.08,0a.66.66,0,0,1-.28.05l-.16,0a1.26,1.26,0,0,1-.66-.62,5.89,5.89,0,0,1-.69-2.34v-.07Z"/>
        <path class="cls-2" d="M110.91,68.83c-2.33-.49-4.63-1-6.77-1.46l0-.2,6.38.57c.47,0,1,.05,1.22-.27a.39.39,0,0,0,0-.39,2.14,2.14,0,0,0-1.21-.75c-1.85-.49-3.71-.93-5.52-1.3l-.61-.12.61-.09,2.81-.37,2.39-.32a9.87,9.87,0,0,0-5-.54l-.51.07.41-.26,1.21-.79.94-.6-.78,0-1.09,0h-.17l.05-.14c.36-.88,1.53-1,2.66-1.15a3.87,3.87,0,0,0,2.39-.77l-3,.18,0-.21a2.44,2.44,0,0,0,2-1.79,24.27,24.27,0,0,1-5.2,2.36,9.44,9.44,0,0,1-6.14-.19A12.24,12.24,0,0,0,93,59.69a12,12,0,0,1-5.32-.63,90,90,0,0,0-12.25-4.62c-.06,0-.07.05-.07.08s.25.45.55.56l5.74,2.12,5.54,2,.07,0v.07c0,.7-.74,1.22-1.51,1.32a5.24,5.24,0,0,1-1.93-.17l-.3-.06a22.78,22.78,0,0,0-6.68-.36,3,3,0,0,0-1.73.56c-1,1-2.67.63-4.26.3s-3.07-.63-4,.19l-.23.19v-.27a18.51,18.51,0,0,0-1.71-9.29A14,14,0,0,0,57.41,45a1.86,1.86,0,0,0-1.29,0,.31.31,0,0,0-.18.21,11.4,11.4,0,0,1,7.13,6,25.64,25.64,0,0,1,2.06,8.59c.12,1.13.25,2.26.39,3.4l.06.54a2.11,2.11,0,0,1-.7,2.25c-.32.19-.09.65.18,1.08a4.74,4.74,0,0,1,.55,1.77C67.37,79,69.2,89.54,67.28,99.89c-.27,1.49-.87,2.32-1.86,2.53a3.76,3.76,0,0,1-1.38,0,16.1,16.1,0,0,1-4.2-1v.26l-.09-.3-.36-.18c-1.32-.72-2.52-2.1-2.21-3.56a48,48,0,0,1,2.35-8l.25-.63a1.68,1.68,0,0,0-1.2,1.09l-.07.29c-.67,2.6-1.35,5.2-2,7.79l0,.09h-.12a2.57,2.57,0,0,1-2.19-2.48,5.91,5.91,0,0,1,1.15-3.05l1.54-2.58L58,88.21a11.73,11.73,0,0,0-4,6.39l0,.11-.12,0a1.84,1.84,0,0,1-1.32-1.06,2.68,2.68,0,0,1,.4-2.68,9.1,9.1,0,0,1,1.83-1.6,14.06,14.06,0,0,0,1.34-1.08,12.43,12.43,0,0,0-3.86,2.31l-.1.09L52,90.55a2.39,2.39,0,0,1,.27-3A9.66,9.66,0,0,1,54.05,86l.77-.59A9.93,9.93,0,0,0,58,81a89,89,0,0,1-6.3,6.66l-.23.22v-.3a68.68,68.68,0,0,0-2.69-21.14.34.34,0,0,0-.22,0,1.07,1.07,0,0,0-.34.92q1.17,10.17,2.32,20.38l.08.68c.31,2.82.7,6.34,3,8.94a19.48,19.48,0,0,0,3.5,2.84,23.48,23.48,0,0,1,3.09,2.41l2.86.32,2.64.31h.08l0,.06c.08.23.14.46.21.68a7.86,7.86,0,0,0,1.91-4.59A76,76,0,0,0,67.57,73a.4.4,0,0,1,.11-.37,1.67,1.67,0,0,1,1-.38l1.13-.11c1.9-.2,3.8-.4,5.71-.58l.63-.07-.55.26A13.46,13.46,0,0,0,69.69,77,71.49,71.49,0,0,1,80.8,68.51l.41-.25-.22.39a3.13,3.13,0,0,0-.6,1.76,1.32,1.32,0,0,0,1.24,1.23,22.17,22.17,0,0,0,10.24-2.26l.62-.31-1,1.07L89.64,72c3.17-1.85,6.52-3.59,10-5.17a13.74,13.74,0,0,1,11.65.44l.47.26-.55-.07-8.78-1a.43.43,0,0,0-.28.26.56.56,0,0,0,.06.56,2,2,0,0,0,1.06.61,19.08,19.08,0,0,0,3.24.57,10.25,10.25,0,0,1,5,1.44.27.27,0,0,0,.31,0,.38.38,0,0,0,.18-.48C111.82,69.06,111.34,68.93,110.91,68.83Zm-34-7.22c.09-.48.65-.76,1.66-.82a19.49,19.49,0,0,1,4.64.05,17.18,17.18,0,0,1,6.32,2.82.78.78,0,0,1,.37.37.34.34,0,0,1-.09.34.35.35,0,0,1-.26.09,63.47,63.47,0,0,1-6.59.78h-.14v-.11c0-.26-.29-.47-.55-.55a3.31,3.31,0,0,0-.89-.14h-.1a7.84,7.84,0,0,1-2.49-.66.8.8,0,0,1-.56-.49.42.42,0,0,1,.13-.39,1,1,0,0,1,.68-.24,3.07,3.07,0,0,1,.67.14,2.42,2.42,0,0,0,.36.1c.3.07.67,0,.78-.17s0-.45-.27-.57a2,2,0,0,0-.86-.19h-.09L77,61.73h-.14Zm-10,1.1a1.43,1.43,0,0,1,.91-1,2.92,2.92,0,0,1,1-.13,9,9,0,0,1,3.14.47c.44.14.85.31,1.23.47l2.94,1.22L79.05,65l.08,0,0,.71-.09,0a28.42,28.42,0,0,1-4.38.58c-.14,0-.29,0-.45,0a1.49,1.49,0,0,1-.41-.08,10.09,10.09,0,0,0-2.4-.46c-.31,0-.62-.06-.92-.11a4.82,4.82,0,0,1-3.1-1.31A1.82,1.82,0,0,1,66.93,62.71Zm.41,6.05h-.08l0-.07a.91.91,0,0,1,.37-1.19,2.59,2.59,0,0,1,1.4-.38.64.64,0,0,1,.52.16c.12.15.08.34-.12.55A3.46,3.46,0,0,1,67.34,68.76Zm1.56,2.45-.75-.07a.84.84,0,0,1-.53-.23.22.22,0,0,1-.05-.22c0-.09.11-.17.18-.22A29.53,29.53,0,0,1,71.43,68a6,6,0,0,1,1.44-.64,7.11,7.11,0,0,1,1.58-.19L78.28,67a8.34,8.34,0,0,0,2.54-.4c.22-.09.69-.28,1,0l.09.07-.07.07A17.06,17.06,0,0,1,68.9,71.21Zm21.29-2.43A11.62,11.62,0,0,1,86.39,70a48.67,48.67,0,0,1-5,.6h-.14v-.12a4.66,4.66,0,0,1,1.31-3.22,1.42,1.42,0,0,1,1.65-.49c.17.1.36-.1.59-.37l.06-.07a2.71,2.71,0,0,1,1.61-.7h.08L89.3,65c.58-.12,1.16-.27,1.38-.68l.08-.16.13.14a.54.54,0,0,1,0,.55,1.21,1.21,0,0,0-.05.18.59.59,0,0,0,.31.55.79.79,0,0,0,.69.1l.16-.07,0,.16A3.34,3.34,0,0,1,90.19,68.78Zm5.15-1.56a6.52,6.52,0,0,1-1.16,1,2.75,2.75,0,0,1-1.44.56h-.15l0-.13a1.9,1.9,0,0,1,.94-1.26,2.61,2.61,0,0,1,1.72-.33l.2,0ZM93,65.59a1.3,1.3,0,0,1,.86-.63l.14,0,0,.11a1.51,1.51,0,0,1-.88,1.54l-.12.06,0-.11A1,1,0,0,1,93,65.59Zm4.25,1a1.76,1.76,0,0,1-.89,1.18l-.08,0-.08-.06a.64.64,0,0,1-.24-.53.62.62,0,0,1,.29-.49,1.2,1.2,0,0,1,.89-.27h.13Zm4-2.11c0,.55-.68.92-1.86,1a23.51,23.51,0,0,0-5,1.12l-.15,0,0-.14a1.41,1.41,0,0,1,.8-1.39,4.76,4.76,0,0,1,1.72-.52,24.56,24.56,0,0,1,4.37-.28h.13Zm.07-3c-1.27.6-2.64,1.2-4.18,1.82a4.6,4.6,0,0,1-1.68.44h-.3A6.3,6.3,0,0,1,94,63.54c-1.74-.44-3.57-1-5.62-1.62a.56.56,0,0,1-.42-.55.77.77,0,0,1,.53-.74,1.93,1.93,0,0,1,1.54.29,1.46,1.46,0,0,1,1.12-.55,19.92,19.92,0,0,1,5.13,0,40.34,40.34,0,0,1,5,.92l.29.07Zm1.37,1.2-.13,0,0-.1c.15-.51.83-.67,1.33-.74H104a1.25,1.25,0,0,1,.69,0,.53.53,0,0,1,.32.3.31.31,0,0,1,0,.32h0a.65.65,0,0,1-.33.17,3.89,3.89,0,0,1-1.33.14A4.11,4.11,0,0,1,102.66,62.7Z"/>
        <path class="cls-2" d="M111,68.63l-5.12-1.1,4.69.42c.51,0,1.2,0,1.47-.38a.58.58,0,0,0,0-.57,2.25,2.25,0,0,0-1.37-.87c-1.65-.44-3.31-.84-4.94-1.18l2.21-.29,2.78-.37.37-.05-.34-.15a10.18,10.18,0,0,0-5-.77l.83-.54c.41-.26.82-.52,1.22-.79l.29-.18h-.36l-1.13,0-.91,0c.37-.64,1.36-.75,2.39-.87s2.23-.26,2.7-1.05l.1-.17-2.56.16a2.47,2.47,0,0,0,1.44-1.94v-.22l-.23.13a24.9,24.9,0,0,1-5.34,2.45,9.13,9.13,0,0,1-6-.18A12.38,12.38,0,0,0,93,59.48a11.79,11.79,0,0,1-5.19-.61,93,93,0,0,0-12.33-4.64h-.08a.32.32,0,0,0-.28.28c0,.28.36.64.7.76l5.74,2.13,5.47,2c0,.55-.67,1-1.3,1a5.23,5.23,0,0,1-1.84-.16l-.3-.06a22.71,22.71,0,0,0-6.77-.37A3.21,3.21,0,0,0,75,60.5c-.92.88-2.42.57-4,.24s-3-.62-4,.07a18.51,18.51,0,0,0-1.74-9.13,14.2,14.2,0,0,0-7.64-6.86,2.1,2.1,0,0,0-1.52,0,.5.5,0,0,0-.31.46v.08l.1,0a11.11,11.11,0,0,1,7.07,5.92,25.65,25.65,0,0,1,2,8.52c.12,1.13.25,2.27.39,3.41l.06.53c.09.75.1,1.66-.59,2.06s-.11,1,.1,1.35a4.85,4.85,0,0,1,.53,1.73C67.12,79,68.94,89.54,67,99.85c-.26,1.41-.81,2.18-1.68,2.36a3.67,3.67,0,0,1-1.28,0,15.69,15.69,0,0,1-4.23-1l0-.26c.14-2.83.28-5.65.42-8.77a4.11,4.11,0,0,1,.89-2.8l-.08,6.1A7.67,7.67,0,0,0,62,99.85,5.4,5.4,0,0,0,65,102l.23.06-.08-.19a59.88,59.88,0,0,1-3.35-11.54,7.91,7.91,0,0,1,1.23,3c.37,1.48.75,3,2.2,3.89l.3.18-.11-.3q-.86-2.35-1.72-4.71l-.31-.83A10.06,10.06,0,0,0,66,93l.46.17-4.52-4.74,0,0h-.06a8.07,8.07,0,0,0-1.94.32v0l0,0A2,2,0,0,0,58.33,90l-.08.29c-.66,2.57-1.32,5.14-2,7.69a2.36,2.36,0,0,1-1.86-2.25,5.82,5.82,0,0,1,1.12-3c.51-.86,1-1.72,1.55-2.58l1.47-2.46.3-.5-.5.37a12.12,12.12,0,0,0-4.6,6.8,1.57,1.57,0,0,1-1-.89,2.49,2.49,0,0,1,.38-2.49A9.27,9.27,0,0,1,54.9,89.5a9.39,9.39,0,0,0,1.69-1.44l.26-.29-.41.13a12.86,12.86,0,0,0-4.29,2.42,2.26,2.26,0,0,1,.36-2.62,9.24,9.24,0,0,1,1.71-1.51c.25-.19.52-.39.77-.6a10,10,0,0,0,3.4-5.1l.15-.53-.37.45a88.18,88.18,0,0,1-6.46,6.89,69.07,69.07,0,0,0-2.72-21l0,0-.06,0a.59.59,0,0,0-.52,0,1.2,1.2,0,0,0-.43,1.1l2.31,20.38.08.68c.31,2.85.71,6.41,3.07,9A19.65,19.65,0,0,0,57,100.41a22.85,22.85,0,0,1,3.08,2.4l0,0h0l2.91.33,2.56.3c.07.21.13.43.19.64l.09.34.16-.14c1.43-1.25,1.84-3.08,2.13-4.85a75.87,75.87,0,0,0-.36-26.54.24.24,0,0,1,.07-.21,1.37,1.37,0,0,1,.81-.3l1.13-.11,5.12-.53a13.29,13.29,0,0,0-5.82,5.74l-.3.6.51-.48a70.09,70.09,0,0,1,11.22-8.7,2.63,2.63,0,0,0-.41,1.48,1.58,1.58,0,0,0,1.42,1.43h.07a22.51,22.51,0,0,0,9.77-2l-.16.16-2.39,2.45-.62.62.79-.47A112.82,112.82,0,0,1,99.73,67a13.52,13.52,0,0,1,10.88.17l-8.22-.94h0a.72.72,0,0,0-.46.39.78.78,0,0,0,.08.74,2.2,2.2,0,0,0,1.21.71,18.76,18.76,0,0,0,3.28.58c1.83.21,3.57.41,4.89,1.39a.54.54,0,0,0,.62,0,.56.56,0,0,0,.26-.73C112,68.89,111.46,68.74,111,68.63Zm.45,1.32c-2.18-1.61-5.5-1.17-8.21-2a2.1,2.1,0,0,1-1.14-.66.62.62,0,0,1,.31-1c2.94.32,5.87.67,8.81,1a13.48,13.48,0,0,0-11.52-.44,113.63,113.63,0,0,0-10.73,5.62c1-1,2-2,3-3a22.46,22.46,0,0,1-10.3,2.28,1.48,1.48,0,0,1-1.37-1.33,3.36,3.36,0,0,1,.61-1.82,70.87,70.87,0,0,0-11.64,9,13.35,13.35,0,0,1,6.29-5.95c-2.29.22-4.56.46-6.84.7-.46,0-1.07.23-1,.63a76.18,76.18,0,0,1,.36,26.51c-.29,1.72-.68,3.55-2.1,4.79-.08-.29-.16-.58-.26-.87-1.84-.21-3.69-.43-5.54-.63-2-2-4.8-3.24-6.63-5.29-2.26-2.53-2.7-5.85-3.05-9q-1.2-10.53-2.39-21.06c0-.5.24-1.23.79-1a69.42,69.42,0,0,1,2.71,21.23,89.54,89.54,0,0,0,6.69-7.12,10.05,10.05,0,0,1-3.37,5,15.56,15.56,0,0,0-2.49,2.12,2.28,2.28,0,0,0-.28,2.85A12.69,12.69,0,0,1,56.49,88c-1,1.13-2.55,1.84-3.47,3s-.79,3.2.84,3.58a12,12,0,0,1,4.59-6.86c-1,1.68-2,3.36-3,5a6,6,0,0,0-1.14,3,2.46,2.46,0,0,0,2.09,2.37c.68-2.68,1.37-5.38,2.07-8.08.29-1.13,2-1.45,3.38-1.54,1.39,1.47,2.8,2.95,4.2,4.41a9.68,9.68,0,0,1-2.93-1.69c.73,2,1.46,4,2.17,5.93-2.58-1.58-1.66-5.18-3.69-7.25a59.48,59.48,0,0,0,3.42,12,5.3,5.3,0,0,1-3-2.08,7.51,7.51,0,0,1-.82-4.39c0-2.13.05-4.25.07-6.37a3.84,3.84,0,0,0-1.13,3.06c-.14,2.91-.28,5.84-.43,8.76-1-3.66-.56-7.48-.1-11.2a47.52,47.52,0,0,0-2.35,7.94c-.28,1.34.78,2.7,2.15,3.45a14.47,14.47,0,0,0,4.62,1.23,4,4,0,0,0,1.33,0c1.18-.25,1.59-1.44,1.77-2.45,1.89-10.21.11-20.7-1.67-31A4.86,4.86,0,0,0,65,67.1c-.25-.39-.57-1-.14-1.21.75-.43.74-1.37.65-2.15-.16-1.33-.32-2.64-.46-3.94a25.46,25.46,0,0,0-2-8.56,11.26,11.26,0,0,0-7.16-6c0-.57,1-.57,1.66-.34A14.11,14.11,0,0,1,65,51.72a18.66,18.66,0,0,1,1.72,9.33c2-1.73,6.35,1.35,8.29-.48a3,3,0,0,1,1.8-.59,22.72,22.72,0,0,1,6.73.36,6.46,6.46,0,0,0,2.18.23c.72-.1,1.43-.59,1.4-1.22L75.88,55.18c-.45-.17-.89-.74-.43-.85A90.87,90.87,0,0,1,87.76,59c3.14,1.43,7.24-.18,10.42,1.19a9.41,9.41,0,0,0,6,.18,25.36,25.36,0,0,0,5.39-2.47,2.48,2.48,0,0,1-2.16,2.1l3.2-.19c-.91,1.51-4.51.47-5.17,2.08l2.23,0-2.44,1.57a10.13,10.13,0,0,1,5.42.7l-5.6.75c1.86.38,3.71.82,5.53,1.3.72.19,1.62.73,1.27,1.29-.23.37-.85.37-1.35.32l-6.38-.57,6.77,1.46c.45.1,1,.25,1.16.61S111.77,70.22,111.42,70ZM59.67,101l-.16-.08c-1.25-.68-2.38-2-2.1-3.34a48.57,48.57,0,0,1,2-7c-.41,3.39-.72,6.86.23,10.22Z"/>
        <path class="cls-2" d="M63.64,100.37a13.31,13.31,0,0,0-.82-2.45.88.88,0,0,0-.24-.36.59.59,0,0,0-.55,0,6.15,6.15,0,0,0,.68,2.31C62.88,100.15,63.27,100.52,63.64,100.37Zm-1.15-2.73a.77.77,0,0,1,.22.31,14,14,0,0,1,.79,2.34.3.3,0,0,1-.16,0,1.08,1.08,0,0,1-.51-.5,6,6,0,0,1-.67-2.2A.45.45,0,0,1,62.49,97.64Z"/>
        <path class="cls-2" d="M70.45,65.6a16.88,16.88,0,0,1,3.35.57,1.94,1.94,0,0,0,.8.07A27.67,27.67,0,0,0,79,65.67l0-.57-5.89-2.45a11.81,11.81,0,0,0-1.22-.46,8.9,8.9,0,0,0-3.08-.47,2.67,2.67,0,0,0-.91.13,1.52,1.52,0,0,0-.47,2.48A4.87,4.87,0,0,0,70.45,65.6Zm-3.27-2.83a1.21,1.21,0,0,1,.77-.83,2.78,2.78,0,0,1,.86-.11,7.85,7.85,0,0,1,.84,0,8.66,8.66,0,0,1,2.2.43c.43.14.84.31,1.21.47L76,64l2.87,1.19,0,.42a26.85,26.85,0,0,1-4.26.55,1.86,1.86,0,0,1-.74,0,10.29,10.29,0,0,0-2.47-.48c-.3,0-.61-.06-.91-.11a4.6,4.6,0,0,1-2.93-1.22A1.6,1.6,0,0,1,67.18,62.77Z"/>
        <path class="cls-2" d="M80.87,66.64a8.45,8.45,0,0,1-2.58.42l-3.83.21a7.73,7.73,0,0,0-1.55.19,6.39,6.39,0,0,0-1.41.63,29.35,29.35,0,0,0-3.67,2.46.29.29,0,0,0-.14.17c0,.18.24.29.47.31a16.91,16.91,0,0,0,13.58-4.44C81.51,66.41,81.16,66.53,80.87,66.64Zm.68,0a16.9,16.9,0,0,1-13.38,4.31.64.64,0,0,1-.35-.13s0,0,0-.07.06-.07.1-.1a29.12,29.12,0,0,1,3.65-2.46A6.58,6.58,0,0,1,73,67.56a7,7,0,0,1,1.52-.18l3.86-.22a8.38,8.38,0,0,0,2.6-.42h0a1.35,1.35,0,0,1,.54-.14Z"/>
        <path class="cls-2" d="M96.26,67.7a1.62,1.62,0,0,0,.83-1.11,1.06,1.06,0,0,0-.79.25A.53.53,0,0,0,96.26,67.7Zm.13-.78a.9.9,0,0,1,.55-.22,1.59,1.59,0,0,1-.66.86.43.43,0,0,1-.1-.29.42.42,0,0,1,.2-.34Z"/>
        <path class="cls-2" d="M80.65,62.06c.28.16.46.46.31.7s-.58.31-.92.23a6,6,0,0,0-1-.23c-.35,0-.75.2-.68.5s.26.33.49.42a7.65,7.65,0,0,0,2.44.65,3.5,3.5,0,0,1,1,.15c.32.11.62.36.63.65a60.62,60.62,0,0,0,6.6-.78.23.23,0,0,0,.24-.3.8.8,0,0,0-.32-.31,17.09,17.09,0,0,0-6.27-2.8,20.22,20.22,0,0,0-4.6,0c-.65,0-1.45.2-1.56.74l2.7.23A2.17,2.17,0,0,1,80.65,62.06Zm-3.46-.52c.14-.31.62-.49,1.41-.54a19.42,19.42,0,0,1,4.57,0,16.79,16.79,0,0,1,6.22,2.78c.11.08.23.15.27.25a.14.14,0,0,1,0,.15.06.06,0,0,1-.06,0h0a63.92,63.92,0,0,1-6.47.77,1,1,0,0,0-.69-.64,2.82,2.82,0,0,0-.86-.14h-.2a7.43,7.43,0,0,1-2.4-.64c-.17-.06-.38-.18-.42-.34a.23.23,0,0,1,.07-.21.78.78,0,0,1,.48-.17,2.82,2.82,0,0,1,.6.13l.38.11c.39.08.89,0,1.06-.29a.63.63,0,0,0-.35-.83,2.24,2.24,0,0,0-1-.23h-.09Z"/>
        <path class="cls-2" d="M90.76,65.06c0-.22.19-.48,0-.66-.25.46-.89.62-1.46.74l-2.85.58a2.7,2.7,0,0,0-1.54.65c-.21.25-.5.65-.82.47-.5-.28-1.12.08-1.48.47a4.6,4.6,0,0,0-1.29,3.16,46.61,46.61,0,0,0,5-.61,11,11,0,0,0,3.76-1.17,3.24,3.24,0,0,0,1.81-2.88C91.4,66,90.67,65.56,90.76,65.06ZM90,68.6a10.94,10.94,0,0,1-3.71,1.16,47.86,47.86,0,0,1-4.85.59,4.49,4.49,0,0,1,1.26-3,1.41,1.41,0,0,1,1.05-.52.68.68,0,0,1,.27.07c.39.22.71-.16.92-.42l.06-.07a2.64,2.64,0,0,1,1.47-.61l.09,0,2.76-.55h0a2.88,2.88,0,0,0,1.36-.57s0,.1,0,.15a1.6,1.6,0,0,0,0,.21.74.74,0,0,0,.4.74,1.11,1.11,0,0,0,.78.18A3.25,3.25,0,0,1,90,68.6Z"/>
        <path class="cls-2" d="M69.41,67.35a.53.53,0,0,0-.41-.11,2.52,2.52,0,0,0-1.33.35.82.82,0,0,0-.34,1.07,3.32,3.32,0,0,0,2-.89C69.4,67.65,69.52,67.48,69.41,67.35Zm-.21.35a3.18,3.18,0,0,1-1.8.84.77.77,0,0,1,.35-.87A2.37,2.37,0,0,1,69,67.35h.11a.25.25,0,0,1,.19.06h0C69.37,67.48,69.29,67.61,69.2,67.7Z"/>
        <path class="cls-2" d="M91.15,60.48c-.45.07-1,.22-1.07.62a1.86,1.86,0,0,0-1.56-.37c-.51.17-.65.91-.12,1.1,1.85.58,3.72,1.13,5.61,1.61a5.29,5.29,0,0,0,1.41.21,4.62,4.62,0,0,0,1.64-.42c1.41-.58,2.8-1.18,4.17-1.83a40,40,0,0,0-5-.91A18.94,18.94,0,0,0,91.15,60.48ZM97,63.13a4.64,4.64,0,0,1-1.59.42,5.48,5.48,0,0,1-1.36-.21c-1.73-.44-3.57-1-5.6-1.61a.37.37,0,0,1-.26-.36.56.56,0,0,1,.38-.54,1,1,0,0,1,.41,0,2.26,2.26,0,0,1,1,.4l.16.11,0-.17c.07-.33.57-.48,1-.54a19.76,19.76,0,0,1,5,0,41.33,41.33,0,0,1,4.68.84C99.71,62,98.43,62.55,97,63.13Z"/>
        <path class="cls-2" d="M93.86,65.07a1,1,0,0,0-.81,1.42A1.38,1.38,0,0,0,93.86,65.07Zm-.67.61a1.12,1.12,0,0,1,.56-.47,1.3,1.3,0,0,1-.64,1.12A.83.83,0,0,1,93.19,65.68Z"/>
        <path class="cls-2" d="M92.73,68.66a2.54,2.54,0,0,0,1.37-.53,6.77,6.77,0,0,0,1.15-1A2.21,2.21,0,0,0,92.73,68.66ZM94,68.05a2.78,2.78,0,0,1-1.13.49,1.77,1.77,0,0,1,.81-1A2.33,2.33,0,0,1,95,67.23,6.54,6.54,0,0,1,94,68.05Z"/>
        <path class="cls-2" d="M81.91,66.59l-.09-.07c-.31-.25-.78-.06-1,0a8.34,8.34,0,0,1-2.54.4l-3.83.22a7.11,7.11,0,0,0-1.58.19,6,6,0,0,0-1.44.64,29.53,29.53,0,0,0-3.68,2.47c-.07,0-.17.13-.18.22a.22.22,0,0,0,.05.22.84.84,0,0,0,.53.23l.75.07a17.06,17.06,0,0,0,12.94-4.55ZM68.16,71c-.23,0-.52-.13-.47-.31a.29.29,0,0,1,.14-.17,29.35,29.35,0,0,1,3.67-2.46,6.39,6.39,0,0,1,1.41-.63,7.73,7.73,0,0,1,1.55-.19l3.83-.21a8.45,8.45,0,0,0,2.58-.42c.29-.11.64-.23.87,0A16.91,16.91,0,0,1,68.16,71Z"/>
        <path class="cls-2" d="M70.43,65.7c.3,0,.61.08.92.11a10.09,10.09,0,0,1,2.4.46,1.49,1.49,0,0,0,.41.08c.16,0,.31,0,.45,0A28.42,28.42,0,0,0,79,65.77l.09,0,0-.71-.08,0-2.94-1.22-2.94-1.22c-.38-.16-.79-.33-1.23-.47a9,9,0,0,0-3.14-.47,2.92,2.92,0,0,0-1,.13,1.43,1.43,0,0,0-.91,1,1.82,1.82,0,0,0,.4,1.68A4.82,4.82,0,0,0,70.43,65.7ZM67.9,61.85a2.67,2.67,0,0,1,.91-.13,8.9,8.9,0,0,1,3.08.47,11.81,11.81,0,0,1,1.22.46L79,65.1l0,.57a27.67,27.67,0,0,1-4.36.57,1.94,1.94,0,0,1-.8-.07,16.88,16.88,0,0,0-3.35-.57,4.87,4.87,0,0,1-3-1.27A1.52,1.52,0,0,1,67.9,61.85Z"/>
        <path class="cls-2" d="M62.6,99.86a1.26,1.26,0,0,0,.66.62l.16,0a.66.66,0,0,0,.28-.05l.08,0,0-.08a12.78,12.78,0,0,0-.82-2.47,1,1,0,0,0-.28-.39.68.68,0,0,0-.69-.07l-.07,0v.07A5.89,5.89,0,0,0,62.6,99.86Zm0-2.3a.88.88,0,0,1,.24.36,13.31,13.31,0,0,1,.82,2.45c-.37.15-.76-.22-.93-.55A6.15,6.15,0,0,1,62,97.51.59.59,0,0,1,62.58,97.56Z"/>
      </g>
    </g>
  </g>
</svg>
