<svg xmlns="http://www.w3.org/2000/svg" viewBox="0 0 100.27 104.65">
  <defs>
    <style>
      .cls-1 {
        opacity: 0.5;
      }

      .cls-2 {
        fill: none;
      }

      .cls-3 {
        fill: #fff;
      }
    </style>
  </defs>
  <g id="Layer_2" data-name="Layer 2">
    <g id="Layer_1-2" data-name="Layer 1">
      <g class="cls-1">
        <path class="cls-2" d="M6.06,8.44Q7.49,12,8.93,15.58h0a.07.07,0,0,0,.06,0,.65.65,0,0,0,.16-.5c0-.47,0-.94-.07-1.4s0-1-.07-1.47a3.67,3.67,0,0,0-.19-1.29,4.4,4.4,0,0,0-.58-1l-.05-.07A31.22,31.22,0,0,1,4.24,3a1.56,1.56,0,0,0,.11,1.24C4.91,5.61,5.48,7,6.06,8.44Z"/>
        <path class="cls-2" d="M61.09,82.39c.07,0,.22,0,.24-.17S61.18,82,61.1,82c-2-1.25-3.76-2.27-5.75-2.29,0,.19.27.36.46.45.4.17.82.32,1.24.46a11.2,11.2,0,0,1,2.57,1.16l.17.12A1.94,1.94,0,0,0,61.09,82.39Z"/>
        <path class="cls-2" d="M58.16,86.72a.64.64,0,0,0-.4-.2h0a.15.15,0,0,0-.09.06c0,.07,0,.18.08.29a6.91,6.91,0,0,0,1.16,1.44h0c.26.23.63.44.89.33A15.72,15.72,0,0,0,58.16,86.72Z"/>
        <path class="cls-2" d="M42.64,57.93a1.23,1.23,0,0,0,.49.54.45.45,0,0,0,.36,0,.27.27,0,0,0,.16-.14,3.22,3.22,0,0,0-.58-1.21l0-.07a16.36,16.36,0,0,1-2.45-6.3,1.23,1.23,0,0,0-.48.58h0a2.47,2.47,0,0,0,.19,1.7A29.72,29.72,0,0,0,42.64,57.93Z"/>
        <path class="cls-2" d="M12.41,20.47a2.93,2.93,0,0,0,.4-1.48.53.53,0,0,0-.07-.31.35.35,0,0,0-.1-.08A1.91,1.91,0,0,0,12.41,20.47Z"/>
        <path class="cls-2" d="M15,50.67a12.76,12.76,0,0,0-.54-1.33c-.13-.29-.27-.58-.38-.88h0a16.21,16.21,0,0,1-.7-3l0-.2a21.94,21.94,0,0,0-1.21-4.68,4.31,4.31,0,0,0-1.55-2.08,2.18,2.18,0,0,0-1.15-.34,1.61,1.61,0,0,0-1.19.48A2.94,2.94,0,0,0,8,41.24a23.45,23.45,0,0,0,2.31,6.66A12.71,12.71,0,0,0,15,52.84,3.15,3.15,0,0,0,15,50.67Z"/>
        <path class="cls-2" d="M17.11,42.44h0l-1.88-3.6-1.8-3.47,0,0a13,13,0,0,0-.23-1.85,4.43,4.43,0,0,1-2.27,1.17l-.19,0,.07-.19c.17-.4.36-.8.55-1.18a13.1,13.1,0,0,0,.74-1.72c.94-2.86-.11-5.93-1.36-9.08-.38-1-.76-1.88-1.14-2.82-.22-.54-.5-1.11-1-1.2a1.35,1.35,0,0,0-.86.21,5.89,5.89,0,0,0-2.79,5.47,14.26,14.26,0,0,0,2,6.16A46.7,46.7,0,0,0,16.85,43l.11.11-.13.07a2.22,2.22,0,0,1-2.26-.49,24.53,24.53,0,0,0,1.23,6.59l.72-2.3c.27-.88.55-1.75.82-2.63a2.1,2.1,0,0,0,.16-.72A2.58,2.58,0,0,0,17.11,42.44Z"/>
        <path class="cls-2" d="M32.27,76.92l.16,0a14.77,14.77,0,0,0-1.37-3.71,1.41,1.41,0,0,0,0,.74,11.45,11.45,0,0,0,.75,2.57A1.52,1.52,0,0,1,32.27,76.92Z"/>
        <path class="cls-2" d="M48.47,79.38a.19.19,0,0,0,.08.11,9.59,9.59,0,0,0,1.52-1.77c1.22-1.69,2.39-3.49,2.22-5.42h0a.48.48,0,0,0-.36.23,1.64,1.64,0,0,0-.12.56v.08a8.75,8.75,0,0,1-2,4c-.38.51-.77,1-1.1,1.57A.94.94,0,0,0,48.47,79.38Z"/>
        <path class="cls-2" d="M57.93,67.15a34.74,34.74,0,0,0-3.43-1.67.9.9,0,0,0-.33-.09.23.23,0,0,0-.16.06h0a.12.12,0,0,0,0,.12.74.74,0,0,0,.37.41,22.65,22.65,0,0,0,4,1.76.17.17,0,0,0,0-.1A.82.82,0,0,0,57.93,67.15Z"/>
        <path class="cls-2" d="M49.93,69.65a2.16,2.16,0,0,0,.54-1.39c-.28,0-.52.3-.73.59-.36.53-.73,1.05-1.1,1.58L47.57,72c-.18.26-.35.56-.26.81.32.06.63-.27.83-.58Z"/>
        <path class="cls-2" d="M21.22,32.58a2.27,2.27,0,0,0-.17-1,.74.74,0,0,0-.75-.43,9.29,9.29,0,0,0-4.07,2.07,2.18,2.18,0,0,0-.84,1.31,2.51,2.51,0,0,0,.15.88,47.94,47.94,0,0,0,2.36,6.31.68.68,0,0,0,.31.4c.29.12.61-.29.76-.55A19.13,19.13,0,0,0,21.22,32.58Z"/>
        <path class="cls-2" d="M14.69,28.07a7.43,7.43,0,0,0,.22,4.07l1.77-3c.63-1.06,1.26-2.12,1.88-3.18l.06-.1A38.38,38.38,0,0,0,22.5,18h0c.62-2,.63-3.52,0-4.71a3.12,3.12,0,0,0-2.15-1.56,2.06,2.06,0,0,0-1.73.41,9.67,9.67,0,0,1-1.09,5l-.46,1.17a38.71,38.71,0,0,0-1.62,7.09v0a1.42,1.42,0,0,0,0,.87,1.58,1.58,0,0,0,.65.57c.33.2.68.41.75.8v0a.41.41,0,0,1-.25.31,1,1,0,0,1-.82-.11l-.06,0a1.28,1.28,0,0,0-.63-.31.42.42,0,0,0-.16,0A.73.73,0,0,0,14.69,28.07Z"/>
        <path class="cls-2" d="M52.64,60.67l.91.38,1.73.73a.87.87,0,0,0,.64.1.28.28,0,0,0,.16-.25c0-.07,0-.11-.06-.13l-1.25-.56-1.34-.61c-.27-.12-.54-.21-.71-.08a.3.3,0,0,0-.12.21A.36.36,0,0,0,52.64,60.67Z"/>
        <path class="cls-2" d="M9.73,52.14c.07-.47-.37-1-.78-1.33a27.48,27.48,0,0,1-6.48-8.92c-.3-.67-.78-1.54-1.49-1.55A30.06,30.06,0,0,0,9.73,52.14Z"/>
        <path class="cls-2" d="M55.66,56.36,52.92,55c-.51-.24-.87-.28-1.1-.12.07.26.35.42.61.56l1.86,1,1.2.62c.18.09.49.22.64,0a.21.21,0,0,0,.06-.18A.94.94,0,0,0,55.66,56.36Z"/>
        <path class="cls-2" d="M16.32,85A7.64,7.64,0,0,0,17.73,85a2.18,2.18,0,0,0,.88-.29A3.62,3.62,0,0,0,16.32,85Z"/>
        <path class="cls-2" d="M15.22,88.68a.33.33,0,0,0,.18.2h0A8.15,8.15,0,0,1,18,86.19h0l.15-.07a2.17,2.17,0,0,0-.79-.15,2.16,2.16,0,0,0-2.13,2.7Z"/>
        <path class="cls-2" d="M14.41,96.47c0-5,1.77-6.43,3.25-6.76l.47-.1-.38.29a6.75,6.75,0,0,0-2.12,3,8.46,8.46,0,0,1,2.75-2.44l.67-.38-.54.55a12.4,12.4,0,0,0-3.23,5.82,25.76,25.76,0,0,1,3.56-5.22l.5-.57-.41.9q-1.44,3.12-2.86,6.25A1.56,1.56,0,0,0,16,99.09a.36.36,0,0,0,.23.15,50.83,50.83,0,0,1,5-10.49l.5-.81-.3.9c-1.25,3.69-2.49,7.36-3.75,11A13.1,13.1,0,0,0,20,94.66,61,61,0,0,1,24,83c1.13-2.67,2.27-5.35,3.41-8l.09-.22.11.21c.7,1.45,1.43,2.88,2.19,4.24a4.7,4.7,0,0,0-.71-2.77,6.41,6.41,0,0,1-.81-2.54,5.66,5.66,0,0,1,.55-2.18l0,0A130.16,130.16,0,0,1,42.42,46.55c1.35-2,3-4,5.39-4.22a.65.65,0,0,0,.46-.25,2.44,2.44,0,0,0,.27-1.68A2.28,2.28,0,0,1,49,38.61a.76.76,0,0,1,.68-.23,1.89,1.89,0,0,0,1.51-.52,2.25,2.25,0,0,0,.76-1.69,3,3,0,0,0-2-2.62,3.6,3.6,0,0,1-1,2.27,1.66,1.66,0,0,1-1.56.24,1,1,0,0,1-.7-.79,1.94,1.94,0,0,0-2-1.57.7.7,0,0,0-.35.43,1.34,1.34,0,0,0,.07,1A4,4,0,0,0,45,36c.15.17.31.33.45.51a3.74,3.74,0,0,1-2.15,5.63,16.81,16.81,0,0,0-9.09,5.64,50,50,0,0,0-5.94,9.16l0,0a.46.46,0,0,1-.47,0,1,1,0,0,1-.51-.72c0-.11,0-.22,0-.33a1.16,1.16,0,0,0-.21-.78c-.41-.41-1.19.1-1.42.27L24,56.63,22.2,57.89,22,58l.66-9.55c.09-1.19-.16-2.52-1.14-2.65a.6.6,0,0,1-.5-.36,1.94,1.94,0,0,1,.36-1.63l2.68-3.75,2.34-3.25a26,26,0,0,0-5.91,6.44l-.2-.11a30.29,30.29,0,0,0,2.09-7.77,7.29,7.29,0,0,0-.25-3.69,2.8,2.8,0,0,0-2.88-1.79L19,30l.15-.22c3.11-4.61,6.06-9.53,5.14-14.62-.41-2.29-2.17-4.53-4.29-4.18-1.95.35-2.86,2.6-3.44,4.52l-2.73,9.11-.12.4-.09-.4C12.27,18.9,15.08,13.29,18.32,8a29.35,29.35,0,0,0-4.08,6.21l-.44.91.24-1c.4-1.65.79-3.29,1.19-4.94l.84-3.5L14.59,9.33l.11-.86c.29-2.1.56-4.21.83-6.31V2a22.49,22.49,0,0,0-1.46,7.69c-.23,3-.45,6.12-2,8.72l-.24.39,0-.46A110.37,110.37,0,0,1,13.65,4.9a60.71,60.71,0,0,0-2.32,10.84l-.12.83-.1-.83c-.28-2.47-.56-5-.83-7.41a2,2,0,0,0-1.2,1.31L9,9.89l-.13-.23c-1.74-3-3.64-6-5.66-8.95A25,25,0,0,0,5.4,8.91C6,10.51,6.65,12.1,7.27,13.7c.38,1,.76,2,1.15,2.92l.05.13-.14,0a6.3,6.3,0,0,0-4.9,5.7c-.26,2.32.42,4.85,2.06,7.76.54,1,1.15,1.91,1.74,2.82a39.12,39.12,0,0,1,2.5,4.25l.22.46-.39-.32a1.31,1.31,0,0,0-1.12-.26,2.07,2.07,0,0,0-1.36,1,4.52,4.52,0,0,0-.25,3,21.83,21.83,0,0,0,10.3,15c-1.35-1.72-.8-4.48-.22-6.49a1.34,1.34,0,0,1,.72-.89.45.45,0,0,1,.44.1l.09.07-.08.09a.61.61,0,0,0-.12.56.77.77,0,0,0,.22.37,3.4,3.4,0,0,1,3.34-3.12h.12L20.55,60.14l-.12,0-9-2.29a4.49,4.49,0,0,1-2.13-1,1.88,1.88,0,0,1-.55-1.3,1.25,1.25,0,0,1,.36-.91c.67-.66,1.65-.33,2.61,0s1.72.57,2.22.06a5.48,5.48,0,0,0-2.12-.47h-.27l.19-.19A1.08,1.08,0,0,0,12,53c-.9.63-2.2.43-4-.58L6,51.19,1.2,48.45,3.45,50.3,6.69,53a.68.68,0,0,1,.56-.1,1.1,1.1,0,0,1,.76.69,2.82,2.82,0,0,1,.05,1.08c0,.17,0,.34,0,.51,0,2,2,3.49,4,4a21.28,21.28,0,0,0,2.37.39,14,14,0,0,1,3.76.85,7.13,7.13,0,0,1,4.16,6.13,1,1,0,0,1-.15.66,1,1,0,0,1-.73.3A9.93,9.93,0,0,1,16,66.55a2.43,2.43,0,0,1-1-.72,1.9,1.9,0,0,1,.62-2.5,5,5,0,0,1,2.51-.77.74.74,0,0,0-.22-.44,1.39,1.39,0,0,0-1-.33A4.41,4.41,0,0,0,16,62a4.32,4.32,0,0,1-.94.24A2.41,2.41,0,0,1,13,61.35c.08.36.15.73.23,1.1.14.73.29,1.47.44,2.19A4.83,4.83,0,0,0,16.84,68a14.76,14.76,0,0,0,4.82.58h.19l-.09.16A80.86,80.86,0,0,0,15.07,84c-.43,1.37-1.1,3-2.45,3.26a3.24,3.24,0,0,0,1.79.51h.15l0,.14A25,25,0,0,0,14.4,101C14.4,99.47,14.4,98,14.41,96.47ZM14.48,28a.93.93,0,0,1,.41-.66c.35-.18.72.08,1,.29l.06,0a.74.74,0,0,0,.62.09.2.2,0,0,0,.11-.13c-.07-.28-.35-.45-.65-.63a1.87,1.87,0,0,1-.73-.66,1.71,1.71,0,0,1-.06-1v0a38.46,38.46,0,0,1,1.64-7.14c.14-.39.3-.78.46-1.17a9.41,9.41,0,0,0,1.06-4.9v-.06l.05,0a2.22,2.22,0,0,1,1.95-.5,3.3,3.3,0,0,1,2.31,1.67c.64,1.24.64,2.83,0,4.87A38.34,38.34,0,0,1,18.81,26l-.06.1c-.62,1.06-1.25,2.12-1.88,3.18L15,32.45l-.12.2-.08-.22A7.56,7.56,0,0,1,14.48,28Zm-2-9.6,0-.05h.05a.43.43,0,0,1,.32.17A.75.75,0,0,1,13,19a3.16,3.16,0,0,1-.54,1.77l-.1.15-.09-.16A2.13,2.13,0,0,1,12.5,18.42ZM5.85,8.52,4.14,4.28c-.19-.51-.39-1.21.05-1.62l.12-.11.06.15a31.5,31.5,0,0,0,4,7h0l.05.07a4,4,0,0,1,.6,1,3.87,3.87,0,0,1,.21,1.36c0,.49,0,1,.08,1.47l.06,1.4a.87.87,0,0,1-.25.69.35.35,0,0,1-.19.06.25.25,0,0,1-.12,0l-.05,0,0,0Q7.3,12.12,5.85,8.52ZM15.18,53l0,.11-.1-.06A12.75,12.75,0,0,1,10.13,48a23.44,23.44,0,0,1-2.34-6.72,3.1,3.1,0,0,1,.34-2.74,2.12,2.12,0,0,1,2.62-.18,4.63,4.63,0,0,1,1.64,2.19,22.47,22.47,0,0,1,1.22,4.72l0,.2a15.55,15.55,0,0,0,.68,2.91c.12.29.25.58.38.87a11.7,11.7,0,0,1,.55,1.36A3.24,3.24,0,0,1,15.18,53Zm2.37-8.65L16.73,47c-.28.88-.55,1.76-.82,2.63l-.1.32-.11-.32a25.08,25.08,0,0,1-1.36-7.2v-.23l.18.14c.57.41,1.38.92,2.07.67A47,47,0,0,1,6.75,30.44a14.32,14.32,0,0,1-2-6.26A6.14,6.14,0,0,1,7.61,18.5a1.53,1.53,0,0,1,1-.22c.61.1.94.73,1.17,1.33q.57,1.39,1.14,2.82c1.27,3.19,2.33,6.3,1.37,9.23a14.39,14.39,0,0,1-.75,1.75c-.16.31-.32.64-.46,1a4.31,4.31,0,0,0,2.09-1.21l.14-.16,0,.21a12.46,12.46,0,0,1,.28,2.07l1.8,3.45,1.87,3.59a2.77,2.77,0,0,1,.42,1.27A2.47,2.47,0,0,1,17.55,44.39Zm.57-2.08a.86.86,0,0,1-.42-.51,47.86,47.86,0,0,1-2.37-6.34,2.62,2.62,0,0,1-.16-1,2.39,2.39,0,0,1,.91-1.45,9.59,9.59,0,0,1,4.17-2.13h0a1,1,0,0,1,1,.55,2.48,2.48,0,0,1,.19,1.11,19.36,19.36,0,0,1-2.28,9.09c-.18.34-.49.68-.83.68A.52.52,0,0,1,18.12,42.31Zm1.86,3a1.79,1.79,0,0,1-1.33,1.55l-.16,0,0-.15c0-.36.08-.72.13-1.07h.07l-.05,0a.91.91,0,0,1,1.27-.46l.06,0Zm13.53,5.41A9.67,9.67,0,0,1,36.91,46,23.5,23.5,0,0,1,42,43.18,2,2,0,0,1,43.31,43l.08,0v.08a2.64,2.64,0,0,1-.65,1.47L41.6,46.08a2.81,2.81,0,0,1-1.3,1.15,14.05,14.05,0,0,0-3.44,1.88c-.51.34-1,.69-1.58,1a13.57,13.57,0,0,1-1.62.78l-.21.07ZM22.29,64.07a.7.7,0,0,1,.46-.44.46.46,0,0,1,.44.08h0a.75.75,0,0,1,.14.17.64.64,0,0,0,.1.13.13.13,0,0,0,.11,0h0a2.4,2.4,0,0,0-.63-1.26l-.11-.15A3.85,3.85,0,0,1,22,60.77a2.19,2.19,0,0,1,.65-1.93l1.93-1.68.07-.06a2.05,2.05,0,0,1,1.86-.73l.1,0,0,.1a3.73,3.73,0,0,0,0,1.41,4.43,4.43,0,0,1,.07,1.31A4.48,4.48,0,0,1,26,60.83l0,0c-.63,1.08-1.25,2.14-1.87,3.22a.62.62,0,0,1-.45.37,2.72,2.72,0,0,1-.49,1.4l-.15.21L23,65.81a1.74,1.74,0,0,0-.33-.65L22.54,65A1.25,1.25,0,0,1,22.29,64.07Zm-6.44,22.2A2.45,2.45,0,0,1,18.4,86l.15-.08c.85-.41,1.56-.77,2.23-1.12a2.51,2.51,0,0,0-1.75,0l-.15.06v-.11a2.07,2.07,0,0,1-1.11.44,8.67,8.67,0,0,1-1.82,0l-.3,0L15.9,85a3.82,3.82,0,0,1,3-.51,1,1,0,0,0-.56-.66l-.38-.15.4-.06.74-.11.59-.08c-.29-.5-1.19-.38-1.66-.23-.68.22-1.63.43-2.07-.22l0-.05,0,0c3-7,6.33-14,9.91-20.64.35-.65,1-1.29,1.6-1a.78.78,0,0,1,.39.46A1.68,1.68,0,0,1,27.63,63a2.4,2.4,0,0,1-.11.23,2,2,0,0,0-.37,1.17c1.23-.83,2.48-1.66,3.71-2.47.41-.27.93-.68.93-1.17a2.83,2.83,0,0,0-1.86.91.93.93,0,0,1-.85.28,1.49,1.49,0,0,1-1-.74A3.47,3.47,0,0,1,28,59.08v0L28,59a33.66,33.66,0,0,0,7.36-4.77.41.41,0,0,0-.22-.19,1.62,1.62,0,0,0-1.18.31L31.54,56l-2.41,1.64-.23.16.06-.27a8.3,8.3,0,0,1,4.41-5.71l4.09-2A1.66,1.66,0,0,1,39,49.66l.09.06-.05.09A252.26,252.26,0,0,0,23.58,82.33a6.74,6.74,0,0,1-1,1.62,9.12,9.12,0,0,0-.79,1.16,6.21,6.21,0,0,0-.31.7h0c-.1.26-.18.52-.27.78a10.65,10.65,0,0,1-.42,1.15,3,3,0,0,1-2.07,1.9h-.15a.94.94,0,0,1-.65-.24.49.49,0,0,1-.16-.42.89.89,0,0,1,.26-.43A22.71,22.71,0,0,1,20.84,86a20.28,20.28,0,0,0-2.23.12h-.05l-.13.07A7.88,7.88,0,0,0,15.59,89a.22.22,0,0,1-.23.11.5.5,0,0,1-.35-.37A2.46,2.46,0,0,1,15.85,86.27Z"/>
        <path class="cls-2" d="M23.39,71.49a1.07,1.07,0,0,0,.69-.29,9.92,9.92,0,0,0,2.67-2.53.5.5,0,0,0-.27-.08,1.57,1.57,0,0,0-.91.45h0l-2.4,2a.14.14,0,0,0,0,.17A.36.36,0,0,0,23.39,71.49Z"/>
        <path class="cls-2" d="M20.59,87.65c.16-.37.29-.76.41-1.13.05-.16.11-.31.16-.47a22.06,22.06,0,0,0-3,2.65A.77.77,0,0,0,18,89a.26.26,0,0,0,.09.22.82.82,0,0,0,.62.17C19.78,89.27,20.38,88.13,20.59,87.65Z"/>
        <path class="cls-2" d="M18.79,102.57a2,2,0,0,0-.81,0l-.58.08-.68.08-.55.07a1.41,1.41,0,0,0,2.62-.22Z"/>
        <path class="cls-2" d="M21.17,85.8h.08A5.58,5.58,0,0,1,21.6,85a8.25,8.25,0,0,1,.8-1.19,6.36,6.36,0,0,0,1-1.57A253.1,253.1,0,0,1,38.8,49.8a1.66,1.66,0,0,0-1.24.23l-4.1,2a8.12,8.12,0,0,0-4.23,5.3l2.18-1.49,2.46-1.68a1.77,1.77,0,0,1,1.38-.33.56.56,0,0,1,.38.38l0,.07,0,.05a33.66,33.66,0,0,1-7.41,4.84,3.11,3.11,0,0,0,0,1.91,1.22,1.22,0,0,0,.87.62.75.75,0,0,0,.66-.2,3,3,0,0,1,2.12-1H32l0,.1c.08.66-.54,1.16-1,1.48l-3.85,2.57-.12.08,0-.14a1.94,1.94,0,0,1,.34-1.5l.12-.22a1.53,1.53,0,0,0,.15-1.06.52.52,0,0,0-.28-.33c-.48-.24-1,.33-1.31.89C22.44,69,19.11,76,16.13,82.94c.37.47,1.19.27,1.79.08.82-.26,1.76-.21,2,.49l0,.12-.13,0-.73.11-.43.06a1.2,1.2,0,0,1,.43.74,2.62,2.62,0,0,1,.83-.13,2.58,2.58,0,0,1,1.17.27l.2.1-.19.1-1.91,1A17.16,17.16,0,0,1,21.17,85.8ZM23,70.9c.79-.68,1.6-1.36,2.4-2,.48-.42,1.14-.72,1.54-.3l.06.06,0,.08a10,10,0,0,1-2.76,2.66,1.39,1.39,0,0,1-.78.34h-.09a.55.55,0,0,1-.44-.4A.36.36,0,0,1,23,70.9Zm-1.86,4.36-.05-.08,1.36-1.28a1.52,1.52,0,0,1,1-.51h0a.34.34,0,0,1,.2.22.79.79,0,0,1-.2.63,3.51,3.51,0,0,1-2.06,1.53h-.11v-.11A1,1,0,0,0,21.17,75.26Z"/>
        <path class="cls-2" d="M43.61,64.54l.33-.15c1.59-.73,2.55-2.18,3.57-3.71A16,16,0,0,1,49.61,58c.29-.29.56-.39.8-.3s.38.39.44.64c.51,2.09.92,4.26-.18,5.95s-2.07,3.23-3.12,4.84a7.52,7.52,0,0,0,3.67-5.6l.06-.5.16.47a28.18,28.18,0,0,1,1,5v.06l2.46,17.35a.12.12,0,0,0,.14,0,1,1,0,0,0,.29-.84L50.28,48.23a10.4,10.4,0,0,0,0,2.16c0,.4.06.81.07,1.21,0,4-2.39,7.44-5.11,10.93A3.72,3.72,0,0,1,43,64.22l-.25,0L42.9,64a32.44,32.44,0,0,0,6.22-16.33.15.15,0,0,1,0-.07l.21,0v0s0,.09.1.12a.33.33,0,0,0,.37-.08c.17-.22.06-.57,0-.81a7.6,7.6,0,0,0-2.72-3.39.35.35,0,0,0-.1.21c0,.27.19.66.64,1.17,1.61,1.82.86,4.61.16,6.56C43.11,64.12,35,75,27.05,85.53l-.1.15L26,83.77a3.44,3.44,0,0,0-.61,2.93,2.34,2.34,0,0,1,0,1.78,2.29,2.29,0,0,1-1.24,1.26l-.26.11.12-.26a3,3,0,0,0-.24-3,36.46,36.46,0,0,1-3.1,11.9h0a7.65,7.65,0,0,1-1.15,1.93,6.6,6.6,0,0,1-4.87,1.8v.28l-.08-.28c-.48,0-1,0-1.44,0A17.43,17.43,0,0,0,16.24,104a3.3,3.3,0,0,0,1.32.36h0c1.62,0,2.54-2,3.09-3.43C23.61,93,28.54,86.06,33.31,79.32a150.48,150.48,0,0,0,9.06-13.89A2.31,2.31,0,0,1,43.61,64.54ZM19,102.52a1.7,1.7,0,0,1-1.48,1.28h-.11a1.69,1.69,0,0,1-1.53-1.06l-.05-.13.14,0,.7-.09.67-.08.58-.08a2,2,0,0,1,1,.06l.08,0Zm7.58-15.59,0,.12-.11,0a1.43,1.43,0,0,1-.73-1,.44.44,0,0,1,.11-.36.2.2,0,0,1,.21,0l0,0a.93.93,0,0,1,.53.5A.92.92,0,0,1,26.61,86.93Z"/>
        <path class="cls-2" d="M37.12,58.84l1.75,4.23v0a2.71,2.71,0,0,0,.59,1,.92.92,0,0,0,.91.22,27.54,27.54,0,0,1-2.72-6.37,1.2,1.2,0,0,0-.3-.64.44.44,0,0,0-.3-.12h0a.28.28,0,0,0-.19.1.36.36,0,0,0,0,.28h0A3.47,3.47,0,0,0,37.12,58.84Z"/>
        <path class="cls-2" d="M19.26,45.4a.66.66,0,0,0-.4.38h0c0,.29-.07.58-.1.86a1.58,1.58,0,0,0,1-1.23A.69.69,0,0,0,19.26,45.4Z"/>
        <path class="cls-2" d="M23.1,62.64a2.49,2.49,0,0,1,.68,1.43v.05a.34.34,0,0,1-.08.09.65.65,0,0,0,.22-.24c.62-1.08,1.24-2.14,1.87-3.22l0,0a4.19,4.19,0,0,0,.64-1.53,4.38,4.38,0,0,0-.06-1.25,4.06,4.06,0,0,1-.05-1.39h-.17a2.39,2.39,0,0,0-1.38.72l-.08.07L22.78,59a2,2,0,0,0-.59,1.73A3.71,3.71,0,0,0,23,62.5Z"/>
        <path class="cls-2" d="M37.05,46.21a9.59,9.59,0,0,0-3.26,4.4,11.83,11.83,0,0,0,1.38-.68c.53-.32,1.06-.67,1.56-1A14.53,14.53,0,0,1,40.24,47,2.62,2.62,0,0,0,41.42,46l1.14-1.56a2.72,2.72,0,0,0,.61-1.25H43a2.59,2.59,0,0,0-.9.25A23.4,23.4,0,0,0,37.05,46.21Z"/>
        <path class="cls-2" d="M34.39,61.92a1.2,1.2,0,0,0,0,.79c.13.43.25.85.37,1.27s.2.66.29,1a3.31,3.31,0,0,0,.5,1.13,1.09,1.09,0,0,0,.88.43,18,18,0,0,1-1.57-4.92A.54.54,0,0,0,34.39,61.92Z"/>
        <path class="cls-2" d="M26.36,86.28a.76.76,0,0,0-.4-.39.17.17,0,0,0,0,.1,1.18,1.18,0,0,0,.49.74A.8.8,0,0,0,26.36,86.28Z"/>
        <path class="cls-2" d="M22.81,65a2.43,2.43,0,0,1,.29.49,2.34,2.34,0,0,0,.33-1.21v-.07a.32.32,0,0,1-.16-.09,1,1,0,0,1-.12-.16.4.4,0,0,0-.1-.12.24.24,0,0,0-.15-.06l-.09,0a.46.46,0,0,0-.3.29,1,1,0,0,0,.21.78Z"/>
        <path class="cls-2" d="M86.12,63.46a.47.47,0,0,0-.15.37.41.41,0,0,0,.1.29,1.67,1.67,0,0,0,.53-.94.71.71,0,0,0-.47.27Z"/>
        <path class="cls-2" d="M55.25,88.93l0,.74c-.17,3.59-.35,7.3.52,10.79,0-2.66-.08-5.35-.13-8.29a4.61,4.61,0,0,1,.85-3.34l.18-.18,0,.82.23.25a7.89,7.89,0,0,1,1.59,3.51c.39,1.42.75,2.75,1.79,3.57L58.6,92.35,58,90.7l.33.29a8.23,8.23,0,0,0,2.21,1.36l-3.6-3.91A6.05,6.05,0,0,0,55.25,88.93Z"/>
        <path class="cls-2" d="M83.8,64.3a1.8,1.8,0,0,0-.66,1.08,2.27,2.27,0,0,0,1-.59,7.18,7.18,0,0,0,.82-.92A1.75,1.75,0,0,0,83.8,64.3Z"/>
        <path class="cls-2" d="M82,62.76a.87.87,0,0,1-.69-.12.85.85,0,0,1-.4-.75l0-.22,0-.16a2.28,2.28,0,0,1-1.16.68h0l-2.4.77-.07,0a2.09,2.09,0,0,0-1.26.74l0,.07c-.17.28-.44.71-.79.51a.44.44,0,0,0-.24-.07,1.27,1.27,0,0,0-.89.63,5.28,5.28,0,0,0-.94,3.18,34,34,0,0,0,4.24-1,9,9,0,0,0,3.2-1.46A3.56,3.56,0,0,0,82,62.76Z"/>
        <path class="cls-2" d="M100,64.93c-.17-.32-.6-.42-1-.5l-6-1.05,0-.22,5.66.16c.41,0,.9,0,1-.37a.41.41,0,0,0,0-.4,1.74,1.74,0,0,0-1.11-.7c-1.66-.38-3.32-.71-4.93-1l-.55-.09.54-.13,2.45-.58,2.09-.5a7.54,7.54,0,0,0-4.41-.22l-.44.11.34-.3,1-.9.79-.7-.68,0-1,0H93.7l0-.14c.26-1,1.29-1.17,2.28-1.39a3.13,3.13,0,0,0,2-1l-2.59.39,0-.22a2.4,2.4,0,0,0,1.69-2,21.25,21.25,0,0,1-4.44,2.82,7.13,7.13,0,0,1-5.42.22,9.21,9.21,0,0,0-4.53-.23A8.86,8.86,0,0,1,78,55.86a72.06,72.06,0,0,0-11.06-4,.08.08,0,0,0-.06.08.84.84,0,0,0,.52.55l5.18,1.81,5,1.75.06,0v.07a1.52,1.52,0,0,1-1.25,1.48,4,4,0,0,1-1.71,0l-.27,0a16.69,16.69,0,0,0-5.9.09,2.41,2.41,0,0,0-1.49.71c-.84,1.07-2.31.83-3.73.6s-2.74-.45-3.54.48l-.19.21v-.29a22.08,22.08,0,0,0-2-9.55,12.88,12.88,0,0,0-7-6.5,1.36,1.36,0,0,0-1.14,0,.3.3,0,0,0-.15.22,10.37,10.37,0,0,1,6.63,5.78,30.26,30.26,0,0,1,2.31,8.8c.18,1.17.36,2.33.55,3.51l.08.56c.13.83.2,1.85-.48,2.39-.27.22,0,.68.22,1.11a5.77,5.77,0,0,1,.59,1.8c2.15,10.5,4.37,21.33,3.29,32.23-.15,1.58-.64,2.48-1.49,2.76a2.8,2.8,0,0,1-1.22.06,12.54,12.54,0,0,1-3.76-.77v.27l-.09-.31-.34-.16a3.82,3.82,0,0,1-2.15-3.55A57.33,57.33,0,0,1,55,89.64l.18-.67a1.67,1.67,0,0,0-1,1.21l0,.31c-.44,2.75-.88,5.51-1.31,8.25v.1h-.1a2.51,2.51,0,0,1-2.08-2.43,7.13,7.13,0,0,1,.83-3.25l1.21-2.8c.31-.69.61-1.39.91-2.08a13,13,0,0,0-3.18,6.94l0,.11-.11,0a1.7,1.7,0,0,1-1.23-1,3.24,3.24,0,0,1,.2-2.81,9,9,0,0,1,1.52-1.79,14.46,14.46,0,0,0,1.12-1.22,11,11,0,0,0-3.27,2.67l-.08.1-.09-.11a2.84,2.84,0,0,1,.07-3.1A9,9,0,0,1,50,86.28c.22-.22.44-.44.65-.67a11,11,0,0,0,2.52-4.84c-1.57,2.5-3.31,5-5.16,7.37l-.19.24v-.3a83.56,83.56,0,0,0-3.6-21.83.24.24,0,0,0-.2.06,1.23,1.23,0,0,0-.24,1Q45.35,77.8,47,88.34l.11.7c.44,2.92,1,6.56,3.18,9.1a18,18,0,0,0,3.25,2.72,21,21,0,0,1,2.86,2.29l2.54.14,2.34.14h.07l0,.07c.08.23.15.46.22.69A9.25,9.25,0,0,0,63,99.28,93,93,0,0,0,61.1,71.73a.49.49,0,0,1,.08-.39,1.39,1.39,0,0,1,.84-.46l1-.2,5-1,.55-.11-.46.31a13.11,13.11,0,0,0-4.88,5.89,66.71,66.71,0,0,1,9.28-9.58l.35-.29-.17.41a3.89,3.89,0,0,0-.43,1.88c.07.61.56,1.24,1.17,1.2a17.4,17.4,0,0,0,8.88-3.07l.53-.37L82,67.15c-.49.68-1,1.36-1.48,2A98.42,98.42,0,0,1,89,63.11a10.44,10.44,0,0,1,10.28-.35l.43.24-.49,0c-2.4-.14-5.11-.3-7.79-.44a.44.44,0,0,0-.23.28.69.69,0,0,0,.08.58,1.65,1.65,0,0,0,1,.56,14.37,14.37,0,0,0,2.88.37,7.9,7.9,0,0,1,4.5,1.16.22.22,0,0,0,.28,0A.45.45,0,0,0,100,64.93ZM68.66,59.27c.06-.51.54-.83,1.42-1A14.34,14.34,0,0,1,74.17,58a13.91,13.91,0,0,1,5.73,2.5.82.82,0,0,1,.34.35.4.4,0,0,1,0,.37.3.3,0,0,1-.23.11,46.34,46.34,0,0,1-5.76,1.26l-.12,0v-.12a.69.69,0,0,0-.51-.53,2.32,2.32,0,0,0-.79-.09h-.09a6.16,6.16,0,0,1-2.23-.52.74.74,0,0,1-.52-.48A.48.48,0,0,1,70,60.5a.76.76,0,0,1,.58-.29,1.72,1.72,0,0,1,.6.1,1.83,1.83,0,0,0,.32.07c.27,0,.59,0,.68-.23a.49.49,0,0,0-.27-.57,1.54,1.54,0,0,0-.77-.14h-.08l-2.31,0h-.12ZM60,61.1A1.45,1.45,0,0,1,60.69,60a2.15,2.15,0,0,1,.84-.2,6.93,6.93,0,0,1,2.79.27c.39.12.76.27,1.1.41l2.67,1.07,2.66,1.06.07,0v.75l-.08,0a21.39,21.39,0,0,1-3.82.9,2.6,2.6,0,0,1-.4,0,1.12,1.12,0,0,1-.36,0A7.76,7.76,0,0,0,64,64L63.2,64a3.91,3.91,0,0,1-2.81-1.15A2.12,2.12,0,0,1,60,61.1Zm.64,6.29,0-.06a1.07,1.07,0,0,1,.25-1.28A2.1,2.1,0,0,1,62,65.57a.5.5,0,0,1,.47.13c.11.14.08.35-.08.57a2.94,2.94,0,0,1-1.75,1.11Zm1.59,2.42h-.67a.74.74,0,0,1-.48-.2.28.28,0,0,1-.05-.23c0-.1.08-.18.14-.24a26.73,26.73,0,0,1,3.09-2.83,4.32,4.32,0,0,1,2.61-1.07l3.36-.5a6.51,6.51,0,0,0,2.22-.59c.19-.11.59-.34.88-.1l.08.06-.06.09A14.09,14.09,0,0,1,62.18,69.81Zm18.6-4a9,9,0,0,1-3.28,1.5,34.59,34.59,0,0,1-4.39,1l-.12,0v-.12a5.46,5.46,0,0,1,1-3.45c.35-.51.93-.9,1.43-.63.16.09.31-.13.49-.42l0-.08a2.29,2.29,0,0,1,1.38-.83l.07,0L79.78,62c.5-.17,1-.36,1.17-.81L81,61l.12.14a.61.61,0,0,1,.07.57l0,.19a.61.61,0,0,0,.3.55.59.59,0,0,0,.61.06l.14-.08,0,.16A3.68,3.68,0,0,1,80.78,65.81Zm4.45-2a7,7,0,0,1-1,1.12,2.24,2.24,0,0,1-1.24.67l-.13,0V65.5a2.05,2.05,0,0,1,.76-1.37,2,2,0,0,1,1.49-.47l.18,0ZM83,62.3a1.2,1.2,0,0,1,.72-.71l.12,0,0,.12a1.66,1.66,0,0,1-.67,1.66l-.11.07-.06-.11A1.18,1.18,0,0,1,83,62.3Zm3.8.77a1.9,1.9,0,0,1-.71,1.29l-.07,0-.07,0a.68.68,0,0,1-.24-.53A.67.67,0,0,1,86,63.3a1,1,0,0,1,.76-.35h.12Zm3.4-2.48c0,.58-.55,1-1.58,1.22a19.15,19.15,0,0,0-4.31,1.51l-.13.07,0-.14a1.55,1.55,0,0,1,.62-1.5,3.66,3.66,0,0,1,1.48-.67,19.32,19.32,0,0,1,3.83-.6h.12Zm-.11-3.13c-1.09.72-2.26,1.44-3.58,2.19a3.73,3.73,0,0,1-1.45.57l-.27,0a4.41,4.41,0,0,1-1-.15c-1.56-.33-3.2-.75-5-1.29a.59.59,0,0,1-.41-.55.82.82,0,0,1,.43-.8,1.43,1.43,0,0,1,1.37.2,1.23,1.23,0,0,1,1-.65,14.81,14.81,0,0,1,4.52-.35,30.65,30.65,0,0,1,4.46.61l.26.06Zm1.81,1.2a3.27,3.27,0,0,1-.54,0l-.11,0,0-.11c.1-.54.7-.75,1.13-.86h0a.91.91,0,0,1,.61,0,.49.49,0,0,1,.31.29.42.42,0,0,1,0,.33h0a.49.49,0,0,1-.29.19A2.79,2.79,0,0,1,91.94,58.66Z"/>
        <path class="cls-2" d="M89.79,57.42a29.58,29.58,0,0,0-4.17-.55,14.61,14.61,0,0,0-4.45.34c-.36.09-.79.27-.83.63l0,.18-.16-.11a1.78,1.78,0,0,0-.92-.34.72.72,0,0,0-.35.08.61.61,0,0,0-.31.58.4.4,0,0,0,.25.36c1.83.53,3.48.95,5,1.29a3.61,3.61,0,0,0,1.21.12,3.49,3.49,0,0,0,1.38-.54C87.67,58.76,88.77,58.09,89.79,57.42Z"/>
        <path class="cls-2" d="M83.21,63.06a1.46,1.46,0,0,0,.5-1.21,1,1,0,0,0-.47.53A1,1,0,0,0,83.21,63.06Z"/>
        <path class="cls-2" d="M21.52,75.54a3.51,3.51,0,0,0,1.81-1.42.74.74,0,0,0,.16-.45l0-.06h0a1.31,1.31,0,0,0-.81.46L21.4,75.22A.93.93,0,0,1,21.52,75.54Z"/>
        <path class="cls-2" d="M58.5,100a1,1,0,0,0,.48.49.34.34,0,0,0,.14,0,16.11,16.11,0,0,0-.83-2.39.85.85,0,0,0-.21-.31.33.33,0,0,0-.29,0A6.66,6.66,0,0,0,58.5,100Z"/>
        <path class="cls-2" d="M93,57.8a.8.8,0,0,0-.48,0h0c-.53.14-.83.32-.94.58a2.68,2.68,0,0,0,1.46-.2.43.43,0,0,0,.18-.11.22.22,0,0,0,0-.14A.31.31,0,0,0,93,57.8Z"/>
        <path class="cls-2" d="M49.54,88.8a1.08,1.08,0,0,0-.4.2,1.26,1.26,0,0,0-.45,1A1.74,1.74,0,0,0,49.54,88.8Z"/>
        <path class="cls-2" d="M73,64.16H73a1.11,1.11,0,0,0-.47.18h0a6.55,6.55,0,0,1-2.26.62l-3.39.49a6,6,0,0,0-1.32.3,5.15,5.15,0,0,0-1.18.73,27.28,27.28,0,0,0-3.07,2.81s-.09.09-.09.12,0,0,0,.06a.5.5,0,0,0,.32.12A13.78,13.78,0,0,0,73,64.16Z"/>
        <path class="cls-2" d="M85,61.92a1.41,1.41,0,0,0-.56,1.14,18.8,18.8,0,0,1,4.22-1.46c.6-.13,1.3-.38,1.4-.89a19,19,0,0,0-3.66.58A3.62,3.62,0,0,0,85,61.92Z"/>
        <path class="cls-2" d="M63.22,63.76l.8.05a8.26,8.26,0,0,1,2.21.32,1.43,1.43,0,0,0,.65,0,20.27,20.27,0,0,0,3.72-.87v-.44l-2.6-1-2.66-1.07c-.34-.14-.7-.28-1.09-.4a6.58,6.58,0,0,0-2-.3,6.06,6.06,0,0,0-.73,0,1.84,1.84,0,0,0-.76.18,1.26,1.26,0,0,0-.63.91,1.89,1.89,0,0,0,.4,1.53A3.66,3.66,0,0,0,63.22,63.76Z"/>
        <path class="cls-2" d="M68.91,59.17l2.18,0h.07a1.69,1.69,0,0,1,.88.17.68.68,0,0,1,.36.84.8.8,0,0,1-.91.37l-.35-.08a1.73,1.73,0,0,0-.53-.09.54.54,0,0,0-.41.2.26.26,0,0,0-.06.23c0,.16.24.27.39.33a5.76,5.76,0,0,0,2.15.49h.18a2.24,2.24,0,0,1,.77.1.93.93,0,0,1,.64.61,46.81,46.81,0,0,0,5.65-1.24h0a.05.05,0,0,0,.05,0A.2.2,0,0,0,80,61a.64.64,0,0,0-.25-.24,13.47,13.47,0,0,0-5.64-2.47,14.29,14.29,0,0,0-4,.27C69.42,58.62,69,58.84,68.91,59.17Z"/>
        <path class="cls-2" d="M56.67,89.62l.27,5.92a9.08,9.08,0,0,0,1,4.46,4.5,4.5,0,0,0,2.44,1.85,70.65,70.65,0,0,1-3.64-12Zm.94,8a.53.53,0,0,1,.61,0,1,1,0,0,1,.27.39,16.58,16.58,0,0,1,.87,2.51l0,.08-.07,0a.53.53,0,0,1-.24.06.39.39,0,0,1-.15,0,1.21,1.21,0,0,1-.62-.6,7,7,0,0,1-.74-2.38v-.07Z"/>
        <path class="cls-2" d="M54.94,90.73a58.12,58.12,0,0,0-1.33,7.38,3.58,3.58,0,0,0,2,3.33l.14.08,0-.16C54.71,97.93,54.78,94.29,54.94,90.73Z"/>
        <path class="cls-2" d="M62.31,65.83h0a.22.22,0,0,0-.17,0H62a1.85,1.85,0,0,0-1.08.42.88.88,0,0,0-.26.94,2.78,2.78,0,0,0,1.54-1C62.31,66,62.37,65.9,62.31,65.83Z"/>
        <path class="cls-3" d="M22.63,65.16a1.74,1.74,0,0,1,.33.65l.05.25.15-.21a2.72,2.72,0,0,0,.49-1.4.62.62,0,0,0,.45-.37c.62-1.08,1.24-2.14,1.87-3.22l0,0a4.48,4.48,0,0,0,.67-1.61,4.43,4.43,0,0,0-.07-1.31,3.73,3.73,0,0,1,0-1.41l0-.1-.1,0a2.05,2.05,0,0,0-1.86.73l-.07.06-1.93,1.68A2.19,2.19,0,0,0,22,60.77a3.85,3.85,0,0,0,.84,1.86l.11.15A2.4,2.4,0,0,1,23.56,64h0a.13.13,0,0,1-.11,0,.64.64,0,0,1-.1-.13.75.75,0,0,0-.14-.17h0a.46.46,0,0,0-.44-.08.7.7,0,0,0-.46.44,1.25,1.25,0,0,0,.25,1Zm-.12-1a.46.46,0,0,1,.3-.29l.09,0a.24.24,0,0,1,.15.06.4.4,0,0,1,.1.12,1,1,0,0,0,.12.16.32.32,0,0,0,.16.09v.07a2.34,2.34,0,0,1-.33,1.21,2.43,2.43,0,0,0-.29-.49l-.09-.13A1,1,0,0,1,22.51,64.13ZM22.78,59l1.92-1.68.08-.07a2.39,2.39,0,0,1,1.38-.72h.17a4.06,4.06,0,0,0,.05,1.39,4.38,4.38,0,0,1,.06,1.25,4.19,4.19,0,0,1-.64,1.53l0,0c-.63,1.08-1.25,2.14-1.87,3.22a.65.65,0,0,1-.22.24.34.34,0,0,0,.08-.09v-.05a2.49,2.49,0,0,0-.68-1.43L23,62.5a3.71,3.71,0,0,1-.81-1.76A2,2,0,0,1,22.78,59Z"/>
        <path class="cls-3" d="M12.39,20.91l.1-.15A3.16,3.16,0,0,0,13,19a.75.75,0,0,0-.12-.45.43.43,0,0,0-.32-.17h-.05l0,.05a2.13,2.13,0,0,0-.2,2.33Zm.35-2.23a.53.53,0,0,1,.07.31,2.93,2.93,0,0,1-.4,1.48,1.91,1.91,0,0,1,.23-1.87A.35.35,0,0,1,12.74,18.68Z"/>
        <path class="cls-3" d="M35.28,50.12c.54-.32,1.07-.67,1.58-1a14.05,14.05,0,0,1,3.44-1.88,2.81,2.81,0,0,0,1.3-1.15l1.14-1.56a2.64,2.64,0,0,0,.65-1.47V43l-.08,0a2,2,0,0,0-1.29.23A23.5,23.5,0,0,0,36.91,46a9.67,9.67,0,0,0-3.4,4.72l-.06.21.21-.07A13.57,13.57,0,0,0,35.28,50.12Zm7.89-7a2.72,2.72,0,0,1-.61,1.25L41.42,46A2.62,2.62,0,0,1,40.24,47a14.53,14.53,0,0,0-3.51,1.9c-.5.34-1,.69-1.56,1a11.83,11.83,0,0,1-1.38.68,9.59,9.59,0,0,1,3.26-4.4,23.4,23.4,0,0,1,5.06-2.83,2.59,2.59,0,0,1,.9-.25Z"/>
        <path class="cls-3" d="M14.87,32.65l.12-.2,1.88-3.19c.63-1.06,1.26-2.12,1.88-3.18l.06-.1a38.34,38.34,0,0,0,3.9-7.92c.64-2,.64-3.63,0-4.87a3.3,3.3,0,0,0-2.31-1.67,2.22,2.22,0,0,0-1.95.5l-.05,0v.06A9.41,9.41,0,0,1,17.35,17c-.16.39-.32.78-.46,1.17a38.46,38.46,0,0,0-1.64,7.14v0a1.71,1.71,0,0,0,.06,1A1.87,1.87,0,0,0,16,27c.3.18.58.35.65.63a.2.2,0,0,1-.11.13.74.74,0,0,1-.62-.09l-.06,0c-.29-.21-.66-.47-1-.29a.93.93,0,0,0-.41.66,7.56,7.56,0,0,0,.31,4.41Zm.28-5.13a1.28,1.28,0,0,1,.63.31l.06,0a1,1,0,0,0,.82.11.41.41,0,0,0,.25-.31v0c-.07-.39-.42-.6-.75-.8a1.58,1.58,0,0,1-.65-.57,1.42,1.42,0,0,1,0-.87v0a38.71,38.71,0,0,1,1.62-7.09l.46-1.17a9.67,9.67,0,0,0,1.09-5,2.06,2.06,0,0,1,1.73-.41,3.12,3.12,0,0,1,2.15,1.56c.61,1.19.6,2.73,0,4.71h0a38.38,38.38,0,0,1-3.88,7.87l-.06.1c-.62,1.06-1.25,2.12-1.88,3.18l-1.77,3a7.43,7.43,0,0,1-.22-4.07.73.73,0,0,1,.3-.51A.42.42,0,0,1,15.15,27.52Z"/>
        <path class="cls-3" d="M15.36,89.1a.22.22,0,0,0,.23-.11,7.88,7.88,0,0,1,2.84-2.78l.13-.07h.05A20.28,20.28,0,0,1,20.84,86,22.71,22.71,0,0,0,18,88.56a.89.89,0,0,0-.26.43.49.49,0,0,0,.16.42.94.94,0,0,0,.65.24h.15a3,3,0,0,0,2.07-1.9,10.65,10.65,0,0,0,.42-1.15c.09-.26.17-.52.27-.78h0a6.21,6.21,0,0,1,.31-.7A9.12,9.12,0,0,1,22.58,84a6.74,6.74,0,0,0,1-1.62A252.26,252.26,0,0,1,39.05,49.81l.05-.09L39,49.66a1.66,1.66,0,0,0-1.55.17l-4.09,2A8.3,8.3,0,0,0,29,57.56l-.06.27.23-.16L31.54,56,34,54.35A1.62,1.62,0,0,1,35.18,54a.41.41,0,0,1,.22.19A33.66,33.66,0,0,1,28,59L28,59v0A3.47,3.47,0,0,0,28,61.19a1.49,1.49,0,0,0,1,.74.93.93,0,0,0,.85-.28,2.83,2.83,0,0,1,1.86-.91c0,.49-.52.9-.93,1.17-1.23.81-2.48,1.64-3.71,2.47a2,2,0,0,1,.37-1.17,2.4,2.4,0,0,0,.11-.23,1.68,1.68,0,0,0,.17-1.23.78.78,0,0,0-.39-.46c-.62-.31-1.25.33-1.6,1C22.23,69,18.9,75.9,15.9,82.91l0,0,0,.05c.44.65,1.39.44,2.07.22.47-.15,1.37-.27,1.66.23l-.59.08-.74.11-.4.06.38.15a1,1,0,0,1,.56.66,3.82,3.82,0,0,0-3,.51l-.25.17.3,0a8.67,8.67,0,0,0,1.82,0,2.07,2.07,0,0,0,1.11-.44v.11l.15-.06a2.51,2.51,0,0,1,1.75,0c-.67.35-1.38.71-2.23,1.12L18.4,86A2.4,2.4,0,0,0,15,88.73.5.5,0,0,0,15.36,89.1Zm1-4.06a3.62,3.62,0,0,1,2.29-.35,2.18,2.18,0,0,1-.88.29A7.64,7.64,0,0,1,16.32,85Zm4.77-.14.19-.1-.2-.1a2.58,2.58,0,0,0-1.17-.27,2.62,2.62,0,0,0-.83.13,1.2,1.2,0,0,0-.43-.74l.43-.06.73-.11.13,0,0-.12c-.22-.7-1.16-.75-2-.49-.6.19-1.42.39-1.79-.08,3-7,6.31-13.91,9.87-20.56.31-.56.83-1.13,1.31-.89a.52.52,0,0,1,.28.33,1.53,1.53,0,0,1-.15,1.06l-.12.22A1.94,1.94,0,0,0,27,64.6l0,.14.12-.08L31,62.09c.48-.32,1.1-.82,1-1.48l0-.1h-.1a3,3,0,0,0-2.12,1,.75.75,0,0,1-.66.2,1.22,1.22,0,0,1-.87-.62,3.11,3.11,0,0,1,0-1.91,33.66,33.66,0,0,0,7.41-4.84l0-.05,0-.07a.56.56,0,0,0-.38-.38,1.77,1.77,0,0,0-1.38.33l-2.46,1.68-2.18,1.49A8.12,8.12,0,0,1,33.46,52l4.1-2a1.66,1.66,0,0,1,1.24-.23A253.1,253.1,0,0,0,23.37,82.25a6.36,6.36,0,0,1-1,1.57A8.25,8.25,0,0,0,21.6,85a5.58,5.58,0,0,0-.35.79h-.08a17.16,17.16,0,0,0-2,.06Zm-3,4.35A.26.26,0,0,1,18,89a.77.77,0,0,1,.2-.33,22.06,22.06,0,0,1,3-2.65c-.05.16-.11.31-.16.47-.12.37-.25.76-.41,1.13s-.81,1.62-1.9,1.77A.82.82,0,0,1,18.07,89.25ZM17.35,86a2.17,2.17,0,0,1,.79.15L18,86.2h0a8.15,8.15,0,0,0-2.63,2.69h0a.33.33,0,0,1-.18-.2A2.16,2.16,0,0,1,17.35,86Z"/>
        <path class="cls-3" d="M19.18,45.2a.85.85,0,0,0-.52.51l.05,0h-.07c-.05.35-.09.71-.13,1.07l0,.15.16,0A1.79,1.79,0,0,0,20,45.35v-.07l-.06,0A.85.85,0,0,0,19.18,45.2Zm-.43,1.44c0-.28.06-.57.1-.86h0a.66.66,0,0,1,.4-.38.69.69,0,0,1,.49,0A1.58,1.58,0,0,1,18.75,46.64Z"/>
        <path class="cls-3" d="M19.16,41.67a19.36,19.36,0,0,0,2.28-9.09,2.48,2.48,0,0,0-.19-1.11,1,1,0,0,0-1-.55h0a9.59,9.59,0,0,0-4.17,2.13,2.39,2.39,0,0,0-.91,1.45,2.62,2.62,0,0,0,.16,1A47.86,47.86,0,0,0,17.7,41.8a.86.86,0,0,0,.42.51.52.52,0,0,0,.21,0C18.67,42.35,19,42,19.16,41.67Zm-.95.44a.68.68,0,0,1-.31-.4,47.94,47.94,0,0,1-2.36-6.31,2.51,2.51,0,0,1-.15-.88,2.18,2.18,0,0,1,.84-1.31,9.29,9.29,0,0,1,4.07-2.07.74.74,0,0,1,.75.43,2.27,2.27,0,0,1,.17,1,19.13,19.13,0,0,1-2.25,9C18.82,41.82,18.5,42.23,18.21,42.11Z"/>
        <path class="cls-3" d="M8.76,15.76l.05,0a.25.25,0,0,0,.12,0,.35.35,0,0,0,.19-.06.87.87,0,0,0,.25-.69l-.06-1.4c0-.49-.05-1-.08-1.47A3.87,3.87,0,0,0,9,10.82a4,4,0,0,0-.6-1l-.05-.07h0a31.5,31.5,0,0,1-4-7l-.06-.15-.12.11c-.44.41-.24,1.11-.05,1.62L5.85,8.52q1.46,3.6,2.89,7.2ZM4.24,3A31.22,31.22,0,0,0,8.19,9.88l.05.07a4.4,4.4,0,0,1,.58,1A3.67,3.67,0,0,1,9,12.19c0,.49.05,1,.07,1.47s.05.93.07,1.4a.65.65,0,0,1-.16.5.07.07,0,0,1-.06,0h0Q7.49,12,6.06,8.44C5.48,7,4.91,5.61,4.35,4.19A1.56,1.56,0,0,1,4.24,3Z"/>
        <path class="cls-3" d="M14.7,49.25c-.13-.29-.26-.58-.38-.87a15.55,15.55,0,0,1-.68-2.91l0-.2a22.47,22.47,0,0,0-1.22-4.72,4.63,4.63,0,0,0-1.64-2.19,2.12,2.12,0,0,0-2.62.18,3.1,3.1,0,0,0-.34,2.74A23.44,23.44,0,0,0,10.13,48,12.75,12.75,0,0,0,15,53.09l.1.06,0-.11a3.24,3.24,0,0,0,.07-2.43A11.7,11.7,0,0,0,14.7,49.25ZM10.32,47.9A23.45,23.45,0,0,1,8,41.24a2.94,2.94,0,0,1,.28-2.55,1.61,1.61,0,0,1,1.19-.48,2.18,2.18,0,0,1,1.15.34,4.31,4.31,0,0,1,1.55,2.08,21.94,21.94,0,0,1,1.21,4.68l0,.2a16.21,16.21,0,0,0,.7,3h0c.11.3.25.59.38.88A12.76,12.76,0,0,1,15,50.67a3.15,3.15,0,0,1,0,2.17A12.71,12.71,0,0,1,10.32,47.9Z"/>
        <path class="cls-3" d="M15.43,38.74l-1.8-3.45a12.46,12.46,0,0,0-.28-2.07l0-.21-.14.16a4.31,4.31,0,0,1-2.09,1.21c.14-.33.3-.66.46-1a14.39,14.39,0,0,0,.75-1.75c1-2.93-.1-6-1.37-9.23Q10.35,21,9.78,19.61c-.23-.6-.56-1.23-1.17-1.33a1.53,1.53,0,0,0-1,.22A6.14,6.14,0,0,0,4.7,24.18a14.32,14.32,0,0,0,2.05,6.26A47,47,0,0,0,16.58,43c-.69.25-1.5-.26-2.07-.67l-.18-.14v.23a25.08,25.08,0,0,0,1.36,7.2l.11.32.1-.32c.27-.87.54-1.75.82-2.63l.82-2.62a2.47,2.47,0,0,0,.17-.79,2.77,2.77,0,0,0-.42-1.27ZM16.52,47l-.72,2.3a24.53,24.53,0,0,1-1.23-6.59,2.22,2.22,0,0,0,2.26.49l.13-.07L16.85,43A46.7,46.7,0,0,1,6.94,30.33a14.26,14.26,0,0,1-2-6.16A5.89,5.89,0,0,1,7.71,18.7a1.35,1.35,0,0,1,.86-.21c.51.09.79.66,1,1.2.38.94.76,1.87,1.14,2.82,1.25,3.15,2.3,6.22,1.36,9.08a13.1,13.1,0,0,1-.74,1.72c-.19.38-.38.78-.55,1.18l-.07.19.19,0a4.43,4.43,0,0,0,2.27-1.17,13,13,0,0,1,.23,1.85l0,0,1.8,3.47,1.88,3.6h0a2.58,2.58,0,0,1,.39,1.16,2.1,2.1,0,0,1-.16.72C17.07,45.2,16.79,46.07,16.52,47Z"/>
        <path class="cls-3" d="M48.48,90.19l0,.14.13-.06a1.92,1.92,0,0,0,1.14-1.59l0-.14-.14,0a1.26,1.26,0,0,0-.65.27A1.53,1.53,0,0,0,48.48,90.19Zm1.06-1.39a1.74,1.74,0,0,1-.85,1.2,1.26,1.26,0,0,1,.45-1A1.08,1.08,0,0,1,49.54,88.8Z"/>
        <path class="cls-3" d="M57.7,86.3a.32.32,0,0,0-.24.18.53.53,0,0,0,.08.5,6.86,6.86,0,0,0,1.21,1.49,1.4,1.4,0,0,0,.87.42.56.56,0,0,0,.38-.14l.08-.06L60,88.6a15.77,15.77,0,0,0-1.7-2A.86.86,0,0,0,57.7,86.3Zm1.19,2h0a6.91,6.91,0,0,1-1.16-1.44c-.06-.11-.11-.22-.08-.29a.15.15,0,0,1,.09-.06h0a.64.64,0,0,1,.4.2,15.72,15.72,0,0,1,1.62,1.92C59.52,88.75,59.15,88.54,58.89,88.31Z"/>
        <path class="cls-3" d="M21.33,75.79h.11a3.51,3.51,0,0,0,2.06-1.53.79.79,0,0,0,.2-.63.34.34,0,0,0-.2-.22h0a1.52,1.52,0,0,0-1,.51l-1.36,1.28.05.08a1,1,0,0,1,.15.42Zm2.11-2.18h0l0,.06a.74.74,0,0,1-.16.45,3.51,3.51,0,0,1-1.81,1.42.93.93,0,0,0-.12-.32l1.23-1.15A1.31,1.31,0,0,1,23.44,73.61Z"/>
        <path class="cls-3" d="M55.76,62.13a.67.67,0,0,0,.24,0,.52.52,0,0,0,.3-.46.35.35,0,0,0-.19-.33l-1.25-.56-1.35-.61c-.24-.11-.64-.28-.93-.06a.57.57,0,0,0-.2.37.49.49,0,0,0,.11.39l1,.42L55.2,62A1.29,1.29,0,0,0,55.76,62.13Zm-2.33-1.8,1.34.61L56,61.5s.06.06.06.13a.28.28,0,0,1-.16.25.87.87,0,0,1-.64-.1l-1.73-.73-.91-.38a.36.36,0,0,1,0-.21.3.3,0,0,1,.12-.21C52.89,60.12,53.16,60.21,53.43,60.33Z"/>
        <path class="cls-3" d="M31.08,72.76l-.1.13A1.35,1.35,0,0,0,30.82,74a11.5,11.5,0,0,0,.77,2.65l0,0,0,0a1.12,1.12,0,0,1,.46.4l0,0h.16a.57.57,0,0,0,.32-.09l.07,0,0-.08a14.89,14.89,0,0,0-1.5-4Zm0,.43a14.77,14.77,0,0,1,1.37,3.71l-.16,0a1.52,1.52,0,0,0-.49-.42A11.45,11.45,0,0,1,31,73.93,1.41,1.41,0,0,1,31.06,73.19Z"/>
        <path class="cls-3" d="M58,67a33.15,33.15,0,0,0-3.45-1.69c-.44-.19-.65-.08-.75,0a.36.36,0,0,0-.08.3.92.92,0,0,0,.48.56A22.82,22.82,0,0,0,58.32,68l0,0,.05,0a.36.36,0,0,0,.15-.33A1.06,1.06,0,0,0,58,67Zm.28.79a22.65,22.65,0,0,1-4-1.76.74.74,0,0,1-.37-.41.12.12,0,0,1,0-.12h0a.23.23,0,0,1,.16-.06.9.9,0,0,1,.33.09,34.74,34.74,0,0,1,3.43,1.67.82.82,0,0,1,.42.5A.17.17,0,0,1,58.32,67.75Z"/>
        <path class="cls-3" d="M23.36,71.7h.09a1.39,1.39,0,0,0,.78-.34A10,10,0,0,0,27,68.71l0-.08L27,68.57c-.4-.42-1.06-.12-1.54.3-.8.67-1.61,1.35-2.4,2a.36.36,0,0,0-.11.4A.55.55,0,0,0,23.36,71.7Zm-.19-.63,2.4-2h0a1.57,1.57,0,0,1,.91-.45.5.5,0,0,1,.27.08,9.92,9.92,0,0,1-2.67,2.53,1.07,1.07,0,0,1-.69.29.36.36,0,0,1-.26-.25A.14.14,0,0,1,23.17,71.07Z"/>
        <path class="cls-3" d="M55.76,56.16,53,54.8c-.23-.11-.95-.44-1.38,0l-.05,0v.06a1.16,1.16,0,0,0,.74.77l1.85,1,1.21.62a1.13,1.13,0,0,0,.54.16.48.48,0,0,0,.37-.15.44.44,0,0,0,.1-.38A1.15,1.15,0,0,0,55.76,56.16Zm.37.91c-.15.17-.46,0-.64,0l-1.2-.62-1.86-1c-.26-.14-.54-.3-.61-.56.23-.16.59-.12,1.1.12l2.74,1.36a.94.94,0,0,1,.53.53A.21.21,0,0,1,56.13,57.07Z"/>
        <path class="cls-3" d="M35.11,61.41H35a.77.77,0,0,0-.84.43,1.38,1.38,0,0,0,0,.94c.12.43.25.85.37,1.28s.2.65.29,1h0a3.52,3.52,0,0,0,.54,1.2,1.34,1.34,0,0,0,1,.51l.25,0,.13,0-.06-.12a17.93,17.93,0,0,1-1.62-5.06Zm.49,4.68A3.31,3.31,0,0,1,35.1,65c-.09-.32-.19-.65-.29-1s-.24-.84-.37-1.27a1.2,1.2,0,0,1,0-.79.54.54,0,0,1,.52-.32,18,18,0,0,0,1.57,4.92A1.09,1.09,0,0,1,35.6,66.09Z"/>
        <path class="cls-3" d="M50.67,68.13l0-.08h-.08c-.49,0-.83.42-1,.68l-1.1,1.57c-.36.51-.72,1-1.07,1.54a1.09,1.09,0,0,0-.27,1.07l0,0h0a.65.65,0,0,0,.2,0c.25,0,.57-.15.94-.68l1.78-2.55A2.13,2.13,0,0,0,50.67,68.13Zm-3.36,4.64c-.09-.25.08-.55.26-.81l1.07-1.53c.37-.53.74-1.05,1.1-1.58.21-.29.45-.56.73-.59a2.16,2.16,0,0,1-.54,1.39l-1.79,2.54C47.94,72.5,47.63,72.83,47.31,72.77Z"/>
        <path class="cls-3" d="M61.13,82.6c.23,0,.39-.16.41-.33s0-.32-.32-.51c-2-1.27-3.85-2.32-5.92-2.32h-.11l0,.07c-.14.34.21.64.56.8s.84.32,1.25.47a10.82,10.82,0,0,1,2.52,1.14l.17.11a2.39,2.39,0,0,0,1.32.58Zm-1.51-.87a11.2,11.2,0,0,0-2.57-1.16c-.42-.14-.84-.29-1.24-.46-.19-.09-.46-.26-.46-.45,2,0,3.78,1,5.75,2.29.08,0,.26.16.23.27s-.17.16-.24.17a1.94,1.94,0,0,1-1.3-.54Z"/>
        <path class="cls-3" d="M38.66,63.15l0,0a2.83,2.83,0,0,0,.64,1,1.25,1.25,0,0,0,.81.33.84.84,0,0,0,.46-.13l.1,0-.06-.1a27,27,0,0,1-2.76-6.42,1.5,1.5,0,0,0-.36-.75A.69.69,0,0,0,37,57a.49.49,0,0,0-.34.19.58.58,0,0,0-.09.42,3.65,3.65,0,0,0,.36,1.37Zm-1.83-5.88a.28.28,0,0,1,.19-.1h0a.44.44,0,0,1,.3.12,1.2,1.2,0,0,1,.3.64,27.54,27.54,0,0,0,2.72,6.37.92.92,0,0,1-.91-.22,2.71,2.71,0,0,1-.59-1v0l-1.75-4.23a3.47,3.47,0,0,1-.34-1.28h0A.36.36,0,0,1,36.83,57.27Z"/>
        <path class="cls-3" d="M48.52,79.73l.06,0,.05,0a8.79,8.79,0,0,0,1.62-1.87c1.26-1.73,2.47-3.6,2.26-5.64v-.06l-.06,0a.62.62,0,0,0-.75.3,1.67,1.67,0,0,0-.15.65v.08a8.55,8.55,0,0,1-2,3.87c-.38.51-.77,1-1.11,1.58a1.19,1.19,0,0,0-.17.86A.48.48,0,0,0,48.52,79.73Zm1.2-2.59a8.75,8.75,0,0,0,2-4v-.08a1.64,1.64,0,0,1,.12-.56.48.48,0,0,1,.36-.23h0c.17,1.93-1,3.73-2.22,5.42a9.59,9.59,0,0,1-1.52,1.77.19.19,0,0,1-.08-.11.94.94,0,0,1,.15-.67C49,78.17,49.34,77.65,49.72,77.14Z"/>
        <path class="cls-3" d="M43,58.67a.72.72,0,0,0,.29.06.56.56,0,0,0,.25,0,.45.45,0,0,0,.28-.29v0A3.19,3.19,0,0,0,43.25,57l0-.07a16.19,16.19,0,0,1-2.45-6.38l0-.15-.13.07a1.49,1.49,0,0,0-.71.78,2.56,2.56,0,0,0,.19,1.86,29,29,0,0,0,2.37,4.93A1.46,1.46,0,0,0,43,58.67Zm-2.95-7.33h0a1.23,1.23,0,0,1,.48-.58A16.36,16.36,0,0,0,43,57.06l0,.07a3.22,3.22,0,0,1,.58,1.21.27.27,0,0,1-.16.14.45.45,0,0,1-.36,0,1.23,1.23,0,0,1-.49-.54A29.72,29.72,0,0,1,40.28,53,2.47,2.47,0,0,1,40.09,51.34Z"/>
        <path class="cls-3" d="M9.72,52.42l.12.1.06-.14c.25-.65-.3-1.27-.8-1.73h0a27.14,27.14,0,0,1-6.43-8.86C2.32,41,1.73,40,.8,40.13H.66l0,.14A30.42,30.42,0,0,0,9.72,52.42ZM2.47,41.89A27.48,27.48,0,0,0,9,50.81c.41.38.85.86.78,1.33A30.06,30.06,0,0,1,1,40.34C1.69,40.35,2.17,41.22,2.47,41.89Z"/>
        <path d="M14.62,102.22h-.08l.08.28Z"/>
        <path class="cls-3" d="M44,64.59c1.65-.76,2.67-2.3,3.66-3.79a16.16,16.16,0,0,1,2.08-2.7c.15-.15.38-.32.57-.25s.25.3.29.49c.5,2,.9,4.17-.15,5.79s-2.22,3.46-3.35,5.19l-.22.34.36-.18A7.8,7.8,0,0,0,51.38,64a31.06,31.06,0,0,1,.86,4.46L54.71,85.9v0l0,0a.37.37,0,0,0,.42.06A1.19,1.19,0,0,0,55.58,85L50.35,47.09l-.15.49a7.7,7.7,0,0,0-.13,2.83c0,.39.06.8.07,1.19,0,3.92-2.37,7.34-5.06,10.8a4,4,0,0,1-1.84,1.54A32.68,32.68,0,0,0,49.31,48l0,0a.52.52,0,0,0,.63-.15,1.06,1.06,0,0,0,0-1,7.77,7.77,0,0,0-2.87-3.54l-.07,0-.06,0a.61.61,0,0,0-.24.42c0,.34.19.77.69,1.34,1.54,1.73.81,4.44.12,6.33C42.93,64,34.84,74.79,27,85.26l-1-2-.11.18c-.59,1-1.18,2.21-.73,3.31a2.05,2.05,0,0,1,0,1.61,2.12,2.12,0,0,1-.85,1,3.24,3.24,0,0,0-.56-3.18l-.18-.2,0,.26a36.12,36.12,0,0,1-3.1,12.11,7.55,7.55,0,0,1-1.12,1.88,6.41,6.41,0,0,1-4.7,1.72v-.25c0-1.73,0-3.52,0-5.28,0-2,.35-5.46,2.58-6.39a6.86,6.86,0,0,0-2,3.47l-.15.66.35-.58a8.27,8.27,0,0,1,2.36-2.53,12.6,12.6,0,0,0-2.89,6.16l-.13.78.33-.71A26,26,0,0,1,18.49,92q-1.3,2.86-2.63,5.74a1.73,1.73,0,0,0,0,1.47.55.55,0,0,0,.49.25h.08l0-.07a50.7,50.7,0,0,1,4.48-9.68q-1.82,5.37-3.64,10.73l-.2.58.39-.47a13.48,13.48,0,0,0,2.76-5.84A60.47,60.47,0,0,1,24.25,83c1.09-2.59,2.2-5.2,3.3-7.79.72,1.46,1.47,2.9,2.23,4.27l.12.23.08-.25a4.4,4.4,0,0,0-.65-3.2,6.24,6.24,0,0,1-.79-2.45,5.76,5.76,0,0,1,.53-2.09l0,0a130.59,130.59,0,0,1,13.51-25c1.32-1.94,3-3.94,5.23-4.12a.86.86,0,0,0,.62-.33,2.8,2.8,0,0,0,.31-1.85,2.09,2.09,0,0,1,.37-1.6.54.54,0,0,1,.5-.17A2.11,2.11,0,0,0,51.31,38a2.48,2.48,0,0,0,.83-1.87,3.24,3.24,0,0,0-2.31-2.86l-.13,0,0,.13a3.57,3.57,0,0,1-.93,2.26,1.44,1.44,0,0,1-1.35.2.82.82,0,0,1-.55-.62,2.14,2.14,0,0,0-2.25-1.74h0a.88.88,0,0,0-.48.55,1.54,1.54,0,0,0,.09,1.17,3.79,3.79,0,0,0,.7.93c.15.16.3.33.43.5a3.5,3.5,0,0,1-2,5.27,16.93,16.93,0,0,0-9.2,5.72,50.55,50.55,0,0,0-6,9.17.23.23,0,0,1-.23,0,.74.74,0,0,1-.38-.55,3,3,0,0,1,0-.31,1.31,1.31,0,0,0-.27-.92c-.54-.54-1.45.05-1.71.24l-1.65,1.17-1.59,1.12.63-9.08c.1-1.3-.19-2.73-1.33-2.89a.36.36,0,0,1-.32-.22A1.75,1.75,0,0,1,21.57,44l2.68-3.74L27,36.37l.4-.57-.56.41a26.49,26.49,0,0,0-6,6.08,30.62,30.62,0,0,0,1.73-6.87,7.39,7.39,0,0,0-.27-3.8,3.08,3.08,0,0,0-2.87-2c3.08-4.59,6-9.49,5-14.58-.43-2.39-2.29-4.73-4.54-4.35-2.08.36-3,2.68-3.62,4.66L13.74,24.1c-1.17-5.83,2-11.62,5.43-17.06L19,6.9a30.18,30.18,0,0,0-4.52,6.37c.33-1.34.65-2.69,1-4,.4-1.65.79-3.29,1.19-4.94l-.21-.07L15,7.64q.36-2.73.7-5.45l.18-1.4-.28.53c-1.35,2.54-1.57,5.5-1.78,8.37s-.43,5.73-1.73,8.2a109.28,109.28,0,0,1,2-14.3l-.21-.07a50.31,50.31,0,0,0-2.69,11.37c-.26-2.24-.51-4.5-.75-6.7l0-.15-.13,0A2.27,2.27,0,0,0,9,9.34c-1.76-3-3.7-6.1-5.75-9L3,0V.35C3,3.4,4.16,6.37,5.19,9l1.88,4.79c.36.93.73,1.86,1.09,2.8a6.54,6.54,0,0,0-4.95,5.86c-.26,2.37.42,4.95,2.09,7.9.55,1,1.16,1.91,1.75,2.83a44.26,44.26,0,0,1,2.31,3.89,1.54,1.54,0,0,0-1-.09A2.21,2.21,0,0,0,6.89,38a4.73,4.73,0,0,0-.28,3.14A22,22,0,0,0,17.72,56.71l.12-.19c-1.95-1.54-1.35-4.64-.72-6.83a1.17,1.17,0,0,1,.57-.74.19.19,0,0,1,.15,0,.88.88,0,0,0-.1.66.82.82,0,0,0,.51.6l.15.06v-.16a3,3,0,0,1,.94-2.17A3.08,3.08,0,0,1,21.4,47l-1,12.83L11.49,57.6a4.22,4.22,0,0,1-2-.89A1.65,1.65,0,0,1,9,55.57a1,1,0,0,1,.3-.75c.57-.57,1.49-.26,2.38,0s2,.66,2.56-.13l.08-.11-.12-.06A6,6,0,0,0,12.06,54a1.31,1.31,0,0,0,.12-1.26l0-.13-.12.09c-.82.67-2.08.5-3.83-.51L6.07,51,.13,47.58,0,47.76l3.31,2.71,3.32,2.71.07.06.08-.07a.44.44,0,0,1,.42-.11.87.87,0,0,1,.6.55,2.51,2.51,0,0,1,0,1c0,.18,0,.35,0,.53,0,2.15,2.13,3.68,4.16,4.19a21.45,21.45,0,0,0,2.4.4,13.36,13.36,0,0,1,3.69.84,6.86,6.86,0,0,1,4,5.93A.85.85,0,0,1,22,67a.84.84,0,0,1-.59.22,9.68,9.68,0,0,1-5.29-.87,2.25,2.25,0,0,1-.89-.65,1.68,1.68,0,0,1,.57-2.2,5,5,0,0,1,2.5-.74h.09v-.09a.92.92,0,0,0-.29-.7,1.59,1.59,0,0,0-1.21-.39,4.41,4.41,0,0,0-1,.24A4.1,4.1,0,0,1,15,62a2.16,2.16,0,0,1-2.23-1.45l-.22,0c.13.62.26,1.24.38,1.85l.45,2.2a5,5,0,0,0,3.34,3.47,14.2,14.2,0,0,0,4.72.58,80.45,80.45,0,0,0-6.62,15.14c-.44,1.39-1.13,3-2.54,3.16l-.27,0,.22.17a3.48,3.48,0,0,0,2,.7,25.27,25.27,0,0,0,.15,13.85l.06.22c-.58,0-1.16,0-1.73,0h-.36l.3.21a18,18,0,0,0,3.47,2,3.61,3.61,0,0,0,1.44.37c1.76,0,2.72-2,3.3-3.57,2.92-7.82,7.84-14.78,12.6-21.51a151,151,0,0,0,9.08-13.91,2.12,2.12,0,0,1,1.13-.8ZM14.52,87.86l0-.14h-.15a3.24,3.24,0,0,1-1.79-.51c1.35-.31,2-1.89,2.45-3.26a80.86,80.86,0,0,1,6.69-15.26l.09-.16h-.19A14.76,14.76,0,0,1,16.84,68a4.83,4.83,0,0,1-3.21-3.31c-.15-.72-.3-1.46-.44-2.19-.08-.37-.15-.74-.23-1.1a2.41,2.41,0,0,0,2.11.91A4.32,4.32,0,0,0,16,62a4.41,4.41,0,0,1,.9-.23,1.39,1.39,0,0,1,1,.33.74.74,0,0,1,.22.44,5,5,0,0,0-2.51.77,1.9,1.9,0,0,0-.62,2.5,2.43,2.43,0,0,0,1,.72,9.93,9.93,0,0,0,5.41.89,1,1,0,0,0,.73-.3,1,1,0,0,0,.15-.66,7.13,7.13,0,0,0-4.16-6.13,14,14,0,0,0-3.76-.85A21.28,21.28,0,0,1,12,59.11c-1.95-.49-4-1.94-4-4,0-.17,0-.34,0-.51A2.82,2.82,0,0,0,8,53.54a1.1,1.1,0,0,0-.76-.69.68.68,0,0,0-.56.1L3.45,50.3,1.2,48.45,6,51.19l2.11,1.22c1.76,1,3.06,1.21,4,.58a1.08,1.08,0,0,1-.28,1.06l-.19.19h.27a5.48,5.48,0,0,1,2.12.47c-.5.51-1.33.23-2.22-.06s-1.94-.65-2.61,0a1.25,1.25,0,0,0-.36.91,1.88,1.88,0,0,0,.55,1.3,4.49,4.49,0,0,0,2.13,1l9,2.29.12,0,1.09-13.32h-.12a3.4,3.4,0,0,0-3.34,3.12.77.77,0,0,1-.22-.37.61.61,0,0,1,.12-.56l.08-.09-.09-.07a.45.45,0,0,0-.44-.1,1.34,1.34,0,0,0-.72.89c-.58,2-1.13,4.77.22,6.49a21.83,21.83,0,0,1-10.3-15,4.52,4.52,0,0,1,.25-3,2.07,2.07,0,0,1,1.36-1,1.31,1.31,0,0,1,1.12.26l.39.32-.22-.46a39.12,39.12,0,0,0-2.5-4.25c-.59-.91-1.2-1.86-1.74-2.82-1.64-2.91-2.32-5.44-2.06-7.76a6.3,6.3,0,0,1,4.9-5.7l.14,0-.05-.13c-.39-1-.77-2-1.15-2.92C6.65,12.1,6,10.51,5.4,8.91A25,25,0,0,1,3.22.71c2,2.92,3.92,5.93,5.66,9L9,9.89l.07-.25a2,2,0,0,1,1.2-1.31c.27,2.43.55,4.94.83,7.41l.1.83.12-.83A60.71,60.71,0,0,1,13.65,4.9a110.37,110.37,0,0,0-1.78,13.46l0,.46.24-.39c1.55-2.6,1.77-5.71,2-8.72A22.49,22.49,0,0,1,15.54,2v.14c-.27,2.1-.54,4.21-.83,6.31l-.11.86,1.48-3.64-.84,3.5c-.4,1.65-.79,3.29-1.19,4.94l-.24,1,.44-.91A29.35,29.35,0,0,1,18.32,8c-3.24,5.29-6.05,10.9-4.7,16.57l.09.4.12-.4,2.73-9.11c.58-1.92,1.49-4.17,3.44-4.52,2.12-.35,3.88,1.89,4.29,4.18.92,5.09-2,10-5.14,14.62L19,30l.26-.05a2.8,2.8,0,0,1,2.88,1.79,7.29,7.29,0,0,1,.25,3.69,30.29,30.29,0,0,1-2.09,7.77l.2.11a26,26,0,0,1,5.91-6.44l-2.34,3.25-2.68,3.75A1.94,1.94,0,0,0,21,45.46a.6.6,0,0,0,.5.36c1,.13,1.23,1.46,1.14,2.65L22,58l.19-.13L24,56.63l1.65-1.17c.23-.17,1-.68,1.42-.27a1.16,1.16,0,0,1,.21.78c0,.11,0,.22,0,.33a1,1,0,0,0,.51.72.46.46,0,0,0,.47,0l0,0a50,50,0,0,1,5.94-9.16,16.81,16.81,0,0,1,9.09-5.64,3.74,3.74,0,0,0,2.15-5.63c-.14-.18-.3-.34-.45-.51a4,4,0,0,1-.67-.87,1.34,1.34,0,0,1-.07-1,.7.7,0,0,1,.35-.43,1.94,1.94,0,0,1,2,1.57,1,1,0,0,0,.7.79,1.66,1.66,0,0,0,1.56-.24,3.6,3.6,0,0,0,1-2.27,3,3,0,0,1,2,2.62,2.25,2.25,0,0,1-.76,1.69,1.89,1.89,0,0,1-1.51.52.76.76,0,0,0-.68.23,2.28,2.28,0,0,0-.43,1.79,2.44,2.44,0,0,1-.27,1.68.65.65,0,0,1-.46.25c-2.34.19-4,2.24-5.39,4.22A130.16,130.16,0,0,0,28.89,71.62l0,0a5.66,5.66,0,0,0-.55,2.18,6.41,6.41,0,0,0,.81,2.54,4.7,4.7,0,0,1,.71,2.77c-.76-1.36-1.49-2.79-2.19-4.24l-.11-.21-.09.22c-1.14,2.67-2.28,5.35-3.41,8A61,61,0,0,0,20,94.66a13.1,13.1,0,0,1-2.31,5.23c1.26-3.69,2.5-7.36,3.75-11l.3-.9-.5.81a50.83,50.83,0,0,0-5,10.49.36.36,0,0,1-.23-.15,1.56,1.56,0,0,1,.07-1.26q1.42-3.14,2.86-6.25l.41-.9-.5.57a25.76,25.76,0,0,0-3.56,5.22,12.4,12.4,0,0,1,3.23-5.82l.54-.55-.67.38a8.46,8.46,0,0,0-2.75,2.44,6.75,6.75,0,0,1,2.12-3l.38-.29-.47.1c-1.48.33-3.25,1.77-3.25,6.76,0,1.49,0,3,0,4.49A25,25,0,0,1,14.52,87.86Zm18.79-8.54c-4.77,6.74-9.7,13.72-12.63,21.56-.55,1.48-1.47,3.43-3.09,3.43h0a3.3,3.3,0,0,1-1.32-.36,17.43,17.43,0,0,1-3.14-1.72c.48,0,1,0,1.44,0h.08a6.6,6.6,0,0,0,4.87-1.8,7.65,7.65,0,0,0,1.15-1.93h0a36.46,36.46,0,0,0,3.1-11.9,3,3,0,0,1,.24,3l-.12.26.26-.11a2.29,2.29,0,0,0,1.24-1.26,2.34,2.34,0,0,0,0-1.78A3.44,3.44,0,0,1,26,83.77L27,85.68l.1-.15C35,75,43.11,64.12,47.76,51.49c.7-2,1.45-4.74-.16-6.56-.45-.51-.67-.9-.64-1.17a.35.35,0,0,1,.1-.21,7.6,7.6,0,0,1,2.72,3.39c.09.24.2.59,0,.81a.33.33,0,0,1-.37.08c-.06,0-.1-.07-.1-.12v0l-.21,0a.15.15,0,0,0,0,.07A32.44,32.44,0,0,1,42.9,64l-.15.21.25,0a3.72,3.72,0,0,0,2.25-1.69c2.72-3.49,5.16-7,5.11-10.93,0-.4,0-.81-.07-1.21a10.4,10.4,0,0,1,0-2.16L55.36,85a1,1,0,0,1-.29.84.12.12,0,0,1-.14,0L52.47,68.47v-.06a28.18,28.18,0,0,0-1-5L51.28,63l-.06.5a7.52,7.52,0,0,1-3.67,5.6c1.05-1.61,2.08-3.22,3.12-4.84s.69-3.86.18-5.95c-.06-.25-.16-.55-.44-.64s-.51,0-.8.3a16,16,0,0,0-2.1,2.73c-1,1.53-2,3-3.57,3.71l-.33.15a2.31,2.31,0,0,0-1.24.89A150.48,150.48,0,0,1,33.31,79.32Z"/>
        <path class="cls-3" d="M18,102.34l-.58.08-.67.08-.7.09-.14,0,.05.13a1.69,1.69,0,0,0,1.53,1.06h.11A1.7,1.7,0,0,0,19,102.52l0-.09-.08,0A2,2,0,0,0,18,102.34Zm-1.78.45.55-.07.68-.08.58-.08a2,2,0,0,1,.81,0,1.41,1.41,0,0,1-2.62.22Z"/>
        <path class="cls-3" d="M26,85.69l0,0a.2.2,0,0,0-.21,0,.44.44,0,0,0-.11.36,1.43,1.43,0,0,0,.73,1l.11,0,0-.12a.92.92,0,0,0-.05-.74A.93.93,0,0,0,26,85.69ZM26,86a.17.17,0,0,1,0-.1.76.76,0,0,1,.4.39.8.8,0,0,1,.08.45A1.18,1.18,0,0,1,26,86Z"/>
        <path class="cls-3" d="M100.2,64.83a1.45,1.45,0,0,0-1.14-.61l-4.57-.8,4.16.12c.44,0,1.06,0,1.27-.5a.68.68,0,0,0,0-.59,1.94,1.94,0,0,0-1.26-.81c-1.48-.35-3-.64-4.41-.89l1.92-.46,2.43-.58.33-.07-.31-.13a7.74,7.74,0,0,0-4.46-.46l.7-.62,1-.9.24-.21H95.8l-1,.06-.8,0c.29-.7,1.15-.88,2-1.08s2-.43,2.31-1.28l.08-.18-2.25.34a2.63,2.63,0,0,0,1.16-2.12v-.23l-.2.16A21.39,21.39,0,0,1,92.6,56a6.94,6.94,0,0,1-5.25.23,9.28,9.28,0,0,0-4.63-.24,8.84,8.84,0,0,1-4.61-.28,70.88,70.88,0,0,0-11.13-4h-.07a.32.32,0,0,0-.23.31,1,1,0,0,0,.66.74l5.18,1.82,4.93,1.73a1.3,1.3,0,0,1-1.08,1.17,3.9,3.9,0,0,1-1.63,0l-.26-.05a17.15,17.15,0,0,0-6,.09,2.63,2.63,0,0,0-1.62.79c-.77,1-2.11.76-3.52.52s-2.67-.43-3.56.36a22.15,22.15,0,0,0-2.07-9.38,13.13,13.13,0,0,0-7.13-6.62,1.56,1.56,0,0,0-1.34.08.57.57,0,0,0-.25.49v.09l.09,0a10.08,10.08,0,0,1,6.57,5.68A30,30,0,0,1,58,58.22c.18,1.17.36,2.34.55,3.52l.09.55c.12.77.18,1.72-.4,2.19s-.05,1.06.16,1.39a5.68,5.68,0,0,1,.57,1.76c2.14,10.46,4.36,21.27,3.28,32.14-.14,1.48-.58,2.32-1.34,2.58a2.68,2.68,0,0,1-1.13,0A11.93,11.93,0,0,1,56,101.6v-.28c0-2.95-.09-5.89-.14-9.15a4.93,4.93,0,0,1,.61-3l.29,6.36a9.17,9.17,0,0,0,1,4.57,4.75,4.75,0,0,0,2.78,2l.21.05-.08-.2A69.9,69.9,0,0,1,57,90.2a9.19,9.19,0,0,1,1.26,3.09c.41,1.51.84,3.07,2.16,3.89l.28.17-.11-.3-1.8-4.78-.32-.85a8.31,8.31,0,0,0,2.39,1.31l.42.14L57,88.25l0,0h-.06a6.53,6.53,0,0,0-1.68.46v0A2,2,0,0,0,54,90.14l0,.32c-.43,2.71-.87,5.43-1.29,8.14a2.36,2.36,0,0,1-1.77-2.21,6.94,6.94,0,0,1,.82-3.15c.4-.94.8-1.87,1.21-2.8L54,87.77l.23-.54-.41.42a13.32,13.32,0,0,0-3.66,7.41,1.49,1.49,0,0,1-.94-.87,3,3,0,0,1,.18-2.61,9.15,9.15,0,0,1,1.48-1.75,9.35,9.35,0,0,0,1.4-1.61l.22-.33-.36.17a11.13,11.13,0,0,0-3.63,2.82,2.67,2.67,0,0,1,.16-2.75,9.51,9.51,0,0,1,1.41-1.7c.22-.22.44-.44.65-.67a11.18,11.18,0,0,0,2.7-5.55l.09-.56-.3.49A89.58,89.58,0,0,1,48,87.76a83.78,83.78,0,0,0-3.62-21.63l0-.06-.05,0a.48.48,0,0,0-.46.09,1.41,1.41,0,0,0-.32,1.17q1.62,10.51,3.23,21.06l.11.7c.45,3,1,6.63,3.24,9.22A17.66,17.66,0,0,0,53.38,101a21.66,21.66,0,0,1,2.86,2.3l0,0h0l2.58.14,2.26.13q.12.33.21.66l.11.35.13-.16c1.18-1.4,1.44-3.33,1.59-5.19a93.43,93.43,0,0,0-1.87-27.61.26.26,0,0,1,0-.23,1.11,1.11,0,0,1,.7-.36l1-.2c1.5-.31,3-.61,4.48-.9a13.26,13.26,0,0,0-4.79,6.38l-.23.64.42-.54a67.06,67.06,0,0,1,9.37-9.84A3.19,3.19,0,0,0,72,68.22a1.5,1.5,0,0,0,1.33,1.39h.06a17.69,17.69,0,0,0,8.49-2.77l-.13.18-2,2.71-.51.7.67-.55a98.45,98.45,0,0,1,9.11-6.59,10.23,10.23,0,0,1,9.58-.57l-7.29-.42h0a.65.65,0,0,0-.38.44.92.92,0,0,0,.11.76,1.8,1.8,0,0,0,1.1.65,14.34,14.34,0,0,0,2.93.38c1.62.09,3.16.18,4.38,1.11a.42.42,0,0,0,.55,0A.65.65,0,0,0,100.2,64.83Zm-.6.65a7.9,7.9,0,0,0-4.5-1.16A14.37,14.37,0,0,1,92.22,64a1.65,1.65,0,0,1-1-.56.69.69,0,0,1-.08-.58.44.44,0,0,1,.23-.28c2.68.14,5.39.3,7.79.44l.49,0-.43-.24A10.44,10.44,0,0,0,89,63.11a98.42,98.42,0,0,0-8.48,6.07c.5-.67,1-1.35,1.48-2l.86-1.2-.53.37a17.4,17.4,0,0,1-8.88,3.07c-.61,0-1.1-.59-1.17-1.2a3.89,3.89,0,0,1,.43-1.88l.17-.41-.35.29a66.71,66.71,0,0,0-9.28,9.58,13.11,13.11,0,0,1,4.88-5.89l.46-.31-.55.11-5,1-1,.2a1.39,1.39,0,0,0-.84.46.49.49,0,0,0-.08.39A93,93,0,0,1,63,99.28a9.25,9.25,0,0,1-1.41,4.91c-.07-.23-.14-.46-.22-.69l0-.07h-.07l-2.34-.14-2.54-.14a21,21,0,0,0-2.86-2.29,18,18,0,0,1-3.25-2.72C48.06,95.6,47.51,92,47.07,89l-.11-.7q-1.62-10.53-3.23-21.06a1.23,1.23,0,0,1,.24-1,.24.24,0,0,1,.2-.06,83.56,83.56,0,0,1,3.6,21.83v.3l.19-.24c1.85-2.39,3.59-4.87,5.16-7.37a11,11,0,0,1-2.52,4.84c-.21.23-.43.45-.65.67A9,9,0,0,0,48.52,88a2.84,2.84,0,0,0-.07,3.1l.09.11.08-.1a11,11,0,0,1,3.27-2.67,14.46,14.46,0,0,1-1.12,1.22,9,9,0,0,0-1.52,1.79,3.24,3.24,0,0,0-.2,2.81,1.7,1.7,0,0,0,1.23,1l.11,0,0-.11a13,13,0,0,1,3.18-6.94c-.3.69-.6,1.39-.91,2.08l-1.21,2.8a7.13,7.13,0,0,0-.83,3.25,2.51,2.51,0,0,0,2.08,2.43h.1v-.1c.43-2.74.87-5.5,1.31-8.25l0-.31a1.67,1.67,0,0,1,1-1.21l-.18.67a57.33,57.33,0,0,0-1.61,8.45,3.82,3.82,0,0,0,2.15,3.55l.34.16.09.31v-.27a12.54,12.54,0,0,0,3.76.77,2.8,2.8,0,0,0,1.22-.06c.85-.28,1.34-1.18,1.49-2.76,1.08-10.9-1.14-21.73-3.29-32.23a5.77,5.77,0,0,0-.59-1.8c-.26-.43-.49-.89-.22-1.11.68-.54.61-1.56.48-2.39l-.08-.56c-.19-1.18-.37-2.34-.55-3.51a30.26,30.26,0,0,0-2.31-8.8,10.37,10.37,0,0,0-6.63-5.78.3.3,0,0,1,.15-.22,1.36,1.36,0,0,1,1.14,0,12.88,12.88,0,0,1,7,6.5,22.08,22.08,0,0,1,2,9.55v.29l.19-.21c.8-.93,2.13-.71,3.54-.48s2.89.47,3.73-.6a2.41,2.41,0,0,1,1.49-.71,16.69,16.69,0,0,1,5.9-.09l.27,0a4,4,0,0,0,1.71,0,1.52,1.52,0,0,0,1.25-1.48v-.07l-.06,0-5-1.75-5.18-1.81A.84.84,0,0,1,66.9,52a.08.08,0,0,1,.06-.08,72.06,72.06,0,0,1,11.06,4,8.86,8.86,0,0,0,4.72.29,9.21,9.21,0,0,1,4.53.23,7.13,7.13,0,0,0,5.42-.22,21.25,21.25,0,0,0,4.44-2.82,2.4,2.4,0,0,1-1.69,2l0,.22,2.59-.39a3.13,3.13,0,0,1-2,1c-1,.22-2,.44-2.28,1.39l0,.14h.15l1,0,.68,0-.79.7-1,.9-.34.3.44-.11a7.54,7.54,0,0,1,4.41.22l-2.09.5-2.45.58-.54.13.55.09c1.61.26,3.27.59,4.93,1a1.74,1.74,0,0,1,1.11.7.41.41,0,0,1,0,.4c-.15.35-.64.38-1,.37L93,63.16l0,.22,6,1.05c.39.08.82.18,1,.5a.45.45,0,0,1-.13.51A.22.22,0,0,1,99.6,65.48ZM58.31,91,58,90.7l.62,1.65,1.68,4.45c-1-.82-1.4-2.15-1.79-3.57a7.89,7.89,0,0,0-1.59-3.51l-.23-.25,0-.82-.18.18a4.61,4.61,0,0,0-.85,3.34c0,2.94.09,5.63.13,8.29-.87-3.49-.69-7.2-.52-10.79l0-.74a6.05,6.05,0,0,1,1.67-.49l3.6,3.91A8.23,8.23,0,0,1,58.31,91Zm-.4,9a9.08,9.08,0,0,1-1-4.46l-.27-5.92,0,.19a70.65,70.65,0,0,0,3.64,12A4.5,4.5,0,0,1,57.91,100Zm-2.26,1.44a3.58,3.58,0,0,1-2-3.33,58.12,58.12,0,0,1,1.33-7.38c-.16,3.56-.23,7.2.8,10.63l0,.16Z"/>
        <path class="cls-3" d="M83.66,64.13a2.05,2.05,0,0,0-.76,1.37v.14l.13,0A2.24,2.24,0,0,0,84.26,65a7,7,0,0,0,1-1.12l.1-.15-.18,0A2,2,0,0,0,83.66,64.13Zm-.52,1.25a1.8,1.8,0,0,1,.66-1.08,1.75,1.75,0,0,1,1.13-.43,7.18,7.18,0,0,1-.82.92A2.27,2.27,0,0,1,83.14,65.38Z"/>
        <path class="cls-3" d="M82.22,62.43l-.14.08a.59.59,0,0,1-.61-.06.61.61,0,0,1-.3-.55l0-.19a.61.61,0,0,0-.07-.57L81,61l-.06.17c-.17.45-.67.64-1.17.81l-2.41.77-.07,0a2.29,2.29,0,0,0-1.38.83l0,.08c-.18.29-.33.51-.49.42-.5-.27-1.08.12-1.43.63a5.46,5.46,0,0,0-1,3.45v.12l.12,0a34.59,34.59,0,0,0,4.39-1,9,9,0,0,0,3.28-1.5,3.68,3.68,0,0,0,1.47-3.22Zm-9,5.62a5.28,5.28,0,0,1,.94-3.18,1.27,1.27,0,0,1,.89-.63.44.44,0,0,1,.24.07c.35.2.62-.23.79-.51l0-.07A2.09,2.09,0,0,1,77.37,63l.07,0,2.4-.77h0A2.28,2.28,0,0,0,81,61.51l0,.16,0,.22a.85.85,0,0,0,.4.75.87.87,0,0,0,.69.12,3.56,3.56,0,0,1-1.4,2.88,9,9,0,0,1-3.2,1.46A34,34,0,0,1,73.2,68.05Z"/>
        <path class="cls-3" d="M83.23,63.33a1.66,1.66,0,0,0,.67-1.66l0-.12-.12,0a1.2,1.2,0,0,0-.72.71,1.18,1.18,0,0,0,0,1l.06.11Zm.48-1.48a1.46,1.46,0,0,1-.5,1.21,1,1,0,0,1,0-.68A1,1,0,0,1,83.71,61.85Z"/>
        <path class="cls-3" d="M86,63.3a.67.67,0,0,0-.22.53.68.68,0,0,0,.24.53l.07,0,.07,0a1.9,1.9,0,0,0,.71-1.29V63h-.12A1,1,0,0,0,86,63.3Zm.63-.12a1.67,1.67,0,0,1-.53.94.41.41,0,0,1-.1-.29.47.47,0,0,1,.15-.37h0A.71.71,0,0,1,86.6,63.18Z"/>
        <path class="cls-3" d="M71.08,59.44h.08a1.54,1.54,0,0,1,.77.14.49.49,0,0,1,.27.57c-.09.21-.41.28-.68.23a1.83,1.83,0,0,1-.32-.07,1.72,1.72,0,0,0-.6-.1.76.76,0,0,0-.58.29.48.48,0,0,0-.09.41.74.74,0,0,0,.52.48,6.16,6.16,0,0,0,2.23.52h.09a2.32,2.32,0,0,1,.79.09.69.69,0,0,1,.51.53v.12l.12,0A46.34,46.34,0,0,0,80,61.36a.3.3,0,0,0,.23-.11.4.4,0,0,0,0-.37.82.82,0,0,0-.34-.35A13.91,13.91,0,0,0,74.17,58a14.34,14.34,0,0,0-4.09.27c-.88.14-1.36.46-1.42,1v.12h.12Zm3.07-1.19a13.47,13.47,0,0,1,5.64,2.47A.64.64,0,0,1,80,61a.2.2,0,0,1,0,.15.05.05,0,0,1-.05,0h0a46.81,46.81,0,0,1-5.65,1.24.93.93,0,0,0-.64-.61,2.24,2.24,0,0,0-.77-.1h-.18a5.76,5.76,0,0,1-2.15-.49c-.15-.06-.35-.17-.39-.33a.26.26,0,0,1,.06-.23.54.54,0,0,1,.41-.2,1.73,1.73,0,0,1,.53.09l.35.08a.8.8,0,0,0,.91-.37.68.68,0,0,0-.36-.84,1.69,1.69,0,0,0-.88-.17h-.07l-2.18,0c.11-.33.51-.55,1.21-.65A14.29,14.29,0,0,1,74.15,58.25Z"/>
        <path class="cls-3" d="M85.63,56.65a14.81,14.81,0,0,0-4.52.35,1.23,1.23,0,0,0-1,.65,1.43,1.43,0,0,0-1.37-.2.82.82,0,0,0-.43.8.59.59,0,0,0,.41.55c1.84.54,3.48,1,5,1.29a4.41,4.41,0,0,0,1,.15l.27,0a3.73,3.73,0,0,0,1.45-.57c1.32-.75,2.49-1.47,3.58-2.19l.22-.14-.26-.06A30.65,30.65,0,0,0,85.63,56.65Zm-1.77,3.23c-1.55-.34-3.2-.76-5-1.29a.4.4,0,0,1-.25-.36.61.61,0,0,1,.31-.58.72.72,0,0,1,.35-.08,1.78,1.78,0,0,1,.92.34l.16.11,0-.18c0-.36.47-.54.83-.63a14.61,14.61,0,0,1,4.45-.34,29.58,29.58,0,0,1,4.17.55c-1,.67-2.12,1.34-3.34,2a3.49,3.49,0,0,1-1.38.54A3.61,3.61,0,0,1,83.86,59.88Z"/>
        <path class="cls-3" d="M73.36,64.1,73.28,64c-.29-.24-.69,0-.88.1a6.51,6.51,0,0,1-2.22.59l-3.36.5a4.32,4.32,0,0,0-2.61,1.07,26.73,26.73,0,0,0-3.09,2.83c-.06.06-.15.14-.14.24a.28.28,0,0,0,.05.23.74.74,0,0,0,.48.2h.67A14.09,14.09,0,0,0,73.3,64.19ZM61.52,69.58a.5.5,0,0,1-.32-.12s0,0,0-.06.05-.08.09-.12a27.28,27.28,0,0,1,3.07-2.81,5.15,5.15,0,0,1,1.18-.73,6,6,0,0,1,1.32-.3L70.24,65a6.55,6.55,0,0,0,2.26-.62h0a1.11,1.11,0,0,1,.47-.18H73A13.78,13.78,0,0,1,61.52,69.58Z"/>
        <path class="cls-3" d="M58.3,100.08a1.21,1.21,0,0,0,.62.6.39.39,0,0,0,.15,0,.53.53,0,0,0,.24-.06l.07,0,0-.08A16.58,16.58,0,0,0,58.49,98a1,1,0,0,0-.27-.39.53.53,0,0,0-.61,0l-.06,0v.07A7,7,0,0,0,58.3,100.08Zm-.22-2.3a.85.85,0,0,1,.21.31,16.11,16.11,0,0,1,.83,2.39.34.34,0,0,1-.14,0,1,1,0,0,1-.48-.49,6.66,6.66,0,0,1-.71-2.24A.33.33,0,0,1,58.08,97.78Z"/>
        <path class="cls-3" d="M86.29,61.08a3.66,3.66,0,0,0-1.48.67,1.55,1.55,0,0,0-.62,1.5l0,.14.13-.07a19.15,19.15,0,0,1,4.31-1.51c1-.21,1.58-.64,1.58-1.22v-.11h-.12A19.32,19.32,0,0,0,86.29,61.08Zm2.32.52a18.8,18.8,0,0,0-4.22,1.46A1.41,1.41,0,0,1,85,61.92a3.62,3.62,0,0,1,1.4-.63A19,19,0,0,1,90,60.71C89.91,61.22,89.21,61.47,88.61,61.6Z"/>
        <path class="cls-3" d="M62.41,66.27c.16-.22.19-.43.08-.57a.5.5,0,0,0-.47-.13,2.1,2.1,0,0,0-1.22.48,1.07,1.07,0,0,0-.25,1.28l0,.06h.07A2.94,2.94,0,0,0,62.41,66.27Zm-1.71.88a.88.88,0,0,1,.26-.94A1.85,1.85,0,0,1,62,65.79h.1a.22.22,0,0,1,.17,0h0c.06.07,0,.21-.07.31A2.78,2.78,0,0,1,60.7,67.15Z"/>
        <path class="cls-3" d="M93.38,58.23h0a.42.42,0,0,0,0-.33.49.49,0,0,0-.31-.29.91.91,0,0,0-.61,0h0c-.43.11-1,.32-1.13.86l0,.11.11,0a3.27,3.27,0,0,0,.54,0,2.79,2.79,0,0,0,1.15-.24A.49.49,0,0,0,93.38,58.23Zm-.18-.12a.43.43,0,0,1-.18.11,2.68,2.68,0,0,1-1.46.2c.11-.26.41-.44.94-.58h0a.8.8,0,0,1,.48,0,.31.31,0,0,1,.17.17A.22.22,0,0,1,93.2,58.11Z"/>
        <path class="cls-3" d="M63.2,64,64,64a7.76,7.76,0,0,1,2.15.31,1.12,1.12,0,0,0,.36,0,2.6,2.6,0,0,0,.4,0,21.39,21.39,0,0,0,3.82-.9l.08,0v-.75l-.07,0-2.66-1.06-2.67-1.07c-.34-.14-.71-.29-1.1-.41a6.93,6.93,0,0,0-2.79-.27,2.15,2.15,0,0,0-.84.2A1.45,1.45,0,0,0,60,61.1a2.12,2.12,0,0,0,.44,1.73A3.91,3.91,0,0,0,63.2,64Zm-3-2.83a1.26,1.26,0,0,1,.63-.91,1.84,1.84,0,0,1,.76-.18,6.06,6.06,0,0,1,.73,0,6.58,6.58,0,0,1,2,.3c.39.12.75.26,1.09.4L68,61.79l2.6,1v.44a20.27,20.27,0,0,1-3.72.87,1.43,1.43,0,0,1-.65,0A8.26,8.26,0,0,0,64,63.81l-.8-.05a3.66,3.66,0,0,1-2.66-1.08A1.89,1.89,0,0,1,60.16,61.15Z"/>
      </g>
    </g>
  </g>
</svg>
