<svg xmlns="http://www.w3.org/2000/svg" viewBox="0 0 311.87 236.53">
  <defs>
    <style>
      .cls-1 {
        opacity: 0.5;
      }

      .cls-2 {
        fill: none;
      }

      .cls-3 {
        fill: #00305f;
      }
    </style>
  </defs>
  <g id="Layer_2" data-name="Layer 2">
    <g id="Layer_1-2" data-name="Layer 1">
      <g class="cls-1">
        <path class="cls-2" d="M113.91,138.72a.68.68,0,0,0-.39-.15l-.24,0a1.17,1.17,0,0,0-.84.59,2,2,0,0,0,.45,1.78l.21.31a6.94,6.94,0,0,1,.71,1.16,4.86,4.86,0,0,0,1-2.65v-.16a1,1,0,0,1-.4-.23,2,2,0,0,1-.29-.37A1.28,1.28,0,0,0,113.91,138.72Z"/>
        <path class="cls-2" d="M152.27,107.72a40.92,40.92,0,0,1,9.53-3.63,6.64,6.64,0,0,0,3.29-2.19l3.23-3.27a5.69,5.69,0,0,0,1.8-2.69,3,3,0,0,0-.42-.06,7.28,7.28,0,0,0-2.39.41,65.28,65.28,0,0,0-13.8,5.44c-3.13,1.79-7.22,4.82-9.27,9.24a34.87,34.87,0,0,0,3.75-1.28C149.44,109.09,150.88,108.39,152.27,107.72Z"/>
        <path class="cls-3" d="M200.55,140.56a2.11,2.11,0,0,0,.66-.05,1.15,1.15,0,0,0,.85-1,.74.74,0,0,0-.46-.77l-3.21-1.48-3.46-1.6a2.9,2.9,0,0,0-2.45-.28,1.18,1.18,0,0,0-.6.78,1,1,0,0,0,.23.89l2.53,1.12,4.45,1.94A4.34,4.34,0,0,0,200.55,140.56Z"/>
        <path class="cls-3" d="M201.44,127.22c-2.34-1.15-4.71-2.32-7.05-3.51-.61-.28-2.45-1.15-3.66-.34l-.11.08v.13c.1.88,1,1.44,1.84,1.87,1.57.83,3.16,1.64,4.75,2.47l3.1,1.6a3.42,3.42,0,0,0,1.39.44,1.34,1.34,0,0,0,1-.28.83.83,0,0,0,.33-.81C202.94,128.22,202.14,127.56,201.44,127.22Z"/>
        <path class="cls-3" d="M146.11,135.33l-.18-.05a2.18,2.18,0,0,0-2.3.82,2.65,2.65,0,0,0,0,2.12c.25,1,.52,1.94.79,2.91l.61,2.23h0a7.24,7.24,0,0,0,1.24,2.78,3.78,3.78,0,0,0,2.54,1.32,2.53,2.53,0,0,0,.67,0l.35-.06-.15-.28a35.94,35.94,0,0,1-3.52-11.59Z"/>
        <path class="cls-3" d="M153.11,126.18a2,2,0,0,0-1.35-.48,1.23,1.23,0,0,0-.92.36,1.14,1.14,0,0,0-.32.93,7.2,7.2,0,0,0,.75,3.11c1.33,3.24,2.65,6.48,4,9.75l0,.07a6.38,6.38,0,0,0,1.54,2.47,3.63,3.63,0,0,0,2.1.87,2.72,2.72,0,0,0,1.23-.19l.25-.12-.13-.21A56.41,56.41,0,0,1,154,127.91,3.1,3.1,0,0,0,153.11,126.18Z"/>
        <path class="cls-3" d="M166,129.1a3.49,3.49,0,0,0,1.46,1.5,2.07,2.07,0,0,0,.74.19,2.15,2.15,0,0,0,.68-.07,1.18,1.18,0,0,0,.79-.6l0-.05V130a6.74,6.74,0,0,0-1.43-3.08l-.12-.16a33.13,33.13,0,0,1-5.52-14.68l0-.35-.37.14a3.71,3.71,0,0,0-2,1.62c-.73,1.32-.26,2.85.23,4.18A61.25,61.25,0,0,0,166,129.1Z"/>
        <path class="cls-3" d="M211.67,134.57c.32-8.15-1-15.32-4.07-21.32a33.23,33.23,0,0,0-17.85-16,5,5,0,0,0-3.55,0,1.21,1.21,0,0,0-.73,1.06v.19l.23.06c6.87,1.69,13.05,6.87,16.52,13.84,3.18,6.4,4,13.58,4.75,19.91.29,2.64.6,5.28.92,7.94l.15,1.26c.2,1.75.23,3.87-1.39,4.81-1.28.75-.26,2.37.23,3.15a11.14,11.14,0,0,1,1.24,4c4.1,23.73,8.35,48.26,3.9,72.36-.59,3.27-1.87,5.08-3.93,5.51a8.37,8.37,0,0,1-3-.1c-3.21-.48-6.82-1-9.86-2.43l0-.62c.34-6.61.65-13.18,1-20.47.13-2.42.41-4.91,2.07-6.54l-.18,14.25c0,3.19-.13,7.16,2,10.39a12.58,12.58,0,0,0,7,5l.55.15-.19-.46a138.87,138.87,0,0,1-7.81-26.95c1.59,2.05,2.24,4.63,2.86,7.13.87,3.44,1.76,7,5.14,9.07l.7.43-.25-.69q-2-5.52-4-11l-.72-2a23.77,23.77,0,0,0,6.13,3.35l1.08.4-10.55-11.07L200,199h-.16a19.73,19.73,0,0,0-4.51.75v-.08l0,.08c-2,.64-3.25,1.66-3.6,3l-.18.69q-2.33,9-4.61,18a5.53,5.53,0,0,1-4.34-5.25c0-2.46,1.31-4.71,2.61-6.89l3.61-6q1.74-2.88,3.45-5.75l.7-1.17-1.16.86A28.35,28.35,0,0,0,181,213.13a3.74,3.74,0,0,1-2.37-2.1,5.81,5.81,0,0,1,.88-5.8,21.19,21.19,0,0,1,4.16-3.64,23.3,23.3,0,0,0,4-3.36l.61-.7-1,.32a29.88,29.88,0,0,0-10,5.65c-1.29-1.91-.54-4.42.84-6.11a21.52,21.52,0,0,1,4-3.54c.6-.45,1.23-.92,1.81-1.4a23.51,23.51,0,0,0,7.94-11.9l.35-1.24-.87,1a205.59,205.59,0,0,1-15.08,16.1,161.67,161.67,0,0,0-6.36-49l0-.12-.14-.05a1.39,1.39,0,0,0-1.23.1,2.86,2.86,0,0,0-1,2.57q2.7,23.79,5.4,47.61l.18,1.59c.75,6.66,1.67,15,7.19,21.14a46,46,0,0,0,8.28,6.73,54.82,54.82,0,0,1,7.21,5.63l.08.07.11,0,6.79.77,6,.69c.17.49.31,1,.45,1.5l.23.8.36-.33c3.35-2.92,4.3-7.19,5-11.32a177.67,177.67,0,0,0-.85-62C213.79,162.75,211.67,134.57,211.67,134.57Zm-10.27,86a1.94,1.94,0,0,1,.5.73,31.15,31.15,0,0,1,1.84,5.47.91.91,0,0,1-.36,0,2.4,2.4,0,0,1-1.2-1.17,13.69,13.69,0,0,1-1.55-5.13A.94.94,0,0,1,201.4,220.6Zm-7,7.75c-2.92-1.59-5.56-4.61-4.9-7.8a112.5,112.5,0,0,1,4.62-16.27c-1,7.93-1.68,16.05.54,23.89l.1.36Z"/>
        <path class="cls-2" d="M114.16,139a1.28,1.28,0,0,0-.25-.3.68.68,0,0,0-.39-.15l-.24,0a1.17,1.17,0,0,0-.84.59,2,2,0,0,0,.45,1.78l.21.31a6.94,6.94,0,0,1,.71,1.16,4.86,4.86,0,0,0,1-2.65v-.16a1,1,0,0,1-.4-.23A2,2,0,0,1,114.16,139Z"/>
        <path class="cls-2" d="M152.27,107.72a40.92,40.92,0,0,1,9.53-3.63,6.64,6.64,0,0,0,3.29-2.19l3.23-3.27a5.69,5.69,0,0,0,1.8-2.69,3,3,0,0,0-.42-.06,7.28,7.28,0,0,0-2.39.41,65.28,65.28,0,0,0-13.8,5.44c-3.13,1.79-7.22,4.82-9.27,9.24a34.87,34.87,0,0,0,3.75-1.28C149.44,109.09,150.88,108.39,152.27,107.72Z"/>
        <path class="cls-2" d="M97.51,180.58c2.21-.45,4.67-.17,5.17,1.44l.08.28-.34,0-2,.11-1.13.07a2.69,2.69,0,0,1,1,1.71,8.18,8.18,0,0,1,2.21-.14,7.94,7.94,0,0,1,3.06.81l.49.25-.52.19c-1.59.57-3.26,1.15-5.19,1.81,1.93,0,3.63.07,5.27.22l.21,0a12.59,12.59,0,0,1,1-1.71,20.36,20.36,0,0,1,2.31-2.52,14.54,14.54,0,0,0,2.79-3.32,532.66,532.66,0,0,1,45.57-69.77,4.87,4.87,0,0,0-3.31.3l-11.12,3.77c-5.68,1.93-10.21,6.14-12,11.07l6-2.94,6.74-3.32a5.39,5.39,0,0,1,3.69-.5,1.44,1.44,0,0,1,.95.94l.05.16-.15.1a92.93,92.93,0,0,1-20.29,9.49c-.4,1.38-.81,2.93-.15,4.28a3.21,3.21,0,0,0,2.21,1.54,2.16,2.16,0,0,0,1.77-.34,8.7,8.7,0,0,1,5.76-1.85H138l0,.22c.13,1.5-1.6,2.51-2.92,3.14-3.5,1.67-7,3.36-10.53,5.06l-.33.15-.1-.31c-.39-1.2.42-2.31,1.14-3.28l.33-.47a2.87,2.87,0,0,0,.56-2.36,1.31,1.31,0,0,0-.68-.78c-1.22-.62-2.7.56-3.59,1.76-10.41,14.24-20.21,29.1-29.13,44.18C93.72,181.19,95.91,180.9,97.51,180.58Zm15.29-26.17c2.2-1.39,4.44-2.77,6.65-4.13,1.33-.85,3.11-1.39,4.11-.39l.15.15-.13.15c-1.92,2.38-4.85,3.95-7.68,5.47a4.14,4.14,0,0,1-2.09.63l-.25,0a1.48,1.48,0,0,1-1.11-1A.75.75,0,0,1,112.8,154.41Zm-1.89,6.6a4.15,4.15,0,0,1,2.69-1l.09,0a.8.8,0,0,1,.49.51,1.69,1.69,0,0,1-.62,1.4c-1.62,1.47-3.38,2.92-5.66,3l-.31,0v-.26a1.85,1.85,0,0,0-.33-1l-.11-.18Z"/>
        <path class="cls-3" d="M250.57,114.55l-.37.08v-.34c-.08-1.6,1.76-2.35,3.38-2.83h0a62.15,62.15,0,0,0,23.08-12.21c1.52-1.27,3.79-2.82,6-1.66l.33.17-.24.23A70,70,0,0,1,250.57,114.55Z"/>
        <path class="cls-3" d="M202.48,106.91c.63,3.27,5.77,22.86,7.63,29.29,3.87,1.49,7.85,3,12,3.3,3.8.3,8.71-.59,11.09-4,1-1.36,1.93-2.74,2.89-4.13l2.45-3.5-.48-.32c-1.47,1.65-4.41,2-6.7.86a13,13,0,0,1-2-1.35,13.11,13.11,0,0,0-2.13-1.41,4.7,4.7,0,0,0-3.31-.36,1.83,1.83,0,0,0-1.28,1.17l-.06.2.21.11c2.3,1.17,4.3,2.27,5.56,4s1.38,4.19-.4,5.14a6,6,0,0,1-2.73.48,29.89,29.89,0,0,1-13.74-3.3,2.51,2.51,0,0,1-1.26-1,1.68,1.68,0,0,1,.17-1.17c2.23-5.14,8.32-8.61,14.79-8.44a41.46,41.46,0,0,1,9.78,1.84c2,.56,4.14,1.13,6.23,1.49,5.42.91,12-.18,13.68-4.7a11.34,11.34,0,0,0,.35-1.13,5,5,0,0,1,.91-2,2.25,2.25,0,0,1,1.94-.55,1.29,1.29,0,0,1,.95.64l.12.22.24-.06,10.21-2.4,10.56-2.48-.16-.49q-8.74.7-17.51,1.38l-6.13.47c-5.15.41-8.38-.45-9.87-2.64l-.2-.3-.25.22a2.59,2.59,0,0,0-.73,2.74,17.85,17.85,0,0,0-5.65-.94h-.35l.11.3c.78,2.21,3.53,2.48,6.2,2.75,2.44.24,5,.49,5.9,2.23a2.15,2.15,0,0,1,.11,1.85,3.41,3.41,0,0,1-2.12,1.9,12.46,12.46,0,0,1-5.72-.09q-11.85-1.92-23.69-3.9L228,91a8.79,8.79,0,0,1,4.32,3.87,6.37,6.37,0,0,1,.54,5.44l-.14.33.41,0a2,2,0,0,0,1.75-.76,1.65,1.65,0,0,0,.31-1.47.68.68,0,0,1,.37.14,2.71,2.71,0,0,1,.8,2.09c-.25,5.17-1.3,12.21-7.38,13.54l.15.5c16.8-.85,32.16-9.12,40.09-21.58,1.25-1.93,2.45-4.25,1.88-6.8a5.94,5.94,0,0,0-2.83-3.7,4.93,4.93,0,0,0-2.45-.74,93.81,93.81,0,0,1,8.88-5.85c2.21-1.34,4.5-2.73,6.64-4.21,6.52-4.52,10.32-9.24,11.62-14.42,1.82-7.33-2.4-14.16-7.39-17l5-4.77c2.85-2.72,5.69-5.44,8.55-8.15,4.68-4.46,10-9.52,12.49-15.87l.29-.73-.73.41c-7.48,4.15-14.75,8.62-21.6,13.28a5.69,5.69,0,0,0-2.39-4l-.29-.2-.17.31c-2.4,4.34-4.87,8.81-7.33,13.23,1.7-8.52,3.31-17.29,2.69-26.29l-.57-.07a212,212,0,0,1-6.77,31.74c-1.2-6.41.66-12.68,2.46-18.76S280.89,8,279.63,1.38L279.37,0l-.73,3.19c-.9,4-1.81,8-2.7,11.92l-.61-8.43-.57-.07c-.36,3.74-.73,7.46-1.1,11.19-.31,3.19-.63,6.39-.94,9.6A68.11,68.11,0,0,0,266.8,9.75l-.54.11c3.9,14.63,7.05,29.8-.63,40.8q.36-10.32.71-20.67c.17-4.7-.25-10.45-5.07-13.22-5.24-3-11.73.1-14.75,4.66-6.45,9.72-3.38,22.72.45,35.25A8.28,8.28,0,0,0,238.3,58c-2.21,2-3.13,4.85-3.79,7.65a61.11,61.11,0,0,0-1.38,16,65.09,65.09,0,0,0-9.71-18.45l-1-1.39.53,1.56L226.54,74q1.78,5.2,3.55,10.4c.37,1.12.32,2.71-.35,3.29a1,1,0,0,1-1,.16c-2.94-.78-4.85,1.92-5.66,4.72l-5.9,19.53-3-3.89c-1-1.34-2.07-2.68-3.09-4-.49-.66-2.24-2.76-4-2.16-.79.29-2.11,3-2.43,3.66-.1.21-.19.41-.3.61a1.76,1.76,0,0,1-1.4.78A.77.77,0,0,1,202.48,106.91Zm53.68-40.64c-.63-2.65-1.26-5.29-1.9-7.94q-1-4.23-2-8.46l-.06-.27c-1.59-6.64-3.24-13.5-3.1-20.14h0c.09-4.73,1.34-7.95,3.82-9.83a8.25,8.25,0,0,1,6.57-1.15A6.16,6.16,0,0,1,263.38,21c-2,3.32-1.7,7.42-1.4,11.38.07,1,.15,1.93.18,2.88.2,5.57-.83,11.06-1.82,16.36a2.89,2.89,0,0,1-.82,1.82,4.06,4.06,0,0,1-2.06.55c-1,.09-2,.19-2.52,1l0,0v0a1,1,0,0,0,.35.88,3,3,0,0,0,2.11.57l.2,0a3.79,3.79,0,0,1,1.8,0,1,1,0,0,1,.35.23A1.53,1.53,0,0,1,260,58,14.09,14.09,0,0,1,256.16,66.27Zm15.73-21.88a5.86,5.86,0,0,1,.24-3.47,1,1,0,0,1,.42-.58.59.59,0,0,1,.32-.06A3.74,3.74,0,0,1,271.89,44.39Zm12.59-6.8h0a.45.45,0,0,1-.13-.11,1.39,1.39,0,0,1,0-1.2c.44-.93.87-1.87,1.3-2.81s.92-2,1.39-3a7.51,7.51,0,0,1,1.54-2.5,9.21,9.21,0,0,1,2.2-1.42l.2-.11a68.37,68.37,0,0,0,15.41-10.58c.21.89-.61,1.82-1.29,2.48l-7.69,7.19Q290.95,31.53,284.48,37.59Zm-43.82,67.16a24.81,24.81,0,0,1,2.43-2.26c.55-.47,1.13-1,1.66-1.46h0a30.1,30.1,0,0,0,4.12-5.46l.24-.38a43.24,43.24,0,0,1,6.81-8.58,10.1,10.1,0,0,1,5.53-2.84,6.56,6.56,0,0,1,3.12.43,4.59,4.59,0,0,1,2.52,2.14c.93,1.94-.24,4-1.37,5.58a47.42,47.42,0,0,1-11.16,11.63,31.14,31.14,0,0,1-15.66,5.73A6,6,0,0,1,240.66,104.75Zm-.26-17.12a5.16,5.16,0,0,1,1.92-2h0l7.32-5.5,7.54-5.66.07-.08a24.61,24.61,0,0,1,2.1-3.63A12.56,12.56,0,0,0,264,75.35l.46.27,0-.46c-.08-1-.23-2-.38-3a28.21,28.21,0,0,1-.42-4.3c0-6.87,5.13-12.24,10.8-17.59l5.12-4.77c1-.92,2.14-1.82,3.45-1.52a4.15,4.15,0,0,1,2,1.26,12.8,12.8,0,0,1,2.37,14.11c-2,4.65-6.2,8.1-10,10.87A109.76,109.76,0,0,1,242.52,87l-.38.1.28.29c1.51,1.57,4,1.48,6,1.16A48.27,48.27,0,0,1,240,101.05c0-1.88.08-3.76.11-5.65s.08-4.07.13-6.1A4.42,4.42,0,0,1,240.4,87.63Zm-7,1.58a2.12,2.12,0,0,1,1.22.48,1.6,1.6,0,0,1,.67,1.17h0c-.14.64-.3,1.28-.45,1.9A3.79,3.79,0,0,1,233.36,89.21Zm6.91-28.12a4.37,4.37,0,0,1,1.24-2,2.05,2.05,0,0,1,2.2-.17,26.56,26.56,0,0,1,8.34,8.27c.66,1.1,1.3,2.39,1,3.53A4.71,4.71,0,0,1,252,72.45,99.56,99.56,0,0,1,241,83.3a1.58,1.58,0,0,1-1.08.53c-.84,0-1.29-1.18-1.42-1.87A37.65,37.65,0,0,1,240.27,61.09ZM208.86,124.9a1,1,0,0,0,.46,0,1.91,1.91,0,0,0,.43-.21,1.53,1.53,0,0,1,.35-.16.63.63,0,0,1,.41,0,.91.91,0,0,1,.22.12,1.15,1.15,0,0,1,.5.9,2,2,0,0,1-1.16,1.41l-.32.19a5.91,5.91,0,0,0-1.14.75,4.89,4.89,0,0,1,.19-2.84Zm-2.09-16a8.19,8.19,0,0,0,1.26-2.85l.42.13a6.79,6.79,0,0,1,2.83,2.86l.13.2c1.12,1.8,2.25,3.59,3.35,5.37a4,4,0,0,1,0,4.18,7.8,7.8,0,0,1-3.41,2.88l-.39.2c-1.12.55-2.38,1.18-2.83,2.32v.1a.57.57,0,0,0,.11.27,1.56,1.56,0,0,1-.34-.72c-.65-2.84-1.3-5.66-2-8.51l0-.08a8.76,8.76,0,0,1-.31-3.81A8.48,8.48,0,0,1,206.77,108.9Z"/>
        <path class="cls-3" d="M188.5,106l-.45,1a14.56,14.56,0,0,0-.78,6.31c0,.88,0,1.79,0,2.67-.45,8.75-7.34,16-15,23.22-1.57,1.47-3.14,2.8-5.06,3.14a67.1,67.1,0,0,0,18.39-34.53.33.33,0,0,0,.12,0,1.58,1.58,0,0,0,1.7-.23,2.08,2.08,0,0,0,.12-2.27A18.39,18.39,0,0,0,180.5,97l-.16-.1-.17.09a1.21,1.21,0,0,0-.7.89c-.14.75.39,1.77,1.63,3.11,3.81,4.14,1.46,10.07-.63,14.17-14.06,27.21-37.05,50-59.34,72l-2.25-4.54-.3.38c-1.72,2.19-3.46,4.74-2.41,7.26a4.07,4.07,0,0,1-.34,3.59,5.16,5.16,0,0,1-2.41,2.11,6.38,6.38,0,0,0-1-7.2l-.43-.47-.09.58a71.17,71.17,0,0,1-10,26.49,16.6,16.6,0,0,1-3.23,4c-3.24,2.66-7.93,3.17-12.68,3l0-.54c.26-3.88.52-7.88.82-11.81.3-4.56,1.73-12.13,7.75-13.81a15.15,15.15,0,0,0-5.76,7.4l-.49,1.45,1-1.24A20.08,20.08,0,0,1,96,198.61a26.59,26.59,0,0,0-8.56,13.24L87,213.56,88,212a56.74,56.74,0,0,1,9.74-11.3L89.9,213.08a3.34,3.34,0,0,0-.34,3.29,1.56,1.56,0,0,0,1.22.64H91l.08-.16A106.12,106.12,0,0,1,104.37,196q-5.58,11.67-11.21,23.33l-.6,1.25,1.09-1a28.12,28.12,0,0,0,8.14-12.55c2.74-8.91,7.67-17.28,12.44-25.37,3.27-5.6,6.58-11.23,9.89-16.83,1.66,3.4,3.42,6.74,5.24,9.94l.29.53.24-.54c1.08-2.39-.1-4.87-1.25-7.26-.88-1.83-1.79-3.73-1.7-5.61a11,11,0,0,1,1.71-4.59l0-.1a282.41,282.41,0,0,1,39.39-53.53c3.79-4.09,8.47-8.28,14.43-8.29a2.46,2.46,0,0,0,1.68-.61c1.24-1.13,1.16-3.41,1.11-4.08a4.13,4.13,0,0,1,1.2-3.52,1.61,1.61,0,0,1,1.34-.29,6.26,6.26,0,0,0,4.52-1,5.19,5.19,0,0,0,2.49-4c.11-2.79-2.22-5.58-5.69-6.79l-.32-.11-.07.28c-.53,2-1.13,3.84-2.81,4.88a4.31,4.31,0,0,1-3.58.22A2,2,0,0,1,181,78.93c-.31-2.36-2.9-4.34-5.7-4.3h-.1a2.27,2.27,0,0,0-1.36,1.16,3,3,0,0,0,.06,2.63,9.19,9.19,0,0,0,1.73,2.2c.37.38.74.77,1.07,1.18a6.37,6.37,0,0,1,.38,7.09,8.27,8.27,0,0,1-6.5,4.34c-11.07,1-19.79,6.63-25.16,11.14-6.73,5.66-11.9,12.51-16.88,19.16,0,0-14.72,20.28-19.54,25.77h0A167.32,167.32,0,0,0,89.31,182c-1.37,3-3.42,6.54-7.17,6.62h-.73L82,189a10.23,10.23,0,0,0,5.17,1.92,48,48,0,0,0-1.68,31l.14.5c-1.54-.06-3.07-.18-4.56-.32l-1-.09.75.53a51,51,0,0,0,8.88,5,10.88,10.88,0,0,0,3.75,1.09c4.64.31,7.49-4.07,9.24-7.4,8.87-16.95,22.9-31.63,36.47-45.83,9-9.41,18.28-19.13,26.05-29.47.63-.87,1.89-1.23,3.1-1.59.31-.09.62-.18.91-.28,4.46-1.39,7.39-4.66,10.22-7.81a37.6,37.6,0,0,1,5.89-5.66,1.76,1.76,0,0,1,1.54-.46c.46.16.62.69.71,1.14,1,4.65,1.76,9.46-1.26,12.89q-4.78,5.5-9.62,11l-.63.72,1-.34c5.76-2,10.22-6.45,11.65-11.56A58.34,58.34,0,0,1,190.33,154l3.94,39.43v.09l.08.07a1.07,1.07,0,0,0,1.09.2,2.47,2.47,0,0,0,1.24-2.31Zm-83.36,82.9a24.57,24.57,0,0,1-1.25,2.45c-.63,1-2.39,3.47-5.29,3.62a2.35,2.35,0,0,1-1.61-.49.53.53,0,0,1-.2-.51,1.55,1.55,0,0,1,.58-.69,56.34,56.34,0,0,1,8.25-5.4C105.45,188.25,105.3,188.59,105.14,188.93Zm48.37-87.2a65.28,65.28,0,0,1,13.8-5.44,7.28,7.28,0,0,1,2.39-.41,3,3,0,0,1,.42.06,5.69,5.69,0,0,1-1.8,2.69l-3.23,3.27a6.64,6.64,0,0,1-3.29,2.19,40.92,40.92,0,0,0-9.53,3.63c-1.39.67-2.83,1.37-4.28,2a34.87,34.87,0,0,1-3.75,1.28C146.29,106.55,150.38,103.52,153.51,101.73Zm-31.58,34.16c.89-1.2,2.37-2.38,3.59-1.76a1.31,1.31,0,0,1,.68.78,2.87,2.87,0,0,1-.56,2.36l-.33.47c-.72,1-1.53,2.08-1.14,3.28l.1.31.33-.15c3.5-1.7,7-3.39,10.53-5.06,1.32-.63,3.05-1.64,2.92-3.14l0-.22h-.26A8.7,8.7,0,0,0,132,134.6a2.16,2.16,0,0,1-1.77.34A3.21,3.21,0,0,1,128,133.4c-.66-1.35-.25-2.9.15-4.28a92.93,92.93,0,0,0,20.29-9.49l.15-.1-.05-.16a1.44,1.44,0,0,0-.95-.94,5.39,5.39,0,0,0-3.69.5l-6.74,3.32-6,2.94c1.75-4.93,6.28-9.14,12-11.07l11.12-3.77a4.87,4.87,0,0,1,3.31-.3A532.66,532.66,0,0,0,112,179.82a14.54,14.54,0,0,1-2.79,3.32,20.36,20.36,0,0,0-2.31,2.52,12.59,12.59,0,0,0-1,1.71l-.21,0c-1.64-.15-3.34-.22-5.27-.22,1.93-.66,3.6-1.24,5.19-1.81l.52-.19-.49-.25a7.94,7.94,0,0,0-3.06-.81,8.18,8.18,0,0,0-2.21.14,2.69,2.69,0,0,0-1-1.71l1.13-.07,2-.11.34,0-.08-.28c-.5-1.61-3-1.89-5.17-1.44-1.6.32-3.79.61-4.71-.51C101.72,165,111.52,150.13,121.93,135.89ZM99.08,184.43a6.35,6.35,0,0,1-2.35.48,23.93,23.93,0,0,1-3.74-.1A11,11,0,0,1,99.08,184.43Zm-7.19,3.44a6.56,6.56,0,0,1,3.67-.78,6.92,6.92,0,0,1,2.07.46l-.39.13h.1A19.92,19.92,0,0,0,90,193.22h0a.73.73,0,0,1-.42-.49A4.59,4.59,0,0,1,91.89,187.87Zm1.56,38.55a4,4,0,0,1-3.48-2l1.46-.06,1.79-.08,1.54-.07a6.53,6.53,0,0,1,2.15.17A3.82,3.82,0,0,1,93.45,226.42Zm26-36.07a2.69,2.69,0,0,1-1.18-1.73.4.4,0,0,1,0-.22,1.9,1.9,0,0,1,1,.94A1.51,1.51,0,0,1,119.46,190.35Z"/>
        <path class="cls-3" d="M94.42,168.83l-19.91-.17c-.25-1.26,1.25-2.72,2.93-3.43a17.9,17.9,0,0,1,5.09-1.12l.84-.1A77.58,77.58,0,0,0,102,159.32c1.79-.7,3.76-1.6,4.76-3a5.5,5.5,0,0,1,.73-.8l4.32-5.79-1.22,0-8.7-.37L93.38,149l-.16-1a93.38,93.38,0,0,1,11.24-4.71,6.25,6.25,0,0,1,2-.48,35,35,0,0,0,7-.94c.85-.17,1.69-.35,2.53-.5s1.55-.24,2.25-.31l5.3-7.11c-.35-1-1.71-1.5-1.93-2.41-.35-1.43.51-3.2.24-4.42a3.14,3.14,0,0,0-4.24-2.58l-3,.68a9.63,9.63,0,0,0-1.58.49l-12.83,5c6.26-5.17,10.67-11.43,12.49-17.77l.46-1.6-1.1,1.51a211.65,211.65,0,0,1-25.44,28.9,5.7,5.7,0,0,0,.24-3.71A3.92,3.92,0,0,0,82.18,136l-.19.05a77.24,77.24,0,0,0-25.4,12.52l.33-.49c1.7-2.51,3.38-5,5.09-7.51l1.32-1.93-1.87,1.71c-8,7.35-16.73,14.58-25.87,21.49a45.62,45.62,0,0,1-29.66,8.48c7.13-1.41,15-3,22.88-4.56h.07l.07,0a2,2,0,0,0,1-1.25,1.54,1.54,0,0,0-.65-1.62,6.32,6.32,0,0,0-3.68-.62,62.56,62.56,0,0,0-9.26,1.37c-5.11,1-9.94,2-14.1.82a1.82,1.82,0,0,0-1.7.51c-.57.54-.83,1.39-.27,1.87.81.75,2.38.65,3.79.51,5-.59,9.85-1.15,14.56-1.68l-13,2.87c-1.39.31-3.3.86-3.76,2a1.13,1.13,0,0,0,.25,1.31c.77.75,2.68,1,4.23.86,3.56-.26,7.11-.58,10.62-1,.45,1.8-.21-.83.24,1l-9.93,4.2-1,.42,1,0A33.59,33.59,0,0,0,18.83,176l.61,1-2.85,2.79-.66.64,1-.27,3.08-.87,2.48-.69c-.64,1.76-3.25,2.82-6,3.94s-5.89,2.41-6.72,4.57l-.17.47,6.88-2.44c-2,1.56-3.11,3.71-2.79,5.57l.09.5.56-.49a82.77,82.77,0,0,1,13.09-9.9c5.56-3.12,11.34-4.7,16.28-4.45,4.76.25,9.74-1.37,14.55-2.94s9.82-3.2,14.46-2.86c7.53.59,15.22.86,23,.83h0Zm27.72-34.62a7.83,7.83,0,0,1-3.22,1.77l-.31.09a.9.9,0,0,1-.54,0h0c-.2-.1-.06-.45.12-.73a6.75,6.75,0,0,1,3.47-2.81C122.2,133.14,122.8,133.53,122.14,134.21Zm-3-7a1.89,1.89,0,0,1,1,0s.06,0,.05.15-.12.21-.22.31a90.15,90.15,0,0,1-8.5,8.55,20.16,20.16,0,0,1-3.38,2.51,24,24,0,0,1-4,1.65L93.67,144a29.33,29.33,0,0,0-6.81,3.06h0a5,5,0,0,1-1.4.75l-.21,0C92.11,138,105.35,129.93,119.1,127.17ZM61,150.28a38.2,38.2,0,0,1,9.42-5.65c4.24-2,8.56-3.75,12.85-5.3a10.14,10.14,0,0,1-1.69,7.78,4.63,4.63,0,0,1-2.54,2,2.06,2.06,0,0,1-.78.05c-1.19-.18-1.84,1-2.28,1.71l-.12.21c-.63,1.08-2.14,1.87-3.63,2.58l-.22.11-7.2,3.53h0a9.27,9.27,0,0,0-3.37,2.38c0-.11,0-.24,0-.37a2.9,2.9,0,0,0,0-.5c0-.66-.61-1.18-1.53-1.37a3.62,3.62,0,0,0-2.21.24C57,155.17,58.88,152.22,61,150.28Zm-7,7.66a1.66,1.66,0,0,1,.15,1.55A3,3,0,0,1,52.89,161,3.11,3.11,0,0,1,54,157.94Zm-3.48-3.15a8.88,8.88,0,0,1,2.8-2,4.61,4.61,0,0,1-1.63,2.9,8.05,8.05,0,0,1-3.37,1.8A20.08,20.08,0,0,1,50.5,154.79Zm-5.84,2.94a.88.88,0,0,1,.42.59,1,1,0,0,1-.32.92l0,0a3,3,0,0,1-1.36,1A4,4,0,0,1,44.66,157.73ZM27,176.51l-.15.07a3.55,3.55,0,0,1-1.5.42.79.79,0,0,1-.6-.24.29.29,0,0,1,0-.31,1.38,1.38,0,0,1,.52-.38,12.38,12.38,0,0,1,4.46-1.54C29.48,175.18,28.61,175.82,27,176.51Zm10.66-11.26a83,83,0,0,0,12.62-6.42c.28,1-.43,2.17-1.32,3a14.73,14.73,0,0,1-4.13,2.44,83.64,83.64,0,0,1-11.17,4C33.77,167.08,35.87,166,37.68,165.25Zm31.85,1.47a3.72,3.72,0,0,1-1.08.44,6.87,6.87,0,0,1-3-.07l-.51-.13v.43c0,.81-1.28,1.54-2.35,2a66.58,66.58,0,0,1-13.76,4.1,129.33,129.33,0,0,1-13.19,1.91c2.92-2.25,6.08-4.56,9.63-7a15.85,15.85,0,0,1,4.08-2.24,16.06,16.06,0,0,1,3.84-.63c5-.42,10.24-.72,16.15-.92a.84.84,0,0,1,.91.6A1.43,1.43,0,0,1,69.53,166.72Zm-4-6.15a1.55,1.55,0,0,1-.86-.35.3.3,0,0,1,0-.35.3.3,0,0,1,.15-.11h.07l0,0c5.47-2.52,11.23-4.88,17.13-7a2.61,2.61,0,0,0,2.25.87,10.5,10.5,0,0,0,2.42-.37l.29-.07.27-.06a24.47,24.47,0,0,1,6.9-.51c.5,0,1.14.09,1.33.43a.49.49,0,0,1-.08.54,2.29,2.29,0,0,1-1.21.77,7.44,7.44,0,0,1-1.68.2c-.36,0-.73,0-1.11.07-1.1.14-2.42.66-2.72,1.51s.5,1.47,1.46,1.61a7.62,7.62,0,0,0,2.79-.29l.24,0c2.27-.52,4.54-1,6.81-1.54-.21.81-1.39,1.6-3.52,2.37a66.9,66.9,0,0,1-12.46,3.62C77.49,162.84,71.32,161.77,65.53,160.57Z"/>
      </g>
    </g>
  </g>
</svg>
