<svg xmlns="http://www.w3.org/2000/svg" viewBox="0 0 86.12 80.13">
  <defs>
    <style>
      .cls-1 {
        opacity: 0.38;
      }

      .cls-2 {
        fill: #00305f;
      }
    </style>
  </defs>
  <g id="Layer_2" data-name="Layer 2">
    <g id="Layer_1-2" data-name="Layer 1">
      <g class="cls-1">
        <g>
          <path class="cls-2" d="M17.14,45l1.56-9.52a2.64,2.64,0,0,0-2.95,2.15.52.52,0,0,1-.19-.89c-.32-.26-.75.14-.9.48-.7,1.71-1.29,3.9.32,5.14-4.86-2.6-8.22-7.16-8.83-12a2.94,2.94,0,0,1,.38-2.23,1.78,1.78,0,0,1,2.33-.39c-.91-1.89-2.27-3.6-3.33-5.43a8.66,8.66,0,0,1-1.42-5.86,5.06,5.06,0,0,1,4.62-4C8,10.58,7.24,8.64,6.48,6.7A15.43,15.43,0,0,1,5,.26C6.67,2.58,8.22,5,9.64,7.39a1.73,1.73,0,0,1,1.29-1c.12,1.87.24,3.73.37,5.59a34.45,34.45,0,0,1,3-8.76A68.8,68.8,0,0,0,11.83,14c2.84-3.52,1.44-8.62,4.08-12.25-.38,1.72-.76,3.45-1.15,5.16l1.69-3L13.91,11a22,22,0,0,1,4.62-5c-3.15,3.73-6.45,8-5.49,12.57.94-2.17,1.87-4.35,2.81-6.53.6-1.39,1.52-3,3.29-3.16,2-.15,3.37,1.71,3.62,3.38.56,3.9-2.39,7.41-5.2,10.49a2.56,2.56,0,0,1,2.51,1.53,4.64,4.64,0,0,1,.05,2.76,19.92,19.92,0,0,1-2.2,5.6,21.21,21.21,0,0,1,6-4.68l-5.08,5.25c-.4.42-.67,1.23,0,1.34,1,.17,1.08,1.28.94,2.1q-.49,3.39-1,6.8l3.09-1.59c.42-.22,1-.41,1.37-.09s.15.57.18.87.37.65.67.49a36.42,36.42,0,0,1,5.61-6.39,15.2,15.2,0,0,1,8.21-3.64c2-.19,3.2-2.43,2.07-3.87a7.11,7.11,0,0,1-.9-1.1A.79.79,0,0,1,39.38,27a1.75,1.75,0,0,1,1.77,1.34c.08.63,1.18.83,1.78.47a2.56,2.56,0,0,0,1-1.65,2.44,2.44,0,0,1,1.8,2.15,1.87,1.87,0,0,1-2.18,1.57c-.71-.13-1,.73-.95,1.34s-.1,1.45-.83,1.45c-2,0-3.57,1.42-4.81,2.75A92.57,92.57,0,0,0,24,54.06a3.59,3.59,0,0,0-.59,1.57c-.06,1.45,1.58,2.85,1,4.2-.65-1.13-1.24-2.27-1.8-3.42l-3.35,5.68a40.79,40.79,0,0,0-4.09,8.34,9,9,0,0,1-2.65,4.09q2-4.17,4-8.33a34.88,34.88,0,0,0-4.85,7.45c-.56,0-.48-.76-.22-1.17l2.88-4.57A19,19,0,0,0,10.6,72a8.76,8.76,0,0,1,3.3-4.72,7,7,0,0,0-2.84,2,5,5,0,0,1,2.23-2.62c-2.29.28-2.94,2.74-3.07,4.7C10.12,72.71,10,74,10,75.3a15.66,15.66,0,0,1,.59-10.22,3.23,3.23,0,0,1-1.76-.62c1.29,0,2-1.22,2.44-2.22a54.52,54.52,0,0,1,6.56-10.82,14.73,14.73,0,0,1-4.2-.71A3.94,3.94,0,0,1,10.91,48c-.18-1-.34-2-.52-3a2,2,0,0,0,2,1.26c.55,0,1.07-.23,1.62-.24s1.21.33,1.15.8a5.12,5.12,0,0,0-2.26.41,1.2,1.2,0,0,0-.63,1.69,2.12,2.12,0,0,0,.78.55,10,10,0,0,0,4.6,1,.92.92,0,0,0,.58-.16.58.58,0,0,0,.14-.42,5.2,5.2,0,0,0-3.26-4.66c-1.61-.72-3.5-.78-5.24-1.26s-3.46-1.71-3.33-3.23a3.41,3.41,0,0,0,.07-1.14c-.12-.37-.7-.68-1-.42C3.72,37.7,1.9,36.25.06,34.8l6.76,3.86c1,.59,2.4,1.2,3.41.6a.78.78,0,0,1-.28,1,5.76,5.76,0,0,1,2,.53c-1,1-3.13-1.08-4.28-.23A1,1,0,0,0,7.7,42a4.3,4.3,0,0,0,1.76.8Q13.3,43.93,17.14,45m5.53,3.73c-.14-.41.22-.8.47-1.17s.36-.92-.08-1.14-1,.21-1.3.61q-5.19,7.08-9.6,14.55c.31.45,1.09.36,1.68.24s1.43-.09,1.58.42l-1.28.07a.83.83,0,0,1,.53.73,2.64,2.64,0,0,1,1.77.19L14.26,64a18.4,18.4,0,0,1,2.23.06,18.75,18.75,0,0,0-2.78,1.82.5.5,0,0,0-.22.26c-.06.27.37.46.7.43A2.33,2.33,0,0,0,16,65.34c.37-.61.57-1.29,1-1.87s1.29-1.2,1.68-1.93a173.4,173.4,0,0,1,15-23,1.51,1.51,0,0,0-1.26,0l-3.65,1.23a6.26,6.26,0,0,0-4.05,3.89l4.39-2.16c.46-.23,1.24-.34,1.38.09a30.79,30.79,0,0,1-6.69,3.13,2,2,0,0,0,0,1.49,1.08,1.08,0,0,0,1.46.43A2.68,2.68,0,0,1,27,46.13c0,.43-.47.74-.91.95l-3.46,1.66M15.18,31.91l-2.84-5.4A10,10,0,0,0,12.2,25a4,4,0,0,1-2.11.81c.4-.7.93-1.33,1.26-2.06,1-2.14.13-4.58-.73-6.79L9.77,14.8c-.16-.41-.4-.89-.88-1a1.48,1.48,0,0,0-.83.1,4.32,4.32,0,0,0-2.74,3.93,9.35,9.35,0,0,0,1.47,4.67,36.12,36.12,0,0,0,8,9.86,2.26,2.26,0,0,1-2-.58,16.21,16.21,0,0,0,.82,5.33l1.69-3.75a1.62,1.62,0,0,0,.18-.55,1.76,1.76,0,0,0-.3-.91m5.88-17.56a4,4,0,0,0,.24-3.51,2.68,2.68,0,0,0-3.5-1.07c.18,1.57-.88,3-1.62,4.41a24.51,24.51,0,0,0-1.77,5.15,1,1,0,0,0,0,.69c.22.45,1.07.58,1.14,1.06-.07.25-.53.2-.78,0s-.54-.39-.82-.29a.59.59,0,0,0-.34.41,4.72,4.72,0,0,0,.05,3.21L17.24,20a27.34,27.34,0,0,0,3.82-5.64M12.3,36.16a10.47,10.47,0,0,1-.47-2.33A14.19,14.19,0,0,0,11,30.31a3.37,3.37,0,0,0-1.28-1.66,2,2,0,0,0-2.16,0,1.93,1.93,0,0,0-.4,1.92,15.52,15.52,0,0,0,1.69,5.05,10.43,10.43,0,0,0,4,4A2,2,0,0,0,13,37.84c-.17-.57-.47-1.12-.69-1.68m6.1-12.4a8.73,8.73,0,0,0-3.67,1.3,1.61,1.61,0,0,0-.83,1,1.56,1.56,0,0,0,.09.68,32.2,32.2,0,0,0,1.74,4.78.61.61,0,0,0,.3.35c.3.13.62-.13.8-.38A12.5,12.5,0,0,0,19.24,25a1.52,1.52,0,0,0-.1-.79.78.78,0,0,0-.74-.41M37.15,34.9a1.82,1.82,0,0,0,.62-1,2,2,0,0,0-1.07.1,21.76,21.76,0,0,0-4.55,1.79A7.19,7.19,0,0,0,29,39a10,10,0,0,0,1.43-.47A23.91,23.91,0,0,1,35,36.72,2.26,2.26,0,0,0,36.09,36l1.06-1.07M19.27,48a.45.45,0,0,0-.64.18.75.75,0,0,0,.16.65,1.86,1.86,0,0,1,.34.63,1.67,1.67,0,0,0,.48-1c.16.07.32-.07.42-.19l1.78-2.25a3.07,3.07,0,0,0,.66-1.14c.15-.66-.17-1.37.06-2a1.94,1.94,0,0,0-1.56.42l-1.82,1.17a1.4,1.4,0,0,0-.63,1.31A2.69,2.69,0,0,0,19.15,47c.27.35.61.73.58,1.15-.05.08-.2.06-.27,0s-.11-.17-.19-.23M9,7.5A22.19,22.19,0,0,1,5.9,2.08c-.36.24-.24.72-.1,1.1C6.94,6.06,8.1,9,9.24,11.84c.23.09.39-.22.39-.43,0-.71,0-1.42,0-2.12a2.49,2.49,0,0,0-.11-1A3.25,3.25,0,0,0,9,7.5m5,56.55a2.36,2.36,0,0,0-2.15,0,1.59,1.59,0,0,0-.81,1.68c0,.13.23.3.32.19a6.58,6.58,0,0,1,2.64-1.9m2.29-29.6c-.06.26-.11.52-.16.78a1.33,1.33,0,0,0,1.15-1,.75.75,0,0,0-1,.23M12,63.18a7.33,7.33,0,0,0,1.55.08,1.76,1.76,0,0,0,1-.27,3.73,3.73,0,0,0-2.53.19m.59-48.68a.45.45,0,0,0-.06-.28.33.33,0,0,0-.2-.11,1.3,1.3,0,0,0-.28,1.61,2,2,0,0,0,.54-1.22"/>
          <path class="cls-2" d="M10,75.85l-.15-.54a15.74,15.74,0,0,1,.55-10.16,3.31,3.31,0,0,1-1.69-.63l-.19-.14h.24c1.23,0,1.91-1.18,2.36-2.17a54.28,54.28,0,0,1,6.48-10.72,14.66,14.66,0,0,1-4.07-.7,4.1,4.1,0,0,1-2.73-2.74c-.09-.55-.19-1.09-.28-1.64s-.15-.92-.23-1.38l.18,0a1.91,1.91,0,0,0,1.87,1.2,4.31,4.31,0,0,0,.79-.12A5.72,5.72,0,0,1,14,46a1.6,1.6,0,0,1,1,.36.6.6,0,0,1,.21.53v.07h-.08a5,5,0,0,0-2.2.39c-.6.33-1,1-.6,1.58a1.9,1.9,0,0,0,.74.53,9.84,9.84,0,0,0,4.54.95.86.86,0,0,0,.52-.13.48.48,0,0,0,.11-.37A5.15,5.15,0,0,0,15,45.28a14,14,0,0,0-3.16-.82c-.69-.12-1.39-.25-2.06-.43-1.74-.49-3.54-1.74-3.4-3.32,0-.13,0-.26,0-.38a1.64,1.64,0,0,0,0-.73.74.74,0,0,0-.5-.44.43.43,0,0,0-.37.06l-.06.05-.07-.05L2.79,37.07,0,34.85l.12-.12q2.49,1.44,5,2.86l1.76,1c1.47.84,2.55,1,3.3.6l.1-.06,0,.1a.81.81,0,0,1-.17.91,6,6,0,0,1,1.81.51l.11.05-.08.08c-.54.55-1.39.24-2.22,0s-1.55-.55-2.07-.17a.7.7,0,0,0-.29.53,1.14,1.14,0,0,0,.36.87,4.18,4.18,0,0,0,1.71.77l7.58,2.17,1.53-9.35a2.87,2.87,0,0,0-1.82.54,2.06,2.06,0,0,0-.92,1.54v.12l-.13,0a.67.67,0,0,1-.41-.47.52.52,0,0,1,.12-.48.2.2,0,0,0-.13,0,.93.93,0,0,0-.54.51c-.65,1.57-1.32,3.81.3,5.05l-.12.13c-4.87-2.61-8.27-7.22-8.87-12a3,3,0,0,1,.39-2.28,2,2,0,0,1,1.36-.7,1.6,1.6,0,0,1,.83.12,31.11,31.11,0,0,0-1.81-3c-.47-.71-1-1.44-1.39-2.19C4.14,20.13,3.68,18.19,4,16.47a5.17,5.17,0,0,1,4.58-4l-.81-2.12L6.39,6.72c-.76-2-1.63-4.23-1.48-6.46l0-.26.16.22c1.63,2.29,3.16,4.63,4.54,7a1.87,1.87,0,0,1,1.28-.85l.11,0v.12c.1,1.63.21,3.3.32,5a32.52,32.52,0,0,1,2.89-8.19l.18.06A70,70,0,0,0,12,13.65a13,13,0,0,0,1.9-5.92c.33-2.09.66-4.25,2-6l.27-.37-.23,1L15,6.3l1.36-2.42.18.06c-.41,1.16-.83,2.32-1.24,3.47-.35,1-.71,2-1.07,3A21.81,21.81,0,0,1,18.47,6l.14.1C15.4,9.89,12.34,14,13.07,18.3c.9-2.08,1.8-4.15,2.69-6.24.61-1.42,1.54-3.07,3.36-3.21,2-.15,3.47,1.67,3.73,3.45.55,3.79-2.18,7.22-5.08,10.4a2.73,2.73,0,0,1,2.39,1.61,4.61,4.61,0,0,1,.05,2.8,19.75,19.75,0,0,1-1.83,4.94,21.39,21.39,0,0,1,5.47-4.11l.5-.27-.37.39L21.4,30.72l-2.51,2.59a1.16,1.16,0,0,0-.36,1,.37.37,0,0,0,.27.19c1,.18,1.17,1.25,1,2.19l-1,6.63,1.44-.74,1.48-.76c.24-.12,1.05-.5,1.49-.07a.87.87,0,0,1,.2.69v.22a.58.58,0,0,0,.31.43.24.24,0,0,0,.2,0,37,37,0,0,1,5.61-6.39,15.33,15.33,0,0,1,8.27-3.66A2.73,2.73,0,0,0,40,31.65a2.09,2.09,0,0,0-.13-2.33c-.1-.13-.22-.26-.34-.39a2.79,2.79,0,0,1-.57-.72,1,1,0,0,1,0-.86.69.69,0,0,1,.44-.38h0a1.84,1.84,0,0,1,1.87,1.41.65.65,0,0,0,.45.49,1.44,1.44,0,0,0,1.17-.07,2.48,2.48,0,0,0,.92-1.61l0-.09.1,0a2.49,2.49,0,0,1,1.87,2.23A1.72,1.72,0,0,1,45,30.68a2.06,2.06,0,0,1-1.48.32.55.55,0,0,0-.44.09,1.4,1.4,0,0,0-.4,1.16,1.75,1.75,0,0,1-.36,1.34.83.83,0,0,1-.55.2c-2,0-3.5,1.38-4.74,2.73A92.69,92.69,0,0,0,24.06,54.09v0a3.63,3.63,0,0,0-.57,1.51A4.35,4.35,0,0,0,24,57.48a2.79,2.79,0,0,1,.41,2.38l-.07.18-.1-.17c-.6-1.06-1.17-2.15-1.72-3.27-1.09,1.84-2.17,3.69-3.25,5.53a39.7,39.7,0,0,0-4.08,8.33,9.25,9.25,0,0,1-2.68,4.12l-.36.33.2-.42c1.24-2.55,2.46-5.1,3.68-7.66a35,35,0,0,0-4.35,6.84l0,0h-.08a.53.53,0,0,1-.4-.21,1.12,1.12,0,0,1,.11-1.08l2.56-4.06a19,19,0,0,0-3.2,3.71l-.33.51L10.5,72a8.79,8.79,0,0,1,2.82-4.35,6.74,6.74,0,0,0-2.18,1.72l-.33.41.16-.48a5,5,0,0,1,1.89-2.43c-2,.55-2.44,3-2.54,4.54-.1,1.29-.19,2.6-.27,3.87ZM10.68,65l0,.1a15.63,15.63,0,0,0-.73,9.6c.07-1.09.14-2.2.23-3.3.24-3.65,1.84-4.61,3.14-4.77l.41,0-.34.19a5,5,0,0,0-2,2.09,7.18,7.18,0,0,1,2.5-1.63l.6-.24-.5.38a8.75,8.75,0,0,0-3.08,4.08,19.36,19.36,0,0,1,3.34-3.63l.46-.38-.4.63-2.79,4.42a1,1,0,0,0-.11.92.29.29,0,0,0,.18.12,35.49,35.49,0,0,1,4.85-7.41l.47-.56-.31.64c-1.26,2.64-2.52,5.26-3.79,7.89A8.9,8.9,0,0,0,15,70.41a40.75,40.75,0,0,1,4.1-8.36c1.11-1.89,2.22-3.79,3.34-5.68l.09-.16.08.17c.54,1.1,1.11,2.19,1.7,3.23a3.1,3.1,0,0,0-.48-2.08,4.08,4.08,0,0,1-.58-1.9,3.79,3.79,0,0,1,.58-1.57l0,0a92.94,92.94,0,0,1,13-17.61c1.27-1.37,2.84-2.78,4.88-2.78a.62.62,0,0,0,.42-.15,1.57,1.57,0,0,0,.31-1.22A1.51,1.51,0,0,1,42.92,31a.78.78,0,0,1,.6-.13,1.87,1.87,0,0,0,1.33-.29,1.56,1.56,0,0,0,.75-1.2,2.34,2.34,0,0,0-1.65-2,2.47,2.47,0,0,1-1,1.61,1.67,1.67,0,0,1-1.37.08.78.78,0,0,1-.56-.61,1.67,1.67,0,0,0-1.66-1.27.55.55,0,0,0-.32.29.87.87,0,0,0,0,.74,3.1,3.1,0,0,0,.54.68,4.48,4.48,0,0,1,.36.4,2.25,2.25,0,0,1,.15,2.49,2.91,2.91,0,0,1-2.29,1.51,15.08,15.08,0,0,0-8.15,3.62,37.24,37.24,0,0,0-5.6,6.37l0,0a.49.49,0,0,1-.41,0,.76.76,0,0,1-.41-.57.89.89,0,0,1,0-.23.78.78,0,0,0-.15-.59c-.34-.33-1,0-1.25.11l-1.48.76-1.61.83-.17.09,1-7c.14-.87,0-1.86-.86-2a.52.52,0,0,1-.41-.29,1.25,1.25,0,0,1,.38-1.18c.84-.87,1.68-1.73,2.51-2.6l2.19-2.25A20.86,20.86,0,0,0,18,32.74l-.17-.08A20,20,0,0,0,20,27.08,4.58,4.58,0,0,0,20,24.36a2.46,2.46,0,0,0-2.4-1.48l-.23,0,.14-.15c2.92-3.2,5.72-6.65,5.17-10.43C22.41,10.61,21,8.87,19.15,9s-2.62,1.73-3.21,3.11c-.94,2.18-1.87,4.36-2.81,6.53l-.12.28-.07-.3c-.89-4.23,1.82-8.18,4.89-11.88A21.69,21.69,0,0,0,14,11.07l-.43.64.25-.71c.44-1.21.87-2.42,1.31-3.64L16,4.92,14.53,7.51l.14-.62c.34-1.51.68-3,1-4.55l0-.14a14.39,14.39,0,0,0-1.65,5.56C13.73,10,13.38,12.22,11.9,14l-.22.28.05-.34a68.93,68.93,0,0,1,2.2-9.77A38.39,38.39,0,0,0,11.39,12l-.15.59,0-.61c-.13-1.82-.24-3.68-.36-5.48a1.64,1.64,0,0,0-1.11.89l-.07.18-.1-.17C8.2,5.11,6.7,2.79,5.09.53A16.14,16.14,0,0,0,6.57,6.67C7,7.88,7.5,9.09,8,10.29c.28.74.56,1.48.85,2.22l0,.09H8.74A5,5,0,0,0,4.21,16.5c-.34,1.69.12,3.59,1.41,5.82.42.73.9,1.46,1.37,2.17a28.44,28.44,0,0,1,2,3.26l.16.34-.32-.25a1.26,1.26,0,0,0-.95-.25,1.78,1.78,0,0,0-1.23.63,2.85,2.85,0,0,0-.36,2.18c.57,4.56,3.69,9,8.2,11.58-1.09-1.34-.47-3.34.12-4.78a1.09,1.09,0,0,1,.67-.61.46.46,0,0,1,.38.1l.07.06-.07.06a.37.37,0,0,0-.13.4.47.47,0,0,0,.18.29,2.27,2.27,0,0,1,1-1.52,3.15,3.15,0,0,1,2.07-.58h.1l-1.59,9.71-.11,0-7.68-2.2a4.13,4.13,0,0,1-1.8-.82,1.3,1.3,0,0,1-.41-1,.85.85,0,0,1,.36-.65c.6-.44,1.45-.14,2.26.15s1.46.52,1.92.17a5.5,5.5,0,0,0-1.82-.47H9.71l.18-.13a.72.72,0,0,0,.29-.76c-.81.4-1.93.19-3.41-.66L5,37.73l-4-2.3L2.92,37l2.63,2.1A.68.68,0,0,1,6,39a.9.9,0,0,1,.63.55,1.8,1.8,0,0,1,0,.8c0,.12,0,.24,0,.37-.13,1.49,1.6,2.67,3.26,3.14a20,20,0,0,0,2,.43,13.43,13.43,0,0,1,3.21.84,5.31,5.31,0,0,1,3.32,4.74.71.71,0,0,1-.16.47,1,1,0,0,1-.66.18,10,10,0,0,1-4.64-1,2.12,2.12,0,0,1-.82-.58,1.29,1.29,0,0,1,.66-1.8A4.87,4.87,0,0,1,15,46.76a.52.52,0,0,0-.17-.33,1.37,1.37,0,0,0-.89-.31,4.45,4.45,0,0,0-.79.12,3.78,3.78,0,0,1-.83.12,2.25,2.25,0,0,1-1.78-.79c.05.27.09.55.14.82.09.55.18,1.09.28,1.64a3.94,3.94,0,0,0,2.62,2.61,14.8,14.8,0,0,0,4.16.7h.16l-.08.11a54.31,54.31,0,0,0-6.55,10.81c-.45,1-1.1,2.1-2.29,2.25A3.28,3.28,0,0,0,10.5,65h.18Zm3.38,1.64a.9.9,0,0,1-.55-.21.3.3,0,0,1-.11-.31.57.57,0,0,1,.24-.31,18.75,18.75,0,0,1,2.57-1.7,17.19,17.19,0,0,0-1.94,0h0l-.11,0A6.4,6.4,0,0,0,11.51,66a.2.2,0,0,1-.21.06.41.41,0,0,1-.28-.29A1.67,1.67,0,0,1,11.87,64,2.51,2.51,0,0,1,14.09,64l.13,0,2-.69a2.47,2.47,0,0,0-1.52-.1l-.13,0v-.08a2,2,0,0,1-1,.26A7.85,7.85,0,0,1,12,63.26l-.26,0,.23-.11a3.8,3.8,0,0,1,2.58-.2.79.79,0,0,0-.46-.52l-.32-.13.35,0,.64,0,.52,0c-.22-.38-1-.34-1.42-.26-.6.12-1.44.23-1.79-.28l0,0,0,0c2.94-5,6.17-9.86,9.6-14.56.33-.45.91-.89,1.43-.63a.6.6,0,0,1,.32.36,1.11,1.11,0,0,1-.2.9l-.12.15a1.31,1.31,0,0,0-.37.85L26.08,47c.36-.17.83-.44.86-.8a2.66,2.66,0,0,0-1.66.56.87.87,0,0,1-.75.15,1.23,1.23,0,0,1-.86-.6,2.1,2.1,0,0,1,0-1.54v0l.05,0a30.22,30.22,0,0,0,6.6-3.08.3.3,0,0,0-.17-.14,1.58,1.58,0,0,0-1.05.15L27,42.74l-2.17,1.07-.2.1.06-.19a6.37,6.37,0,0,1,4.1-3.94l3.65-1.24a1.67,1.67,0,0,1,1.35,0l.08,0,0,.06a175.5,175.5,0,0,0-15,23,4.75,4.75,0,0,1-.94,1.12,7,7,0,0,0-.74.81,3.66,3.66,0,0,0-.31.49h0c-.09.18-.18.37-.26.55s-.26.55-.42.82a2.49,2.49,0,0,1-1.89,1.27Zm2.42-2.49a19.19,19.19,0,0,0-2.71,1.78.56.56,0,0,0-.19.22.18.18,0,0,0,.07.17.76.76,0,0,0,.53.16,2.33,2.33,0,0,0,1.74-1.19c.15-.26.28-.53.41-.8Zm-3.3-.27a2.19,2.19,0,0,0-1.21.26,1.51,1.51,0,0,0-.76,1.6.25.25,0,0,0,.14.16h0a6.47,6.47,0,0,1,2.41-1.82h0l.13,0A2.58,2.58,0,0,0,13.18,63.89Zm2.3-1a2.49,2.49,0,0,1,1,.27l.16.08-.17.06-1.71.6c.64,0,1.19,0,1.73.07h.07a4.08,4.08,0,0,1,.34-.57,8.39,8.39,0,0,1,.76-.82,5.13,5.13,0,0,0,.92-1.09,174.61,174.61,0,0,1,15-22.92,1.64,1.64,0,0,0-1.08.1l-3.65,1.24a6.24,6.24,0,0,0-3.93,3.64l2-1,2.22-1.09a1.72,1.72,0,0,1,1.21-.16.47.47,0,0,1,.31.3l0,.06-.05,0a30.66,30.66,0,0,1-6.67,3.12,2,2,0,0,0-.05,1.4,1.08,1.08,0,0,0,.73.51.74.74,0,0,0,.58-.11A2.83,2.83,0,0,1,27,46.05h.09v.08c.05.49-.52.82-.95,1l-3.46,1.67-.11,0,0-.1A1.23,1.23,0,0,1,23,47.69l.11-.16a.93.93,0,0,0,.18-.77A.41.41,0,0,0,23,46.5c-.4-.2-.89.19-1.18.58-3.42,4.68-6.64,9.56-9.57,14.51.31.36,1,.27,1.55.16.73-.14,1.54,0,1.7.48l0,.09h-.12l-.64,0-.37,0a1,1,0,0,1,.34.57A2.48,2.48,0,0,1,15.48,62.9Zm-3.14.24a7,7,0,0,0,1.23,0,2.16,2.16,0,0,0,.77-.16A3.66,3.66,0,0,0,12.34,63.14Zm6.73-13.53,0-.19a1.37,1.37,0,0,0-.26-.49l-.07-.11a.78.78,0,0,1-.17-.71.56.56,0,0,1,.41-.3.47.47,0,0,1,.39.08h0a.49.49,0,0,1,.11.14.34.34,0,0,0,.08.09.11.11,0,0,0,.09,0h0a1.65,1.65,0,0,0-.49-1l-.08-.11a2.68,2.68,0,0,1-.64-1.41,1.47,1.47,0,0,1,.66-1.38l1.75-1.12.07,0a2,2,0,0,1,1.65-.43l.08,0,0,.07a2.26,2.26,0,0,0-.05,1,2.82,2.82,0,0,1,0,1A3.08,3.08,0,0,1,21.91,46l0,0-1.78,2.24a.53.53,0,0,1-.41.25,1.85,1.85,0,0,1-.49,1Zm0-1.65H19a.39.39,0,0,0-.28.19.73.73,0,0,0,.15.59l.07.09a2.22,2.22,0,0,1,.23.39,1.6,1.6,0,0,0,.34-.87V48.3a.37.37,0,0,1-.14-.07.94.94,0,0,1-.09-.12.44.44,0,0,0-.08-.1A.24.24,0,0,0,19.08,48Zm3.18-5.15a2.17,2.17,0,0,0-1.24.45l-.06,0-1.75,1.12a1.31,1.31,0,0,0-.59,1.24A2.4,2.4,0,0,0,19.23,47l.08.12a1.72,1.72,0,0,1,.52,1.08v0l-.07.06a.63.63,0,0,0,.2-.17l1.78-2.25,0,0a2.85,2.85,0,0,0,.62-1.09,2.78,2.78,0,0,0,0-.91,2.69,2.69,0,0,1,0-1Zm-9.4-3.13-.09,0a10.41,10.41,0,0,1-4-4,15.92,15.92,0,0,1-1.7-5.06,2,2,0,0,1,.43-2,2.11,2.11,0,0,1,2.28,0,3.48,3.48,0,0,1,1.32,1.7,14.28,14.28,0,0,1,.82,3.54l0,.15a10.35,10.35,0,0,0,.45,2.17c.09.22.19.44.29.65a9.36,9.36,0,0,1,.41,1,2.06,2.06,0,0,1-.18,1.78ZM8.69,28.4a1.56,1.56,0,0,0-1,.28,1.87,1.87,0,0,0-.38,1.85,15.5,15.5,0,0,0,1.68,5,10.23,10.23,0,0,0,3.85,3.9,2,2,0,0,0,.11-1.59,7.85,7.85,0,0,0-.4-1c-.1-.22-.2-.44-.29-.67h0a10,10,0,0,1-.46-2.2l0-.15a13.56,13.56,0,0,0-.82-3.5,3.25,3.25,0,0,0-1.24-1.62A2.26,2.26,0,0,0,8.69,28.4ZM28.86,39.14l.06-.15a7.27,7.27,0,0,1,3.18-3.26,21.65,21.65,0,0,1,4.57-1.81,2,2,0,0,1,1.13-.09l.07,0v.06a1.79,1.79,0,0,1-.64,1L36.16,36a2.33,2.33,0,0,1-1.18.77A13.63,13.63,0,0,0,31.9,38c-.46.22-.93.45-1.42.65A9.71,9.71,0,0,1,29,39.1Zm8.67-5.2a2.42,2.42,0,0,0-.79.13,21.8,21.8,0,0,0-4.53,1.79,7.28,7.28,0,0,0-3,3,11,11,0,0,0,1.23-.43c.47-.19,1-.42,1.4-.64a13,13,0,0,1,3.13-1.19A2.16,2.16,0,0,0,36,35.92l1.07-1.08a1.77,1.77,0,0,0,.58-.88ZM13.6,37.38l-.08-.24a16.06,16.06,0,0,1-.83-5.36v-.17l.15.11a2.42,2.42,0,0,0,1.76.62,36.12,36.12,0,0,1-7.91-9.8,9.41,9.41,0,0,1-1.47-4.71,4.36,4.36,0,0,1,2.79-4,1.54,1.54,0,0,1,.89-.11c.52.11.77.59.95,1,.28.71.56,1.42.85,2.14.94,2.41,1.71,4.75.73,6.85A8.54,8.54,0,0,1,10.7,25c-.15.23-.3.46-.44.69a3.85,3.85,0,0,0,1.87-.77l.13-.1,0,.15a8.61,8.61,0,0,1,.14,1.53l1.44,2.73,1.4,2.65h0a1.86,1.86,0,0,1,.3,1,1.43,1.43,0,0,1-.19.57l-.81,1.83-.87,1.92ZM12.88,32a15.76,15.76,0,0,0,.75,4.9c.25-.56.5-1.13.76-1.69s.54-1.22.82-1.83a1.55,1.55,0,0,0,.17-.53,1.68,1.68,0,0,0-.28-.87h0l-1.41-2.66-1.44-2.74v0a9.94,9.94,0,0,0-.11-1.38,4.12,4.12,0,0,1-2,.73l-.18,0,.08-.13c.16-.29.35-.57.53-.84a9.37,9.37,0,0,0,.73-1.22c1-2,.19-4.35-.74-6.74-.29-.71-.57-1.42-.85-2.13-.16-.41-.38-.84-.82-.94a1.48,1.48,0,0,0-.76.1,4.22,4.22,0,0,0-2.68,3.86,9.33,9.33,0,0,0,1.45,4.63,35.93,35.93,0,0,0,8,9.85l.09.08-.12.05A2.26,2.26,0,0,1,12.88,32Zm3.2,3.36,0-.11c0-.25.1-.52.16-.77h.06l0,0a.72.72,0,0,1,.48-.35,1,1,0,0,1,.65.08l.05,0v.06a1.43,1.43,0,0,1-1.23,1.06Zm.37-.83c-.05.21-.09.42-.13.63a1.24,1.24,0,0,0,.93-.85.78.78,0,0,0-.43,0,.5.5,0,0,0-.36.26ZM16.16,32A.61.61,0,0,1,16,31.9a.65.65,0,0,1-.34-.4,33.18,33.18,0,0,1-1.75-4.78,1.78,1.78,0,0,1-.08-.72,1.74,1.74,0,0,1,.85-1,9.11,9.11,0,0,1,3.73-1.32h0a.85.85,0,0,1,.83.46,1.45,1.45,0,0,1,.11.82,12.52,12.52,0,0,1-2.41,6.53A1,1,0,0,1,16.16,32Zm2.26-8.11a8.81,8.81,0,0,0-3.64,1.28c-.35.24-.72.53-.78.91a1.54,1.54,0,0,0,.08.66,32.16,32.16,0,0,0,1.74,4.76.52.52,0,0,0,.25.31c.25.11.55-.17.68-.36A12.31,12.31,0,0,0,19.14,25a1.36,1.36,0,0,0-.09-.75A.66.66,0,0,0,18.42,23.84Zm-4.79.79-.06-.16a4.75,4.75,0,0,1-.05-3.26.62.62,0,0,1,.39-.45,1,1,0,0,1,.86.26l.06,0a.77.77,0,0,0,.52.1.15.15,0,0,0,.1-.09c0-.21-.27-.35-.52-.5a1.57,1.57,0,0,1-.61-.52,1,1,0,0,1,0-.74,24.22,24.22,0,0,1,1.77-5.16c.14-.28.3-.56.46-.84a6.08,6.08,0,0,0,1.16-3.53v0l0,0a2.24,2.24,0,0,1,1.73-.26,2.94,2.94,0,0,1,1.92,1.36,4,4,0,0,1-.25,3.58h0A26.8,26.8,0,0,1,17.38,20l-.06.07-1.79,2.22c-.59.75-1.19,1.49-1.79,2.23Zm.49-3.74a.3.3,0,0,0-.13,0,.49.49,0,0,0-.28.35,4.6,4.6,0,0,0,0,3c.55-.7,1.11-1.39,1.67-2.09s1.2-1.48,1.79-2.23l.06-.07A26.69,26.69,0,0,0,21,14.32h0a3.9,3.9,0,0,0,.24-3.45,2.7,2.7,0,0,0-1.79-1.26,2,2,0,0,0-1.52.2,6.2,6.2,0,0,1-1.18,3.58l-.46.82a24.58,24.58,0,0,0-1.75,5.12.91.91,0,0,0,0,.65,1.34,1.34,0,0,0,.53.46c.28.16.57.34.62.63h0v0a.29.29,0,0,1-.22.21.93.93,0,0,1-.71-.13l-.05,0A1.17,1.17,0,0,0,14.12,20.89Zm-2.06-5L12,15.76a1.36,1.36,0,0,1,.29-1.7l0,0h0a.44.44,0,0,1,.28.14.47.47,0,0,1,.07.34,2,2,0,0,1-.55,1.26Zm.32-1.68a1.24,1.24,0,0,0-.29,1.36,1.88,1.88,0,0,0,.42-1.07.3.3,0,0,0,0-.23A.18.18,0,0,0,12.38,14.2ZM9.3,11.93l-.1,0,0,0v0L7,6.42C6.56,5.34,6.14,4.27,5.71,3.2c-.14-.38-.28-.91.13-1.18L5.94,2l0,.11a22.69,22.69,0,0,0,3.12,5.4h0l0,.06a3.15,3.15,0,0,1,.48.76,2.35,2.35,0,0,1,.11,1c0,.36,0,.72,0,1.09s0,.68,0,1a.58.58,0,0,1-.25.49A.32.32,0,0,1,9.3,11.93Zm0-.16h.06a.47.47,0,0,0,.16-.36c0-.34,0-.68,0-1s0-.73,0-1.09a2.56,2.56,0,0,0-.1-1A3,3,0,0,0,9,7.6l0-.06a22.65,22.65,0,0,1-3.09-5.3c-.19.23-.08.62,0,.91.43,1.07.85,2.15,1.28,3.22Z"/>
        </g>
        <g>
          <path class="cls-2" d="M40.08,68.77a.92.92,0,0,1,.47-.89,1,1,0,0,1,.53-.15,1.37,1.37,0,0,1-1,1"/>
          <path class="cls-2" d="M40,68.88v-.11a1,1,0,0,1,.52-1,1.19,1.19,0,0,1,.57-.17h.12v.1a1.46,1.46,0,0,1-1.07,1.1Zm1-1.06a1,1,0,0,0-.35.12.88.88,0,0,0-.44.71A1.3,1.3,0,0,0,41,67.82Z"/>
        </g>
        <g>
          <path class="cls-2" d="M49,68.05a4.93,4.93,0,0,1-1-1.14c0-.09-.11-.21,0-.3s.43,0,.59.13A13.61,13.61,0,0,1,50,68.32c-.29.17-.69,0-1-.27"/>
          <path class="cls-2" d="M49.7,68.46A1.21,1.21,0,0,1,49,68.1a5.24,5.24,0,0,1-1-1.16.35.35,0,0,1,0-.37.25.25,0,0,1,.22-.11.82.82,0,0,1,.52.22,13.36,13.36,0,0,1,1.38,1.6l0,.06-.07,0A.51.51,0,0,1,49.7,68.46Zm-1.49-1.84h0a.08.08,0,0,0-.08,0s0,.13,0,.21A5.13,5.13,0,0,0,49.1,68h0a1,1,0,0,0,.75.3,11.81,11.81,0,0,0-1.31-1.5A.56.56,0,0,0,48.21,66.62Z"/>
        </g>
        <g>
          <path class="cls-2" d="M17.1,56.21l1.18-.82a1.29,1.29,0,0,1,.82-.3c.21.09.07.35-.08.5a3,3,0,0,1-1.8,1,.67.67,0,0,0-.12-.35"/>
          <path class="cls-2" d="M17.13,56.65v-.09a.56.56,0,0,0-.11-.31l0-.06,1.24-.86A1.35,1.35,0,0,1,19.1,55h0a.25.25,0,0,1,.15.17.56.56,0,0,1-.2.46,3,3,0,0,1-1.86,1Zm.09-.42a.85.85,0,0,1,.09.24A3,3,0,0,0,19,55.54c.11-.11.18-.25.16-.32a.1.1,0,0,0,0,0h0a1.26,1.26,0,0,0-.73.29Z"/>
        </g>
        <g>
          <path class="cls-2" d="M45,47.42a.28.28,0,0,1,.1-.43.87.87,0,0,1,.71.1l2.19,1c.19.09.09.37-.12.42a1,1,0,0,1-.62-.12l-2.26-1"/>
          <path class="cls-2" d="M47.66,48.61a1.27,1.27,0,0,1-.48-.14l-1.46-.63-.83-.37a.34.34,0,0,1-.08-.29.4.4,0,0,1,.2-.26,1,1,0,0,1,.8.09l1.14.53L48,48a.24.24,0,0,1,.16.25.42.42,0,0,1-.29.32A.74.74,0,0,1,47.66,48.61ZM45,47.36l.77.34,1.47.63a.81.81,0,0,0,.54.11.2.2,0,0,0,.15-.18.08.08,0,0,0,0-.09l-1.06-.49-1.14-.52c-.22-.1-.45-.19-.61-.1a.21.21,0,0,0-.11.15A.2.2,0,0,0,45,47.36Z"/>
        </g>
        <g>
          <path class="cls-2" d="M26.09,57.82a7.23,7.23,0,0,1-.55-2,.84.84,0,0,1,.17-.72,10,10,0,0,1,1.1,3,.54.54,0,0,1-.31,0,1.1,1.1,0,0,0-.41-.36"/>
          <path class="cls-2" d="M26.58,58.27l-.1,0h0l0,0a.94.94,0,0,0-.38-.33h0v0a7.33,7.33,0,0,1-.55-2,.87.87,0,0,1,.19-.78l.1-.09.06.11a10.13,10.13,0,0,1,1.11,3v.06l-.06,0A.56.56,0,0,1,26.58,58.27Zm0-.16h.15a9.9,9.9,0,0,0-1-2.8.89.89,0,0,0-.06.54,7.63,7.63,0,0,0,.52,1.93A1.12,1.12,0,0,1,26.56,58.11Z"/>
        </g>
        <g>
          <path class="cls-2" d="M45.91,50.9c.13-.13.37,0,.54,0,1,.43,2,.92,2.9,1.43.27.15.53.48.28.63a22.6,22.6,0,0,1-3.43-1.55c-.23-.13-.46-.38-.29-.53"/>
          <path class="cls-2" d="M49.64,53.07l0,0a21.28,21.28,0,0,1-3.45-1.56c-.16-.09-.36-.26-.38-.43a.24.24,0,0,1,.08-.22c.09-.09.28-.15.65,0a31.37,31.37,0,0,1,2.91,1.44.77.77,0,0,1,.43.52.28.28,0,0,1-.14.24Zm-3.51-2.16A.24.24,0,0,0,46,51h0A.09.09,0,0,0,46,51c0,.1.14.23.3.32a22,22,0,0,0,3.36,1.52.09.09,0,0,0,0-.07.65.65,0,0,0-.34-.39A32.21,32.21,0,0,0,46.41,51,1.29,1.29,0,0,0,46.13,50.91Z"/>
        </g>
        <g>
          <path class="cls-2" d="M21.08,51.87c.36-.23.92-.44,1.22-.14a8,8,0,0,1-2.5,1.78,1.14,1.14,0,0,1-.69.18c-.24,0-.41-.35-.21-.46.72-.46,1.46-.91,2.18-1.36"/>
          <path class="cls-2" d="M19.17,53.78h-.08a.47.47,0,0,1-.36-.32.25.25,0,0,1,.11-.29L21,51.81c.44-.28,1-.46,1.36-.13l0,0,0,.05a8,8,0,0,1-2.52,1.79A1.36,1.36,0,0,1,19.17,53.78ZM22,51.67a1.45,1.45,0,0,0-.81.27h0L19,53.29a.09.09,0,0,0,0,.12.28.28,0,0,0,.21.2,1,1,0,0,0,.61-.17,8.06,8.06,0,0,0,2.44-1.7A.37.37,0,0,0,22,51.67Z"/>
        </g>
        <g>
          <path class="cls-2" d="M44.5,43c.3-.2.75,0,1.09.12L47.9,44.3c.31.15.64.48.4.68s-.47,0-.67-.06l-2.58-1.34c-.25-.13-.53-.29-.55-.55"/>
          <path class="cls-2" d="M48,45.13a1.19,1.19,0,0,1-.46-.14l-1-.53L45,43.65c-.28-.14-.58-.32-.61-.61v0l0,0c.39-.27,1,0,1.2.11.77.39,1.54.78,2.31,1.15a1,1,0,0,1,.53.54.28.28,0,0,1-.11.27A.46.46,0,0,1,48,45.13ZM44.6,43.07c0,.19.28.33.5.44.52.28,1,.54,1.56.81l1,.53c.15.08.41.19.55.07a.12.12,0,0,0,.06-.13c0-.13-.21-.31-.43-.42-.77-.37-1.55-.76-2.32-1.15A1.16,1.16,0,0,0,44.6,43.07Z"/>
        </g>
        <g>
          <path class="cls-2" d="M29.51,49.52c-.15-.56-.31-1.12-.46-1.69a.83.83,0,0,1,0-.64.62.62,0,0,1,.64-.23,12,12,0,0,0,1.17,3.83,1.05,1.05,0,0,1-.95-.39,2.27,2.27,0,0,1-.4-.88"/>
          <path class="cls-2" d="M30.66,50.88a1.25,1.25,0,0,1-.83-.43,2.31,2.31,0,0,1-.41-.92h0c-.07-.24-.13-.49-.2-.73s-.18-.64-.26-1a.87.87,0,0,1,0-.69.7.7,0,0,1,.75-.27l.06,0V47A11.85,11.85,0,0,0,31,50.76l0,.09-.11,0ZM29.61,49.5a2.16,2.16,0,0,0,.37.85,1,1,0,0,0,.74.37A11.72,11.72,0,0,1,29.61,47a.53.53,0,0,0-.48.21.78.78,0,0,0,0,.58c.08.32.17.64.25,1Z"/>
        </g>
        <g>
          <path class="cls-2" d="M42.86,52.73c.08.41-.24.79-.55,1.11L40.64,55.6c-.22.25-.56.52-.9.39-.12-.24.07-.49.26-.69l2-2.16a1,1,0,0,1,.82-.41"/>
          <path class="cls-2" d="M39.87,56.1a.86.86,0,0,1-.17,0l0,0v0c-.14-.28.06-.54.28-.77l1-1.07c.35-.36.69-.72,1-1.09a1.14,1.14,0,0,1,.91-.44h.07v.06a1.42,1.42,0,0,1-.56,1.17l-1.67,1.77A1.06,1.06,0,0,1,39.87,56.1Zm-.06-.17c.28.07.56-.16.76-.38l1.67-1.76c.28-.29.57-.63.53-1a1,1,0,0,0-.66.39l-1,1.09-1,1.06C39.91,55.53,39.75,55.74,39.81,55.93Z"/>
        </g>
        <g>
          <path class="cls-2" d="M46.38,61.36a11.06,11.06,0,0,1,5,2c.13.07.27.18.23.3s-.17.16-.3.17A2.32,2.32,0,0,1,50,63.28a20.13,20.13,0,0,0-3.21-1.41c-.24-.11-.51-.31-.4-.51"/>
          <path class="cls-2" d="M51.19,63.94a2.38,2.38,0,0,1-1.12-.5l-.14-.1a10.79,10.79,0,0,0-2.12-1c-.36-.13-.72-.27-1.07-.42s-.58-.37-.44-.62l0,0h.09a11.15,11.15,0,0,1,5,2c.27.16.29.3.26.4a.38.38,0,0,1-.38.22Zm-4.74-2.49c0,.13.22.28.37.35.35.15.71.28,1.06.41a10.72,10.72,0,0,1,2.17,1l.14.1a1.92,1.92,0,0,0,1.11.47c.05,0,.19,0,.21-.11s-.12-.18-.18-.21A10.91,10.91,0,0,0,46.45,61.45Z"/>
        </g>
        <g>
          <path class="cls-2" d="M31.32,44.16a.36.36,0,0,1,.09-.26.48.48,0,0,1,.6,0,.93.93,0,0,1,.25.53,18.41,18.41,0,0,0,2.09,4.89,1,1,0,0,1-1-.2,2.2,2.2,0,0,1-.5-.81c-.43-1.07-.87-2.13-1.3-3.2a2.23,2.23,0,0,1-.25-1"/>
          <path class="cls-2" d="M34,49.5a1.17,1.17,0,0,1-.69-.29,2.23,2.23,0,0,1-.51-.81v0c-.43-1.08-.87-2.14-1.3-3.2a2.23,2.23,0,0,1-.25-1,.4.4,0,0,1,.1-.31.44.44,0,0,1,.31-.12.68.68,0,0,1,.44.16,1,1,0,0,1,.27.57,18.88,18.88,0,0,0,2.08,4.87l0,.07-.09,0A.89.89,0,0,1,34,49.5Zm-2.31-5.61h0a.31.31,0,0,0-.17.07.21.21,0,0,0-.06.2h0a2.2,2.2,0,0,0,.24,1c.43,1.06.87,2.12,1.3,3.2v0a2,2,0,0,0,.47.75.9.9,0,0,0,.78.22,18.68,18.68,0,0,1-2-4.83.9.9,0,0,0-.23-.49A.44.44,0,0,0,31.68,43.89Z"/>
        </g>
        <g>
          <path class="cls-2" d="M44.25,55.82c.09,1.5-1.09,2.8-2.21,4A7.1,7.1,0,0,1,40.57,61c-.3-.12-.17-.49,0-.72,1.06-1.26,2.64-2.32,3-3.85a1.05,1.05,0,0,1,.16-.49.47.47,0,0,1,.54-.15"/>
          <path class="cls-2" d="M40.58,61.12l0,0a.38.38,0,0,1-.22-.21.75.75,0,0,1,.19-.62c.32-.38.69-.75,1-1.1a6,6,0,0,0,1.91-2.73l0-.06a1,1,0,0,1,.16-.46.58.58,0,0,1,.67-.17l.05,0v0c.09,1.51-1.06,2.81-2.24,4a6.85,6.85,0,0,1-1.49,1.28Zm3.53-5.26a.42.42,0,0,0-.32.15.9.9,0,0,0-.13.4l0,.06a6.2,6.2,0,0,1-2,2.81c-.35.35-.72.71-1,1.08a.61.61,0,0,0-.16.49.16.16,0,0,0,.06.08A6.77,6.77,0,0,0,42,59.72c1.15-1.17,2.25-2.42,2.2-3.85Z"/>
        </g>
        <g>
          <path class="cls-2" d="M34.51,39.76a1.11,1.11,0,0,1,.61-.49,10.86,10.86,0,0,0,1.82,4.85,2.35,2.35,0,0,1,.5,1,.46.46,0,0,1-.59.12,1.05,1.05,0,0,1-.45-.46,20.69,20.69,0,0,1-1.81-3.73,1.61,1.61,0,0,1-.08-1.32"/>
          <path class="cls-2" d="M37,45.4a.5.5,0,0,1-.24-.06,1.13,1.13,0,0,1-.48-.49A19.92,19.92,0,0,1,34.5,41.1a1.61,1.61,0,0,1-.07-1.37,1.18,1.18,0,0,1,.65-.54l.12,0v.11A10.82,10.82,0,0,0,37,44.08l0,.06a2.13,2.13,0,0,1,.47,1v0a.4.4,0,0,1-.26.19A.58.58,0,0,1,37,45.4Zm-2-6a.9.9,0,0,0-.44.39h0a1.55,1.55,0,0,0,.08,1.26,20.57,20.57,0,0,0,1.81,3.72,1.07,1.07,0,0,0,.4.42.42.42,0,0,0,.31,0,.22.22,0,0,0,.14-.09,2.06,2.06,0,0,0-.44-.92l0-.06A11,11,0,0,1,35,39.4Z"/>
        </g>
        <g>
          <path class="cls-2" d="M7.68,37.56c.39.34.82.8.59,1.22a23,23,0,0,1-7.2-9.39c.74,0,1.18.69,1.45,1.27a20.37,20.37,0,0,0,5.16,6.9"/>
          <path class="cls-2" d="M8.3,38.91l-.09-.07A23,23,0,0,1,1,29.41l0-.1h.13c.81,0,1.27.75,1.54,1.34A20.37,20.37,0,0,0,7.75,37.5h0c.41.37.86.85.61,1.31ZM1.21,29.47a22.77,22.77,0,0,0,7,9.16c.08-.34-.28-.72-.62-1a20.6,20.6,0,0,1-5.18-6.92C2.2,30.18,1.82,29.52,1.21,29.47Z"/>
        </g>
        <g>
          <path class="cls-2" d="M15.35,73.22a23.82,23.82,0,0,0,3.29-8.73A2,2,0,0,1,18.85,67a1.61,1.61,0,0,0,1.19-2c-.33-.8.24-1.62.78-2.31l.73,1.47c7.45-7.36,15-14.85,19.6-23.76.77-1.51,1.42-3.41.2-4.73-.34-.37-.79-.95-.33-1.2A5.91,5.91,0,0,1,43.3,37.1c.09.22.16.5,0,.67s-.64.08-.57-.15a22.07,22.07,0,0,1-6.22,11.71,3.21,3.21,0,0,0,2-1.08c2.33-2.21,4.79-4.68,4.94-7.68a8.41,8.41,0,0,1,.25-2.92l2.66,27.7c0,.36-.31.89-.61.63L44.4,53.08a18,18,0,0,0-.64-3.72,5.72,5.72,0,0,1-3.86,4.08C41,52.23,42,51,43.06,49.82s.75-2.83.43-4.29a.51.51,0,0,0-.29-.44.68.68,0,0,0-.6.16c-1.91,1.37-2.91,3.68-5.26,4.41-.5.17-1.09.27-1.37.65-6.4,8.53-15.69,15.48-20.54,24.74-.59,1.13-1.5,2.5-3,2.38a3.44,3.44,0,0,1-1.17-.35,17,17,0,0,1-2.9-1.62c2.06.19,4.4.3,5.86-.91a5.53,5.53,0,0,0,1.09-1.33M12.91,76l-.51,0-1.19,0a1.39,1.39,0,0,0,1.28.81,1.33,1.33,0,0,0,1.25-.79,1.9,1.9,0,0,0-.83-.09M20.7,64.22c-.09,0-.17.09-.15.18a.94.94,0,0,0,.54.69.66.66,0,0,0-.41-.85"/>
          <path class="cls-2" d="M12.49,77.51a3.49,3.49,0,0,1-1.23-.36,16.94,16.94,0,0,1-2.92-1.63l-.25-.17.32,0c2.05.2,4.35.3,5.79-.88a5.59,5.59,0,0,0,1.06-1.31,23.46,23.46,0,0,0,3.28-8.7l0-.19.14.15a2.11,2.11,0,0,1,.34,2.37,1.68,1.68,0,0,0,.79-.7A1.32,1.32,0,0,0,20,64.94c-.35-.83.23-1.67.79-2.39l.1-.13.74,1.5c7.32-7.23,14.87-14.71,19.48-23.64.69-1.35,1.46-3.3.21-4.66-.41-.44-.58-.77-.54-1a.43.43,0,0,1,.24-.29l.05,0,.06,0a6.1,6.1,0,0,1,2.32,2.76c.08.22.17.54,0,.75a.52.52,0,0,1-.56.07l0,0a22,22,0,0,1-6,11.34,3.44,3.44,0,0,0,1.66-1c2.51-2.38,4.77-4.75,4.92-7.62,0-.29,0-.59,0-.88a4.71,4.71,0,0,1,.25-2.07l.15-.35,2.69,28.08a.82.82,0,0,1-.41.76.37.37,0,0,1-.36-.07l0,0v0L44.3,53a19.79,19.79,0,0,0-.53-3.32,5.94,5.94,0,0,1-3.83,3.8l-.32.11.21-.24q1.59-1.8,3.16-3.62c1-1.12.74-2.71.41-4.23a.47.47,0,0,0-.23-.38.59.59,0,0,0-.51.16,12.53,12.53,0,0,0-1.93,1.85,7.77,7.77,0,0,1-3.36,2.57l-.3.09a1.94,1.94,0,0,0-1,.52A110.19,110.19,0,0,1,27.5,60c-4.46,4.66-9.07,9.49-12,15C15,76.18,14,77.61,12.49,77.51Zm-3.78-2A16,16,0,0,0,11.34,77a3.51,3.51,0,0,0,1.13.34h0c1.4.1,2.3-1.29,2.84-2.34,2.93-5.58,7.54-10.41,12-15.08a109.76,109.76,0,0,0,8.54-9.67A2,2,0,0,1,37,49.68l.29-.09a7.43,7.43,0,0,0,3.27-2.52,13.43,13.43,0,0,1,2-1.88.76.76,0,0,1,.71-.17.59.59,0,0,1,.35.5c.34,1.55.59,3.17-.45,4.35s-2,2.25-2.94,3.37a5.55,5.55,0,0,0,3.46-3.9l.07-.36.12.36A17.4,17.4,0,0,1,44.49,53v0l1.28,12.87a.11.11,0,0,0,.12,0,.65.65,0,0,0,.3-.6L43.59,38.1a6.05,6.05,0,0,0-.1,1.59,8.81,8.81,0,0,1,0,.89c-.15,2.92-2.43,5.32-5,7.72a3.23,3.23,0,0,1-2,1.11h-.22l.14-.14a21.89,21.89,0,0,0,6.2-11.63.09.09,0,0,1,0,0l.18,0v0s0,.06.08.09a.32.32,0,0,0,.33,0c.15-.15.07-.41,0-.59A5.81,5.81,0,0,0,41,34.48a.25.25,0,0,0-.1.15c0,.2.13.5.5.9C42.74,37,42,39,41.24,40.35c-4.65,9-12.26,16.51-19.62,23.77l-.1.1-.72-1.45c-.5.66-1,1.4-.67,2.11A1.49,1.49,0,0,1,20,66.19a1.9,1.9,0,0,1-1.13.85l-.24.06.12-.18a1.93,1.93,0,0,0-.06-2.21,23.4,23.4,0,0,1-3.27,8.54h0a5.43,5.43,0,0,1-1.1,1.35C12.91,75.78,10.71,75.74,8.71,75.56ZM12.4,77a1.48,1.48,0,0,1-1.28-.87l0-.1h.12l.61,0,.59,0,.51,0a2,2,0,0,1,.88.1l.07,0,0,.06a1.43,1.43,0,0,1-1.35.85Zm-1.06-.82a1.34,1.34,0,0,0,1.15.66,1.26,1.26,0,0,0,1.14-.67,2.08,2.08,0,0,0-.71,0l-.51,0-.59,0Zm9.79-10.94-.09,0a1.06,1.06,0,0,1-.59-.75.29.29,0,0,1,.12-.26.19.19,0,0,1,.18,0l0,0a.77.77,0,0,1,.43.4.57.57,0,0,1,0,.54Zm-.48-.89a.17.17,0,0,0,0,.07A.84.84,0,0,0,21,65a.55.55,0,0,0,0-.33A.65.65,0,0,0,20.65,64.32Z"/>
        </g>
        <g>
          <path class="cls-2" d="M52.68,55.47c-.35,0-.82.18-.76.48a58.41,58.41,0,0,1,.28,20.34A5.89,5.89,0,0,1,50.59,80c-.06-.22-.13-.45-.2-.67l-4.25-.49c-1.52-1.5-3.68-2.48-5.09-4-1.73-1.94-2.07-4.49-2.34-6.9L36.88,51.7c0-.38.18-.94.6-.8a52.85,52.85,0,0,1,2.08,16.29,67.7,67.7,0,0,0,5.14-5.47,7.78,7.78,0,0,1-2.59,3.88,11.64,11.64,0,0,0-1.91,1.63A1.74,1.74,0,0,0,40,69.41a9.59,9.59,0,0,1,3.34-1.91c-.75.87-1.95,1.41-2.66,2.3s-.61,2.46.64,2.75a9.21,9.21,0,0,1,3.52-5.26c-.77,1.29-1.55,2.58-2.31,3.87a4.47,4.47,0,0,0-.87,2.3,1.88,1.88,0,0,0,1.59,1.82q.8-3.11,1.6-6.21c.22-.87,1.52-1.1,2.59-1.17l3.22,3.38A7.61,7.61,0,0,1,48.4,70c.56,1.52,1.12,3,1.67,4.55-2-1.21-1.28-4-2.84-5.57a46.22,46.22,0,0,0,2.63,9.19,4.05,4.05,0,0,1-2.26-1.6A5.78,5.78,0,0,1,47,73.18L47,68.3a3,3,0,0,0-.87,2.34c-.1,2.24-.21,4.49-.32,6.73-.8-2.81-.44-5.74-.08-8.6a37.73,37.73,0,0,0-1.81,6.1,2.7,2.7,0,0,0,1.66,2.64,10.89,10.89,0,0,0,3.54.94,2.7,2.7,0,0,0,1,0c.9-.19,1.22-1.1,1.36-1.87,1.44-7.83.08-15.88-1.29-23.79a3.47,3.47,0,0,0-.41-1.35c-.19-.3-.44-.73-.11-.93.58-.33.57-1,.5-1.65-.12-1-.24-2-.35-3a19.44,19.44,0,0,0-1.57-6.56,8.63,8.63,0,0,0-5.49-4.6c0-.43.79-.44,1.28-.26a10.84,10.84,0,0,1,5.81,5.22,14.37,14.37,0,0,1,1.32,7.16c1.57-1.33,4.87,1,6.36-.37A2.35,2.35,0,0,1,59,46a17.55,17.55,0,0,1,5.16.27,4.77,4.77,0,0,0,1.67.18c.56-.07,1.1-.45,1.08-.93L58.2,42.32c-.34-.12-.67-.56-.33-.64a70,70,0,0,1,9.45,3.55c2.4,1.1,5.55-.13,8,.91a7.16,7.16,0,0,0,4.64.14,19.65,19.65,0,0,0,4.14-1.89A1.89,1.89,0,0,1,82.43,46l2.45-.14c-.69,1.15-3.46.35-4,1.59l1.71,0L80.76,48.7a7.73,7.73,0,0,1,4.15.53c-1.43.2-2.86.38-4.29.57,1.42.29,2.84.63,4.24,1,.55.15,1.24.56,1,1s-.65.28-1,.25l-4.89-.44,5.19,1.12c.34.08.74.19.89.47s-.25.67-.53.47c-1.66-1.24-4.21-.9-6.29-1.53a1.53,1.53,0,0,1-.87-.51.47.47,0,0,1,.23-.74l6.76.77a10.37,10.37,0,0,0-8.84-.33,85.36,85.36,0,0,0-8.22,4.31l2.29-2.34A17.2,17.2,0,0,1,62.61,55a1.11,1.11,0,0,1-1-1A2.47,2.47,0,0,1,62,52.62a54,54,0,0,0-8.93,6.88,10.19,10.19,0,0,1,4.82-4.56l-5.25.53M68.52,50l-2.18.44a2,2,0,0,0-1.18.5c-.17.19-.39.5-.63.36a1,1,0,0,0-1.14.36,3.55,3.55,0,0,0-1,2.42,35.47,35.47,0,0,0,3.85-.46,8.66,8.66,0,0,0,2.88-.9,2.51,2.51,0,0,0,1.39-2.21c-.41.16-1-.19-.9-.58,0-.16.14-.36,0-.5a1.58,1.58,0,0,1-1.12.57m-7.95.4,0-.44-4.52-1.87c-.31-.13-.61-.25-.93-.36a7,7,0,0,0-2.37-.35,2,2,0,0,0-.7.09,1.17,1.17,0,0,0-.36,1.9,3.7,3.7,0,0,0,2.32,1,12.23,12.23,0,0,1,2.57.44,1.55,1.55,0,0,0,.61.05,20.9,20.9,0,0,0,3.35-.44m1.47.75a6.53,6.53,0,0,1-2,.32l-2.94.16a5.24,5.24,0,0,0-1.19.15,4.12,4.12,0,0,0-1.07.48A21.33,21.33,0,0,0,52,54.12s-.1.07-.11.13.19.22.36.24A13,13,0,0,0,62.7,51.08c-.18-.14-.45,0-.66,0M63.62,50a47.7,47.7,0,0,0,5.07-.6.18.18,0,0,0,.18-.23c0-.1-.16-.17-.25-.24a13,13,0,0,0-4.81-2.14,14.88,14.88,0,0,0-3.53,0c-.5,0-1.11.15-1.19.56l2.07.18a1.5,1.5,0,0,1,.7.16c.22.11.35.35.24.53s-.44.24-.7.18a5.36,5.36,0,0,0-.77-.18c-.27,0-.58.16-.52.38s.2.26.37.33a5.94,5.94,0,0,0,1.87.49,3,3,0,0,1,.79.12c.25.08.48.28.48.5M74.45,48.5c1.09-.44,2.15-.9,3.2-1.4a29.16,29.16,0,0,0-3.82-.7,15.05,15.05,0,0,0-3.91,0c-.35,0-.76.17-.83.48a1.4,1.4,0,0,0-1.19-.29c-.39.13-.5.71-.09.84,1.42.45,2.85.87,4.3,1.24a4.05,4.05,0,0,0,1.08.17,3.61,3.61,0,0,0,1.26-.33m-2.09,2.56a18.42,18.42,0,0,1,3.84-.86c.58-.06,1.31-.24,1.35-.73a18.52,18.52,0,0,0-3.33.22,3.41,3.41,0,0,0-1.29.39,1,1,0,0,0-.57,1M48.82,77a10.38,10.38,0,0,0-.63-1.88.74.74,0,0,0-.19-.27.42.42,0,0,0-.42,0,4.53,4.53,0,0,0,.53,1.77c.12.25.42.54.71.42m4.42-25.33c-.06-.08-.19-.08-.31-.08a1.94,1.94,0,0,0-1,.26.65.65,0,0,0-.27.83A2.52,2.52,0,0,0,53.15,52c.09-.08.17-.22.09-.32m17.89,1a1.94,1.94,0,0,0,1.05-.41,4.91,4.91,0,0,0,.88-.75,1.69,1.69,0,0,0-1.93,1.16m9.28-4.8c.09-.12,0-.3-.18-.36a1,1,0,0,0-.51,0c-.39.06-.85.17-1,.5a2.77,2.77,0,0,0,1.43,0,.38.38,0,0,0,.21-.1m-8.41,2a.81.81,0,0,0-.63,1.1,1.08,1.08,0,0,0,.63-1.1m1.87,1.36a.41.41,0,0,0,0,.66,1.27,1.27,0,0,0,.64-.85.86.86,0,0,0-.61.19"/>
          <path class="cls-2" d="M50.54,80.13l-.08-.26c0-.17-.09-.33-.14-.5l-2-.22-2.23-.26h0l0,0A18.73,18.73,0,0,0,43.7,77,15.09,15.09,0,0,1,41,74.81c-1.81-2-2.12-4.76-2.36-7l-.06-.52c-.59-5.21-1.18-10.43-1.77-15.63a.92.92,0,0,1,.33-.85.47.47,0,0,1,.4,0l0,0v0A53.41,53.41,0,0,1,39.67,67a69.65,69.65,0,0,0,4.95-5.29l.28-.34-.11.4a7.66,7.66,0,0,1-2.61,3.91c-.19.16-.4.32-.59.46a7,7,0,0,0-1.31,1.17,1.72,1.72,0,0,0-.28,2,9.64,9.64,0,0,1,3.3-1.85l.31-.11-.2.23a8.19,8.19,0,0,1-1.3,1.11,6.8,6.8,0,0,0-1.36,1.19,1.89,1.89,0,0,0-.29,1.91,1.2,1.2,0,0,0,.78.68,9.25,9.25,0,0,1,3.53-5.22l.38-.28-.23.38-1.13,1.89-1.19,2a4.51,4.51,0,0,0-.86,2.27,1.82,1.82,0,0,0,1.43,1.72c.5-2,1-3.93,1.51-5.9l.06-.22a1.54,1.54,0,0,1,1.19-1v0a5.87,5.87,0,0,1,1.49-.24h0l0,0L51,71.48l-.36-.13a7.82,7.82,0,0,1-2-1.1l.24.64,1.32,3.62.08.22L50,74.59a4.31,4.31,0,0,1-1.68-3,6.13,6.13,0,0,0-.95-2.35A46.45,46.45,0,0,0,50,78.12l.06.15-.18,0a4.08,4.08,0,0,1-2.31-1.63,5.9,5.9,0,0,1-.65-3.41l.06-4.68a3.1,3.1,0,0,0-.68,2.15c-.11,2.39-.22,4.55-.33,6.72v.2a11.92,11.92,0,0,0,3.24.8,2.7,2.7,0,0,0,1,0c.68-.14,1.1-.73,1.29-1.81,1.46-7.91.07-16-1.28-23.76a3.57,3.57,0,0,0-.41-1.32c-.16-.26-.49-.79-.07-1s.52-1,.45-1.58l0-.42c-.11-.87-.21-1.74-.31-2.61a19.32,19.32,0,0,0-1.56-6.53,8.54,8.54,0,0,0-5.42-4.55l-.08,0v-.06a.4.4,0,0,1,.23-.35,1.63,1.63,0,0,1,1.17,0A10.89,10.89,0,0,1,50,39.64a14.29,14.29,0,0,1,1.34,7c.82-.53,2-.29,3.1-.06s2.37.49,3.08-.18a2.45,2.45,0,0,1,1.45-.48,17.15,17.15,0,0,1,5.19.28l.23,0a3.92,3.92,0,0,0,1.4.13c.49-.07,1-.38,1-.8L62.57,44l-4.4-1.63c-.26-.1-.55-.37-.54-.59a.25.25,0,0,1,.22-.21h0a69.69,69.69,0,0,1,9.46,3.56,9,9,0,0,0,4,.46,9.59,9.59,0,0,1,4,.45,7.06,7.06,0,0,0,4.57.14A19.26,19.26,0,0,0,84,44.33l.18-.1v.17a1.86,1.86,0,0,1-1.1,1.48l2-.11L85,45.9c-.36.6-1.23.7-2.07.8s-1.55.18-1.84.67l.7,0,.87,0h.27l-.22.14-.93.61-.64.41a7.83,7.83,0,0,1,3.84.59l.27.11-.29,0-2.14.29-1.69.22c1.25.26,2.52.57,3.79.91a1.73,1.73,0,0,1,1,.67.44.44,0,0,1,0,.43c-.2.33-.74.32-1.13.29l-3.6-.32,3.93.84c.38.09.8.21,1,.52a.44.44,0,0,1-.2.56.42.42,0,0,1-.48,0,7.6,7.6,0,0,0-3.75-1.07,15,15,0,0,1-2.51-.44,1.7,1.7,0,0,1-.93-.55.59.59,0,0,1-.06-.56.53.53,0,0,1,.35-.3h0l6.3.72a10.31,10.31,0,0,0-8.34-.13,86.21,86.21,0,0,0-8.22,4.31l-.6.36.47-.48L70,53.7l.12-.12a17.35,17.35,0,0,1-7.5,1.54h0A1.22,1.22,0,0,1,61.47,54a2.12,2.12,0,0,1,.32-1.14,54.27,54.27,0,0,0-8.61,6.67l-.39.37.23-.45a10.22,10.22,0,0,1,4.46-4.41l-3.92.4-.87.09a1,1,0,0,0-.62.23.15.15,0,0,0,0,.16,58.29,58.29,0,0,1,.27,20.36A5.87,5.87,0,0,1,50.66,80Zm-4.35-1.39,2.19.25,2,.23h.07v0c.06.17.11.35.16.52a6,6,0,0,0,1.46-3.52A58.3,58.3,0,0,0,51.83,56a.32.32,0,0,1,.08-.28,1.3,1.3,0,0,1,.76-.29l.86-.09,4.38-.44.48,0L58,55a10.19,10.19,0,0,0-4.52,4A54.66,54.66,0,0,1,62,52.55l.31-.19-.17.3A2.49,2.49,0,0,0,61.66,54a1,1,0,0,0,1,.94,17,17,0,0,0,7.86-1.73l.47-.24-.8.82q-.69.72-1.38,1.41c2.43-1.42,5-2.75,7.65-4a10.58,10.58,0,0,1,8.93.34l.37.2-.43-.05L78.54,51a.34.34,0,0,0-.21.2.43.43,0,0,0,0,.42,1.46,1.46,0,0,0,.82.47,14.28,14.28,0,0,0,2.48.44,7.87,7.87,0,0,1,3.85,1.11.22.22,0,0,0,.24,0,.3.3,0,0,0,.14-.37c-.13-.24-.5-.35-.84-.42l-5.19-1.12,0-.16,4.9.44c.36,0,.79,0,.94-.21a.28.28,0,0,0,0-.29,1.56,1.56,0,0,0-.93-.58c-1.41-.38-2.84-.71-4.23-1l-.47-.09.47-.07,2.16-.28,1.83-.25a7.59,7.59,0,0,0-3.81-.41l-.39,0,.31-.2.93-.6.72-.47h-.59l-.84,0h-.13l0-.11c.27-.68,1.17-.78,2-.88A3,3,0,0,0,84.7,46l-2.26.13,0-.16A1.86,1.86,0,0,0,84,44.55a18.74,18.74,0,0,1-4,1.81,7.28,7.28,0,0,1-4.71-.14,9.24,9.24,0,0,0-3.91-.43,9.13,9.13,0,0,1-4.08-.49,70.81,70.81,0,0,0-9.41-3.54s0,0,0,.06.2.35.42.43l4.4,1.63,4.26,1.57,0,0v.05c0,.54-.56.94-1.15,1a4.17,4.17,0,0,1-1.49-.13l-.22,0A17.05,17.05,0,0,0,59,46.09a2.19,2.19,0,0,0-1.32.43c-.79.74-2,.48-3.27.23s-2.35-.49-3.1.14L51.1,47v-.21A14.28,14.28,0,0,0,49.8,39.7,10.71,10.71,0,0,0,44,34.53a1.36,1.36,0,0,0-1,0,.24.24,0,0,0-.14.16,8.74,8.74,0,0,1,5.47,4.62A19.69,19.69,0,0,1,50,45.86q.13,1.3.3,2.61l.05.41a1.64,1.64,0,0,1-.54,1.73c-.25.14-.07.5.13.83a3.55,3.55,0,0,1,.43,1.35c1.35,7.83,2.75,15.9,1.28,23.83-.21,1.15-.67,1.78-1.43,1.94a2.91,2.91,0,0,1-1.06,0,12.31,12.31,0,0,1-3.22-.78V78l-.06-.23-.28-.14a2.8,2.8,0,0,1-1.7-2.73,37.37,37.37,0,0,1,1.81-6.11l.19-.48a1.3,1.3,0,0,0-.92.83l-.06.23c-.51,2-1,4-1.53,6l0,.08h-.09a2,2,0,0,1-1.68-1.91,4.58,4.58,0,0,1,.88-2.33c.39-.66.79-1.32,1.19-2,.29-.5.59-1,.88-1.48a9,9,0,0,0-3.09,4.9l0,.09-.1,0a1.41,1.41,0,0,1-1-.82,2,2,0,0,1,.31-2A6.65,6.65,0,0,1,42,68.53a10.38,10.38,0,0,0,1-.83,9.59,9.59,0,0,0-3,1.77l-.08.07-.07-.08a1.83,1.83,0,0,1,.21-2.28A7,7,0,0,1,41.46,66l.59-.45a7.7,7.7,0,0,0,2.42-3.41,67.83,67.83,0,0,1-4.83,5.11l-.18.17v-.23A52.71,52.71,0,0,0,37.4,51a.18.18,0,0,0-.17,0,.8.8,0,0,0-.25.7c.59,5.2,1.18,10.42,1.77,15.63l.06.52c.24,2.17.54,4.87,2.32,6.86a14.74,14.74,0,0,0,2.69,2.18A18.6,18.6,0,0,1,46.19,78.74Zm.92-9.91,0,4.36a5.79,5.79,0,0,0,.62,3.32,3.8,3.8,0,0,0,2,1.5,45.24,45.24,0,0,1-2.57-9Zm-1.55.71A36.19,36.19,0,0,0,44,74.88a2.62,2.62,0,0,0,1.61,2.56l.12.06,0-.12A19.9,19.9,0,0,1,45.56,69.54Zm.35-1.3-.07.54a23.58,23.58,0,0,0-.08,8c.1-2,.2-3.93.3-6.09a3,3,0,0,1,.9-2.4l.16-.13v.61l.19.19a5.49,5.49,0,0,1,1.2,2.68,4.49,4.49,0,0,0,1.38,2.71c-.41-1.12-.82-2.24-1.24-3.36l-.46-1.24.28.23a7.45,7.45,0,0,0,1.85,1.13L47.38,68A5.9,5.9,0,0,0,45.91,68.24Zm2.74,8.86-.13,0a.93.93,0,0,1-.5-.47,4.55,4.55,0,0,1-.53-1.8v0l.06,0a.51.51,0,0,1,.52,0,.71.71,0,0,1,.22.3A10.48,10.48,0,0,1,48.91,77V77l-.06,0A.52.52,0,0,1,48.65,77.1Zm-1-2.25a4.78,4.78,0,0,0,.51,1.69.82.82,0,0,0,.4.38.25.25,0,0,0,.12,0,10.8,10.8,0,0,0-.61-1.79.6.6,0,0,0-.16-.24A.34.34,0,0,0,47.68,74.85Zm5.17-20.23-.58,0a.71.71,0,0,1-.4-.17.18.18,0,0,1,0-.17.26.26,0,0,1,.14-.17,22.42,22.42,0,0,1,2.82-1.9,4.73,4.73,0,0,1,1.1-.49,5.65,5.65,0,0,1,1.22-.15l2.94-.16A6.36,6.36,0,0,0,62,51.05c.18-.07.54-.22.78,0l.06.06-.06.05A13,13,0,0,1,52.85,54.62Zm9.65-3.53a1,1,0,0,0-.42.1h0a6.34,6.34,0,0,1-2,.33l-3,.16a5,5,0,0,0-1.16.15,4.54,4.54,0,0,0-1.06.46,22.86,22.86,0,0,0-2.8,1.89s-.08,0-.08.08a.08.08,0,0,0,0,.05.58.58,0,0,0,.27.1A12.94,12.94,0,0,0,62.55,51.1Zm-.19,3v-.09a3.56,3.56,0,0,1,1-2.47,1.08,1.08,0,0,1,1.26-.38c.13.08.28-.08.45-.28l0-.06a2.14,2.14,0,0,1,1.23-.53h.07l2.12-.43c.44-.09.89-.21,1-.52l.07-.13.1.11a.42.42,0,0,1,0,.42,1,1,0,0,0,0,.14.45.45,0,0,0,.24.42.6.6,0,0,0,.53.08l.12,0v.12a2.55,2.55,0,0,1-1.43,2.28,8.74,8.74,0,0,1-2.91.91,34.39,34.39,0,0,1-3.86.46Zm2-2.86a1.09,1.09,0,0,0-.8.4,3.47,3.47,0,0,0-1,2.28,34,34,0,0,0,3.72-.45,8.47,8.47,0,0,0,2.85-.89,2.52,2.52,0,0,0,1.36-2,.82.82,0,0,1-.6-.13.61.61,0,0,1-.31-.57s0-.1,0-.16a.61.61,0,0,0,0-.11,2.17,2.17,0,0,1-1,.43h0l-2.13.43h-.06a1.89,1.89,0,0,0-1.12.47l0,0c-.17.2-.41.49-.71.33A.42.42,0,0,0,64.27,51.28ZM51.59,52.75l0,0a.7.7,0,0,1,.29-.92,1.89,1.89,0,0,1,1.07-.28.46.46,0,0,1,.4.12c.09.11.06.26-.09.42a2.71,2.71,0,0,1-1.57.71ZM53,51.66h-.09a1.72,1.72,0,0,0-1,.25.58.58,0,0,0-.27.67,2.47,2.47,0,0,0,1.38-.65c.07-.07.13-.17.08-.22h0A.18.18,0,0,0,53,51.66Zm18,1.09,0-.1a1.43,1.43,0,0,1,.72-1,2,2,0,0,1,1.32-.26l.15,0-.09.1a6.09,6.09,0,0,1-.9.77,2.09,2.09,0,0,1-1.1.42Zm1.86-1.18a1.81,1.81,0,0,0-1,.25,1.34,1.34,0,0,0-.62.76,2.23,2.23,0,0,0,.87-.38A5.19,5.19,0,0,0,72.88,51.57Zm1,.47-.06,0a.47.47,0,0,1-.18-.4.52.52,0,0,1,.21-.38,1,1,0,0,1,.69-.21h.1l0,.09a1.33,1.33,0,0,1-.68.9Zm.53-.88a.71.71,0,0,0-.42.17h0a.3.3,0,0,0-.15.26.34.34,0,0,0,.07.22A1.19,1.19,0,0,0,74.36,51.16ZM56.89,50.9a1.14,1.14,0,0,1-.32-.07,8.09,8.09,0,0,0-1.84-.35L54,50.4a3.75,3.75,0,0,1-2.37-1,1.37,1.37,0,0,1-.31-1.29,1.09,1.09,0,0,1,.7-.73,2.13,2.13,0,0,1,.74-.1,6.73,6.73,0,0,1,2.4.36,9.24,9.24,0,0,1,.94.36l2.26.93,2.26.94,0,0,0,.55h-.07a20.21,20.21,0,0,1-3.36.44Zm-3.47-3.46c-.21,0-.42,0-.63,0a2.16,2.16,0,0,0-.67.08,1,1,0,0,0-.59.64,1.22,1.22,0,0,0,.27,1.15,3.58,3.58,0,0,0,2.25.94l.7.08a7.63,7.63,0,0,1,1.89.37,1.56,1.56,0,0,0,.57,0,21.07,21.07,0,0,0,3.26-.42l0-.33-2.2-.91L56,48.13a8.26,8.26,0,0,0-.93-.35A6.42,6.42,0,0,0,53.42,47.44Zm17.91,3.68,0-.08a.76.76,0,0,1,0-.73,1,1,0,0,1,.66-.48l.11,0v.09a1.15,1.15,0,0,1-.66,1.18Zm.58-1.1a.78.78,0,0,0-.42.36.6.6,0,0,0-.07.5A1,1,0,0,0,71.91,50Zm.38,1.16,0-.11A1,1,0,0,1,72.88,50a3.43,3.43,0,0,1,1.32-.4,17.86,17.86,0,0,1,3.35-.22h.1v.09c0,.42-.52.7-1.43.8a18.86,18.86,0,0,0-3.81.86Zm5.15-1.63a18,18,0,0,0-3.2.22,3.25,3.25,0,0,0-1.25.37,1,1,0,0,0-.54.81,18.07,18.07,0,0,1,3.73-.83C76.71,50.06,77.33,49.91,77.44,49.55Zm-13.91.5V50c0-.2-.23-.36-.42-.42a2.25,2.25,0,0,0-.68-.11h-.08a5.92,5.92,0,0,1-1.91-.5c-.25-.1-.39-.23-.43-.38a.32.32,0,0,1,.1-.3.7.7,0,0,1,.52-.18,1.72,1.72,0,0,1,.51.11l.28.07c.23,0,.51,0,.6-.13s0-.34-.21-.44a1.59,1.59,0,0,0-.66-.14h-.07c-.67-.05-1.33-.1-2-.17H59l0-.08c.08-.37.51-.58,1.28-.63a15.15,15.15,0,0,1,3.56,0,13,13,0,0,1,4.84,2.16.66.66,0,0,1,.29.28.25.25,0,0,1-.07.26.24.24,0,0,1-.2.08,48.28,48.28,0,0,1-5.06.59Zm-1-.78a2.41,2.41,0,0,1,.65.12.77.77,0,0,1,.54.48,49.25,49.25,0,0,0,4.95-.58h0a0,0,0,0,0,0,0s.05-.08,0-.11-.12-.14-.2-.19a12.75,12.75,0,0,0-4.77-2.14,14.73,14.73,0,0,0-3.51,0c-.61,0-1,.18-1.08.41l1.89.16h.06a1.69,1.69,0,0,1,.76.17c.24.13.41.41.27.64a.77.77,0,0,1-.81.22l-.3-.08a1.6,1.6,0,0,0-.45-.1.55.55,0,0,0-.37.13.17.17,0,0,0-.06.16c0,.13.19.21.32.26a5.9,5.9,0,0,0,1.84.49h.16ZM73,48.9a5.24,5.24,0,0,1-.88-.16c-1.33-.34-2.74-.74-4.31-1.24a.45.45,0,0,1-.32-.43.58.58,0,0,1,.4-.56,1.45,1.45,0,0,1,1.18.22,1.12,1.12,0,0,1,.86-.42,15.2,15.2,0,0,1,3.94,0,31.23,31.23,0,0,1,3.84.7l.21.06-.19.09c-1,.47-2,.92-3.21,1.4h0a3.68,3.68,0,0,1-1.29.34Zm-4.72-2.28a.67.67,0,0,0-.31,0,.42.42,0,0,0-.29.41.28.28,0,0,0,.2.28c1.56.49,3,.9,4.29,1.23a3.53,3.53,0,0,0,1,.16,3.43,3.43,0,0,0,1.22-.31c1.1-.45,2.08-.88,3-1.31a30.84,30.84,0,0,0-3.58-.64,14.75,14.75,0,0,0-3.88,0c-.31.05-.7.16-.75.41l0,.14L69,46.93A1.6,1.6,0,0,0,68.25,46.62Zm11,1.54a2.32,2.32,0,0,1-.46-.07l-.1,0,0-.08c.12-.38.64-.5,1-.56h0a1.06,1.06,0,0,1,.53,0,.41.41,0,0,1,.25.23.27.27,0,0,1,0,.25h0a.4.4,0,0,1-.26.13A3,3,0,0,1,79.21,48.16Zm-.32-.2a2.89,2.89,0,0,0,1.28-.07.3.3,0,0,0,.16-.07.09.09,0,0,0,0-.1.23.23,0,0,0-.14-.13.85.85,0,0,0-.42,0h0C79.27,47.66,79,47.77,78.89,48Z"/>
        </g>
      </g>
    </g>
  </g>
</svg>
