<svg xmlns="http://www.w3.org/2000/svg" viewBox="0 0 83.04 51.41">
  <defs>
    <style>
      .cls-1 {
        fill: #00305f;
        opacity: 0.5;
      }
    </style>
  </defs>
  <g id="Layer_2" data-name="Layer 2">
    <g id="Layer_2-2" data-name="Layer 2">
      <path class="cls-1" d="M83,22.06a10.65,10.65,0,0,0-5.46-6.33c-4.52-2.32-10.8-2-18.65.94l.09-.06h0l0,0a39.12,39.12,0,0,1,9.9-4c4.74-1.41,9.22-2.74,12.33-6.88l.17-.23-.22-.19a9.87,9.87,0,0,0-7.58-1.79c-5.18.79-10.3,5.08-15.21,12.75a10.41,10.41,0,0,0,1.08-8.06C57.89,3,52.23.25,52,.14L51.71,0l-.13.3c-1.11,2.67.7,5.89,2.61,9.3a26.76,26.76,0,0,1,3.23,7.3l.06.27a58.84,58.84,0,0,0-5.69,2.42l-.12-.15c-4.43-5.94-9.14-9.17-14-9.59a12.69,12.69,0,0,0-9.34,3l-.22.21.2.22c3.13,3.46,7.74,3.94,12.63,4.44a35.39,35.39,0,0,1,10.28,2.11A68.85,68.85,0,0,0,29.86,36.18,46,46,0,0,0,19.33,25.65a21,21,0,0,1,6.26-.35c3,.13,5.78.26,8-1.59l.15-.13-.12-.16a7.7,7.7,0,0,0-5.33-2.73c-2.93-.2-6.06,1.37-9.26,4.63l-.06.06a32.25,32.25,0,0,0-3.24-2l-.11-.07c-.34-.2-.66-.37-1-.55a15.22,15.22,0,0,1,2.24-3.91c1.32-1.87,2.57-3.63,1.94-5l-.08-.2-.2.09c-.17.07-4.23,1.9-5.12,5A4.62,4.62,0,0,0,14,22.4c-4-2-7.31-2.63-10-1.73A6.54,6.54,0,0,0,.08,24.1L0,24.28l.18.09a8.26,8.26,0,0,0,3.74.83,23.06,23.06,0,0,0,4.9-.73,22.5,22.5,0,0,1,6.63-.78h0a27.37,27.37,0,0,1,3,1.83,10.1,10.1,0,0,0-7.64,2.8C6.38,32.68,6.68,40.67,6.69,40.75V41l.23,0c2.89-.34,4.9-3.93,7-7.73,1.5-2.68,3.05-5.45,5-7.32A45.27,45.27,0,0,1,29.57,36.52a53.6,53.6,0,0,0-7.09,10.7l.54.28A53.6,53.6,0,0,1,29.93,37,38.54,38.54,0,0,1,36,51.41l.42-.08A39,39,0,0,0,30.22,36.7,67.88,67.88,0,0,1,51.65,20.34c2.68,3.44,4.52,8.14,6.3,12.7,2.55,6.56,5,12.76,9.59,14l.32.08.06-.32c0-.12,2.42-12.59-3.5-20.58-2.65-3.57-6.56-5.71-11.6-6.43a46.58,46.58,0,0,1,5.11-2.11v0a38.32,38.32,0,0,1,10.7,2.85C72.05,21.78,75.34,23,78.79,23a13.32,13.32,0,0,0,4-.59l.28-.09ZM13.8,18.81c.73-2.52,3.84-4.22,4.68-4.63.31,1.16-.8,2.74-2,4.4a18.9,18.9,0,0,0-2,3.35c0-1.59.64-3.61,1.61-4.4l-.28-.33a6.85,6.85,0,0,0-1.75,4.4A4.05,4.05,0,0,1,13.8,18.81Zm14.44,2.31a7.36,7.36,0,0,1,4.88,2.4c-2,1.6-4.7,1.48-7.51,1.35a27.41,27.41,0,0,0-4.87.09,20.2,20.2,0,0,1,8.15-1.82l0-.42c-2.4-.19-6,.77-8.6,2,2.58-2.36,5.1-3.56,7.48-3.56ZM8.73,24.05c-2.84.63-5.53,1.23-8.17,0a6.33,6.33,0,0,1,3.58-3c2.61-.88,5.93-.25,9.85,1.82-5.46-1.5-8.06-1.17-10.22-.19l.18.39c2.1-1,4.53-1.25,9.75.17A29.46,29.46,0,0,0,8.73,24.05Zm4.85,9c-2,3.6-3.91,7-6.47,7.48,0-1.35.13-8.07,4-11.87A9.44,9.44,0,0,1,17.72,26c-5,2-6.52,5.6-7.63,8.28a21.41,21.41,0,0,1-.94,2.06l.37.21a17.26,17.26,0,0,0,1-2.1c1.15-2.79,2.59-6.23,7.54-8.11A36.25,36.25,0,0,0,13.58,33ZM73.69,4.1A10.62,10.62,0,0,1,75.24,4a9.52,9.52,0,0,1,5.32,1.59c-3,3.79-7.28,5.07-11.83,6.42a48.86,48.86,0,0,0-7.92,2.88C67.3,9,71.23,8.28,74.72,7.7l.19,0-.1-.6-.19,0C71,7.69,67,8.38,60.31,14.5,64.68,8.29,69.17,4.79,73.69,4.1Zm-19,5.2C53,6.16,51.3,3.19,52,.84c1.19.64,5.56,3.24,6.86,7.52a9.56,9.56,0,0,1-.71,7c-.13-3.54-1.13-7.79-2.82-9.6l-.45.42c1.55,1.65,2.5,5.69,2.65,9A36.39,36.39,0,0,0,54.73,9.3ZM29,13.14a12.39,12.39,0,0,1,8.64-2.68c4.12.35,8.15,2.86,12,7.41-3.95-2.49-9.38-4.66-13.45-5l-.05.61c3.77.27,9.26,2.6,13.17,5A44.88,44.88,0,0,0,41,17.15C36.35,16.67,32,16.22,29,13.14Zm23.44,7.18Zm11.5,6.25c5.23,7.06,3.79,17.76,3.46,19.77C63.25,45,61,39.07,58.52,32.82c-1.64-4.21-3.34-8.55-5.72-11.95C60.57,25.09,62.09,31,63.31,35.71a30.26,30.26,0,0,0,1.06,3.58l.57-.23a30.81,30.81,0,0,1-1-3.5C62.73,31,61.13,24.82,53.34,20.48A15.86,15.86,0,0,1,63.92,26.57Zm4.91-6.65a48.92,48.92,0,0,0-8.2-2.51c9.1-1.06,13.06,0,16.32,2.07l.32-.52c-3.33-2.1-7.59-3.25-17.14-2.1,7.18-2.5,12.93-2.72,17.09-.59a10.39,10.39,0,0,1,5.07,5.66C77.64,23.24,73.36,21.62,68.83,19.92Z"/>
    </g>
  </g>
</svg>
