<svg xmlns="http://www.w3.org/2000/svg" viewBox="0 0 68.49 42.65">
  <defs>
    <style>
      .cls-1 {
        opacity: 0.5;
      }

      .cls-2 {
        fill: #fff;
      }

      .cls-3 {
        fill: none;
      }
    </style>
  </defs>
  <g id="Layer_2" data-name="Layer 2">
    <g id="Layer_2-2" data-name="Layer 2">
      <g class="cls-1">
        <polygon class="cls-2" points="11.42 27.33 11.42 27.33 11.42 27.33 11.42 27.33"/>
        <path class="cls-3" d="M14.17,22.49c-3.19,1.56-4.21,4-5.05,6.07a14.25,14.25,0,0,1-.8,1.74l-.13.22-.73-.42.12-.22a15.84,15.84,0,0,0,.75-1.63c.81-2,1.88-4.58,5-6.29a7.07,7.07,0,0,0-3.81,2c-2.82,2.8-3.13,7.64-3.16,9.2,1.83-.58,3.29-3.17,4.82-5.91l.22.12-.22-.12A36.06,36.06,0,0,1,14.17,22.49Z"/>
        <path class="cls-3" d="M52.79,29.34a24.34,24.34,0,0,0,.84,2.83l.1.24-.93.37-.1-.24a24.7,24.7,0,0,1-.87-2.94c-.94-3.63-2.08-8.1-7.56-11.46a53.8,53.8,0,0,1,4.11,8.93c1.91,4.92,3.72,9.56,6.81,10.81.33-2.22,1.18-10.27-2.82-15.67a12.32,12.32,0,0,0-7.06-4.58C50.7,21.17,51.9,25.86,52.79,29.34Z"/>
        <path class="cls-3" d="M29.83,11.65l-.25,0,.07-1,.25,0a26.24,26.24,0,0,1,9.71,3.26C36.82,11,34,9.39,31,9.13a9.81,9.81,0,0,0-6.66,2c2.36,2.28,5.82,2.63,9.48,3a49.57,49.57,0,0,1,5.06.7C36.06,13.26,32.48,11.84,29.83,11.65Z"/>
        <path class="cls-3" d="M51.2,10.48A18.64,18.64,0,0,1,61.27,5.89l.4-.06.16,1-.4.07c-2.57.43-5.45.91-10,4.69,1.67-.68,3.34-1.18,5-1.67C60,8.83,63.42,7.82,65.8,5a7.53,7.53,0,0,0-4-1.11,8.62,8.62,0,0,0-1.23.1C57.44,4.42,54.29,6.62,51.2,10.48Z"/>
        <path class="cls-3" d="M48.22,7.25C47.27,4.13,44.28,2.13,43,1.4c-.35,1.78.92,4,2.26,6.42h0C45.9,9,46.48,10,47,11.05c-.3-2.19-1-4.48-1.94-5.51l-.17-.19.73-.68.17.18c1.3,1.39,2.06,4.36,2.3,6.92A7.25,7.25,0,0,0,48.22,7.25Z"/>
        <path class="cls-3" d="M51.43,14.66a48,48,0,0,1,5.24,1.73h0c3.57,1.34,7,2.61,10.57,1.7a8.38,8.38,0,0,0-3.93-4.23c-2.86-1.47-6.7-1.54-11.44-.24,6.24-.49,9.27.45,11.73,2l.21.13-.53.85-.21-.14C60.64,14.93,57.77,14.08,51.43,14.66Z"/>
        <path class="cls-3" d="M12.59,16.9c.3-.49.65-1,1-1.52a7.44,7.44,0,0,0,1.61-3.06c-1,.51-2.89,1.74-3.38,3.47a2.86,2.86,0,0,0-.1,1,4.81,4.81,0,0,1,1.34-2.56l.19-.16.54.66-.19.16A3.86,3.86,0,0,0,12.59,16.9Z"/>
        <path class="cls-3" d="M10.06,19.24c-3.28-.73-5-.45-6.41.2l-.23.1-.35-.77.23-.11a9.4,9.4,0,0,1,6-.43,8.38,8.38,0,0,0-5.55-.43,5,5,0,0,0-2.65,2.1c2,.8,4.07.34,6.26-.15l.07.24-.06-.24C8.29,19.55,9.17,19.37,10.06,19.24Z"/>
        <path class="cls-3" d="M24,18.66h.25l-.07.85-.24,0a14.15,14.15,0,0,0-5,.87h.41c.63,0,1.26,0,1.9.06,2.14.1,4.18.19,5.75-.89a5.76,5.76,0,0,0-3.63-1.68,7.81,7.81,0,0,0-5.09,1.84A15.22,15.22,0,0,1,24,18.66Z"/>
        <polygon class="cls-2" points="45.05 7.94 45.05 7.94 45.05 7.94 45.05 7.94"/>
        <path class="cls-2" d="M46.45,15h0c-.48.18-1.09.43-1.81.75C45.36,15.39,46,15.14,46.45,15Z"/>
        <path class="cls-2" d="M42.61,16.65l.12.16.35.45-.42-.59.93.51h0l-1-.54Z"/>
        <path class="cls-2" d="M66,5.47c-.14.16-.27.33-.42.48C65.72,5.8,65.85,5.63,66,5.47Z"/>
        <path class="cls-2" d="M53.71,23.38a12.62,12.62,0,0,0-.94-1.47,14.3,14.3,0,0,0-1-1.19,12.84,12.84,0,0,1,1,1.19A12.62,12.62,0,0,1,53.71,23.38Z"/>
        <path class="cls-2" d="M52.34,8.42c.26-.28.52-.56.78-.81C52.86,7.86,52.6,8.14,52.34,8.42Z"/>
        <path class="cls-2" d="M52.3,29.44v0h0Z"/>
        <path class="cls-2" d="M52.49,30.18c.19.69.37,1.36.59,2C52.86,31.54,52.68,30.87,52.49,30.18Z"/>
        <path class="cls-2" d="M52,10.52l.65-.51Z"/>
        <path class="cls-2" d="M51.18,11.16c.18-.16.37-.32.55-.46C51.55,10.84,51.36,11,51.18,11.16Z"/>
        <path class="cls-2" d="M64.07,7.23l-.31.22Z"/>
        <path class="cls-2" d="M50.35,11.87l.44-.39Z"/>
        <path class="cls-2" d="M49.82,11.49c.25-.34.5-.69.76-1C50.32,10.8,50.07,11.15,49.82,11.49Z"/>
        <path class="cls-2" d="M51.09,9.85c.25-.3.5-.62.75-.9C51.59,9.23,51.34,9.55,51.09,9.85Z"/>
        <path class="cls-2" d="M52.72,10a17.34,17.34,0,0,1,8.51-3.54A17.34,17.34,0,0,0,52.72,10Z"/>
        <path class="cls-2" d="M62.69,3.39a5,5,0,0,1,.58.09A5.4,5.4,0,0,0,62.69,3.39Z"/>
        <path class="cls-2" d="M63.48,3.51c.21.05.42.09.61.15C63.89,3.6,63.69,3.56,63.48,3.51Z"/>
        <path class="cls-2" d="M62,3.35a9.05,9.05,0,0,0-1.35.07,9.17,9.17,0,0,1,1.16-.08Z"/>
        <path class="cls-2" d="M66.42,4.76a7.35,7.35,0,0,0-2.29-1.09,7.54,7.54,0,0,1,2.18,1Z"/>
        <polygon class="cls-2" points="49.78 12.38 49.78 12.37 49.78 12.38 49.78 12.38"/>
        <path class="cls-2" d="M65.07,6.42l-.38.34Z"/>
        <path class="cls-2" d="M30.21,11.18c3.21.34,7.56,2.27,10.53,4.09l1.46.9L42.05,16l-1.31-.82A27.07,27.07,0,0,0,30.21,11.18Z"/>
        <path class="cls-2" d="M24.68,30.35l0,0,.05-.06Z"/>
        <path class="cls-2" d="M37.43,11.28c-.36-.27-.72-.53-1.09-.76C36.71,10.75,37.07,11,37.43,11.28Z"/>
        <path class="cls-2" d="M41.7,15.53c-.59-.75-1.2-1.41-1.8-2,.39.4.78.84,1.17,1.29Z"/>
        <path class="cls-2" d="M38.68,12.31c-.38-.34-.76-.66-1.14-1C37.92,11.65,38.3,12,38.68,12.31Z"/>
        <path class="cls-2" d="M38.72,12.35c.39.35.78.73,1.17,1.13C39.5,13.08,39.11,12.7,38.72,12.35Z"/>
        <polygon class="cls-2" points="7.48 20.09 7.46 19.99 7.47 20.09 7.48 20.09"/>
        <path class="cls-2" d="M23.43,31.89l.69-.85Z"/>
        <polygon class="cls-2" points="11.5 27.38 11.5 27.38 11.42 27.33 11.42 27.33 11.5 27.38"/>
        <path class="cls-2" d="M22.31,33.4c.22-.31.46-.61.69-.92C22.77,32.79,22.53,33.09,22.31,33.4Z"/>
        <path class="cls-2" d="M21.26,35c.22-.34.45-.66.67-1C21.71,34.29,21.48,34.61,21.26,35Z"/>
        <path class="cls-2" d="M26.42,13.05l.4.2Z"/>
        <path class="cls-2" d="M24.27,11.65c.15.14.3.28.45.4C24.57,11.93,24.42,11.79,24.27,11.65Z"/>
        <path class="cls-2" d="M25.28,12.42c.15.1.3.21.45.3C25.57,12.63,25.43,12.52,25.28,12.42Z"/>
        <path class="cls-2" d="M55.64,38.22c0-.09,0-.21.06-.35C55.68,38,55.66,38.13,55.64,38.22Z"/>
        <path class="cls-2" d="M36.14,10.4c-.33-.2-.67-.4-1-.57C35.47,10,35.81,10.2,36.14,10.4Z"/>
        <path class="cls-2" d="M23.85,10.88a10.64,10.64,0,0,1,4.58-2.1A10.22,10.22,0,0,0,23.74,11Z"/>
        <path class="cls-2" d="M42.25,16.24l-1.72-.51c-.34-.11-.69-.2-1-.28a16.78,16.78,0,0,1,2.79.9l.08,0h0Z"/>
        <path class="cls-2" d="M33.36,9.12c-.24-.08-.47-.16-.7-.22C32.89,9,33.12,9,33.36,9.12Z"/>
        <path class="cls-2" d="M34.8,9.68c-.3-.14-.59-.28-.9-.39C34.21,9.4,34.5,9.54,34.8,9.68Z"/>
        <path class="cls-2" d="M30.21,8.6l-.36,0a9.48,9.48,0,0,1,1.19,0Z"/>
        <path class="cls-2" d="M29.49,8.64c-.36,0-.71.07-1,.13C28.78,8.71,29.13,8.67,29.49,8.64Z"/>
        <path class="cls-2" d="M55.71,37.77c0-.16,0-.34.07-.54C55.76,37.43,55.73,37.61,55.71,37.77Z"/>
        <path class="cls-2" d="M54.84,10.91l.46-.14Z"/>
        <path class="cls-2" d="M47.61,12.58c-.13-2.5-.81-5.67-2.06-7.2C46.79,6.91,47.48,10.1,47.61,12.58Z"/>
        <path class="cls-2" d="M67.19,18.6a12.42,12.42,0,0,1-1.31.23A12,12,0,0,0,67.19,18.6Z"/>
        <path class="cls-2" d="M48.07,14.54c.25,0,.5.05.74.09l-.57-.11Z"/>
        <path class="cls-2" d="M48.47,13.65a20.3,20.3,0,0,1,1.87-1l-.21.1-1.58.78-.31.29.22-.15Z"/>
        <path class="cls-2" d="M64.71,18.91h.05c-.42,0-.85,0-1.27-.06C63.89,18.88,64.3,18.91,64.71,18.91Z"/>
        <path class="cls-2" d="M60.61,9.06c-1.29.5-2.65.91-4,1.32l-.35.11.35-.11C58,10,59.32,9.56,60.61,9.06Z"/>
        <path class="cls-2" d="M48.59,6.8c-1.26-3.62-4.94-5.65-5.73-6L43,.81C44,1.37,47.41,3.42,48.59,6.8Z"/>
        <path class="cls-2" d="M47.5,14.1l0,.15.07,0-.24-.71C47.41,13.7,47.46,13.9,47.5,14.1Z"/>
        <path class="cls-2" d="M44.83,8.06c-1.44-2.56-2.8-5-2.26-7-.54,2,.83,4.42,2.26,7A3.72,3.72,0,0,1,45,8.4c-.06-.11-.12-.23-.19-.34l.22-.12h0Z"/>
        <path class="cls-2" d="M63.22,18.8c-.35,0-.69-.09-1-.16C62.53,18.71,62.87,18.76,63.22,18.8Z"/>
        <path class="cls-2" d="M63.56,13.42l.18.11-.18-.11Z"/>
        <path class="cls-2" d="M61.91,12.76l-.42-.13Z"/>
        <path class="cls-2" d="M64.58,14a8.73,8.73,0,0,1,3.23,4.15l0,.12A8.36,8.36,0,0,0,64.58,14Z"/>
        <path class="cls-2" d="M61,12.51c-.2,0-.39-.09-.59-.12C60.56,12.42,60.75,12.47,61,12.51Z"/>
        <path class="cls-2" d="M59.05,17.78l-1-.35Z"/>
        <path class="cls-2" d="M61.9,18.59a23.21,23.21,0,0,1-2.53-.7A23.21,23.21,0,0,0,61.9,18.59Z"/>
        <path class="cls-2" d="M56.5,16.86l1.23.45-1.23-.45Z"/>
        <path class="cls-2" d="M62.84,13.1,62.56,13Z"/>
        <path class="cls-2" d="M53.17,11.46l.28-.1Z"/>
        <path class="cls-2" d="M51.61,12.05l.41-.16Z"/>
        <path class="cls-2" d="M57.54,4.4c.24-.11.48-.24.72-.33C58,4.16,57.78,4.29,57.54,4.4Z"/>
        <path class="cls-2" d="M56.17,5.17c.26-.17.53-.35.8-.49C56.7,4.82,56.43,5,56.17,5.17Z"/>
        <path class="cls-2" d="M54.87,6.08c.27-.21.54-.42.81-.61C55.41,5.66,55.14,5.87,54.87,6.08Z"/>
        <path class="cls-2" d="M53.6,7.16c.27-.24.53-.49.8-.71C54.13,6.67,53.87,6.92,53.6,7.16Z"/>
        <polygon class="cls-2" points="43.16 16.95 43.16 16.95 43.16 16.95 43.16 16.95"/>
        <path class="cls-2" d="M24,18.91l0,.34a16.71,16.71,0,0,0-6.66,1.49,22.12,22.12,0,0,1,4-.07c2.3.1,4.47.2,6.14-1.11a6.05,6.05,0,0,0-4-2H23c-1.95,0-4,1-6.12,2.91A16.88,16.88,0,0,1,24,18.91Zm-.57-1.06A5.76,5.76,0,0,1,27,19.53c-1.57,1.08-3.61,1-5.75.89-.64,0-1.27-.06-1.9-.06H19a14.15,14.15,0,0,1,5-.87l.24,0,.07-.85H24a15.22,15.22,0,0,0-5.68,1A7.81,7.81,0,0,1,23.39,17.85Z"/>
        <path class="cls-2" d="M48.45,7.18C47.39,3.67,43.82,1.55,42.85,1c-.6,1.92.76,4.35,2.2,6.91h0a29.46,29.46,0,0,1,2.32,4.81c-.13-2.73-.91-6-2.17-7.39L45.57,5c1.38,1.48,2.2,5,2.3,7.85A7.76,7.76,0,0,0,48.45,7.18ZM45.58,4.67l-.73.68.17.19c1,1,1.64,3.32,1.94,5.51C46.48,10,45.9,9,45.27,7.82h0C43.93,5.44,42.66,3.18,43,1.4c1.27.73,4.26,2.73,5.21,5.85a7.25,7.25,0,0,1-.17,4.52c-.24-2.56-1-5.53-2.3-6.92Z"/>
        <path class="cls-2" d="M49.61,12.19c5.46-5,8.76-5.56,11.7-6l.15,0,.08.5-.15,0c-2.85.48-6.06,1-11.37,5.86a40.52,40.52,0,0,1,6.48-2.35C60.22,9,63.73,8,66.17,4.89a7.79,7.79,0,0,0-4.35-1.3,8.12,8.12,0,0,0-1.27.1C56.86,4.25,53.18,7.11,49.61,12.19Zm11-8.25a8.62,8.62,0,0,1,1.23-.1A7.53,7.53,0,0,1,65.8,5c-2.38,2.87-5.78,3.88-9.38,5-1.63.49-3.3,1-5,1.67,4.53-3.78,7.41-4.26,10-4.69l.4-.07-.16-1-.4.06A18.64,18.64,0,0,0,51.2,10.48C54.29,6.62,57.44,4.42,60.59,3.94Z"/>
        <path class="cls-2" d="M29.85,11.4l0-.5c3.33.24,7.77,2,11,4-3.15-3.72-6.45-5.77-9.81-6.06A10.14,10.14,0,0,0,24,11.08c2.43,2.52,6,2.89,9.84,3.28a36.4,36.4,0,0,1,6.77,1.13C37.41,13.53,32.93,11.62,29.85,11.4Zm-5.47-.3a9.81,9.81,0,0,1,6.66-2c2.91.26,5.78,1.86,8.57,4.78a26.24,26.24,0,0,0-9.71-3.26l-.25,0-.07,1,.25,0c2.65.19,6.23,1.61,9.09,3.16a49.57,49.57,0,0,0-5.06-.7C30.2,13.73,26.74,13.38,24.38,11.1Z"/>
        <path class="cls-2" d="M68.38,18.31A8.94,8.94,0,0,0,63.79,13c-3.19-1.64-7.43-1.7-12.63-.19a45.76,45.76,0,0,1,5.55-1.93c3.92-1.16,7.62-2.27,10.21-5.71l.28-.38-.36-.31A8.37,8.37,0,0,0,60.45,3c-3.84.58-7.62,3.45-11.27,8.55a8,8,0,0,0,0-4.54C47.84,2.57,43.12.32,42.92.23L42.45,0l-.2.48c-1,2.3.55,5,2.15,7.83A21.93,21.93,0,0,1,47,14.2h0c-.72.26-2.24.85-4.29,1.83-3.65-4.9-7.55-7.55-11.59-7.9a10.62,10.62,0,0,0-7.83,2.55l-.36.34.33.36c2.62,2.9,6.44,3.3,10.49,3.71a30.39,30.39,0,0,1,7.82,1.51,56.13,56.13,0,0,0-16.84,12.9,37.87,37.87,0,0,0-8-8.08,18.84,18.84,0,0,1,4.54-.16c2.47.11,4.8.21,6.67-1.36l.3-.26L28,19.33A6.52,6.52,0,0,0,23.45,17c-2.45-.17-5,1.09-7.68,3.76a28.31,28.31,0,0,0-2.48-1.55l-.1-.05c-.19-.12-.38-.22-.57-.32l0,0a13.34,13.34,0,0,1,1.73-2.94c1.12-1.58,2.18-3.08,1.61-4.36l-.17-.38-.39.17c-.15.06-3.57,1.6-4.33,4.25a3.86,3.86,0,0,0,.18,2.54c-3-1.43-5.6-1.8-7.69-1.09A5.62,5.62,0,0,0,.15,19.94L0,20.31l.36.17a6.92,6.92,0,0,0,3.16.71,19,19,0,0,0,4.07-.61,18.46,18.46,0,0,1,5.26-.64c.11.06.74.4,1.71,1a8.28,8.28,0,0,0-5.63,2.35C5.28,27,5.53,33.59,5.54,33.66l0,.46L6,34.06c2.49-.29,4.16-3.27,5.94-6.45a26.59,26.59,0,0,1,3.89-5.77,36.83,36.83,0,0,1,8.34,8.33,43.65,43.65,0,0,0-5.71,8.66l-.12.22.9.44.11-.22A43.59,43.59,0,0,1,24.76,31a31.32,31.32,0,0,1,4.75,11.38l0,.24.84-.16-.05-.25a32.18,32.18,0,0,0-5-11.89A55.18,55.18,0,0,1,42.46,17.28c2.12,2.79,3.58,6.53,5,10.16,2.11,5.42,4.11,10.54,8,11.58l.52.14.1-.53c0-.1,2-10.39-2.91-17a13.64,13.64,0,0,0-8.83-5.23c2.09-.94,3.39-1.37,3.4-1.37h0a31.11,31.11,0,0,1,8.57,2.32c2.85,1.06,5.54,2.08,8.39,2.08a11.29,11.29,0,0,0,3.33-.5l.45-.14Zm-.42.36a10.91,10.91,0,0,1-3.25.49c-2.81,0-5.5-1-8.31-2.07a31.43,31.43,0,0,0-8.74-2.34v0a40.4,40.4,0,0,0-4.18,1.72A13.69,13.69,0,0,1,53,21.76c4.84,6.53,2.88,16.72,2.86,16.83l0,.26-.26-.07c-3.78-1-5.75-6.07-7.84-11.43-1.45-3.73-3-7.57-5.14-10.39A55.57,55.57,0,0,0,25,30.33a32,32,0,0,1,5.07,12l-.34.07a31.57,31.57,0,0,0-5-11.75,43.39,43.39,0,0,0-5.64,8.55l-.45-.22a43.89,43.89,0,0,1,5.8-8.75,36.55,36.55,0,0,0-8.68-8.67,25.9,25.9,0,0,0-4.09,6C10,30.61,8.34,33.54,6,33.82l-.19,0v-.19c0-.07-.25-6.6,3.32-10.16a8.3,8.3,0,0,1,6.25-2.29,24.36,24.36,0,0,0-2.42-1.49h0a18.16,18.16,0,0,0-5.42.64,19.09,19.09,0,0,1-4,.6,6.86,6.86,0,0,1-3-.68l-.15-.07L.38,20a5.35,5.35,0,0,1,3.21-2.81c2.19-.73,4.93-.26,8.16,1.42a3.83,3.83,0,0,1-.49-3c.73-2.54,4.05-4,4.19-4.09l.16-.07.07.15c.51,1.15-.51,2.59-1.58,4.12a12.39,12.39,0,0,0-1.84,3.2l.81.44.09.06a25.44,25.44,0,0,1,2.64,1.66l.06-.06c2.61-2.66,5.17-4,7.57-3.78a6.27,6.27,0,0,1,4.35,2.23l.1.13-.13.11c-1.79,1.51-4.08,1.4-6.51,1.3a17,17,0,0,0-5.12.29,37.53,37.53,0,0,1,8.6,8.6A56.29,56.29,0,0,1,42.19,16.58a29,29,0,0,0-8.4-1.73c-4-.41-7.78-.79-10.33-3.62L23.29,11l.18-.16a10.39,10.39,0,0,1,7.64-2.49c4,.34,7.82,3,11.44,7.84l.1.12a44.83,44.83,0,0,1,4.65-2l0-.23a22,22,0,0,0-2.65-6c-1.56-2.79-3-5.42-2.13-7.61l.1-.24.24.11C43,.54,47.64,2.77,48.93,7a8.44,8.44,0,0,1-.88,6.58c4-6.27,8.2-9.78,12.44-10.41a8,8,0,0,1,6.19,1.45l.18.16L66.72,5c-2.54,3.38-6.2,4.47-10.08,5.62a31.81,31.81,0,0,0-8.09,3.27l0,0h0l-.07,0C54.84,11.57,60,11.3,63.67,13.2a8.65,8.65,0,0,1,4.46,5.17l.06.23Z"/>
        <path class="cls-2" d="M49.87,14.57a40.31,40.31,0,0,1,6.71,2.05c3.7,1.39,7.2,2.71,11,1.64a8.46,8.46,0,0,0-4.15-4.62c-3.39-1.74-8.1-1.57-14,.48,7.81-.94,11.29,0,14,1.72l-.27.42C60.55,14.58,57.31,13.7,49.87,14.57Zm14,1.19-.21-.13c-2.46-1.56-5.49-2.5-11.73-2,4.74-1.3,8.58-1.23,11.44.24a8.38,8.38,0,0,1,3.93,4.23c-3.62.91-7-.36-10.57-1.7h0a48,48,0,0,0-5.24-1.73c6.34-.58,9.21.27,11.65,1.81l.21.14Z"/>
        <path class="cls-2" d="M52.55,29.41a25.26,25.26,0,0,0,.85,2.86l-.46.18a24.27,24.27,0,0,1-.88-2.92c-1-3.88-2.23-8.69-8.58-12.13a47.21,47.21,0,0,1,4.67,9.77c2,5.11,3.87,9.94,7.24,11,.27-1.65,1.45-10.4-2.82-16.16a13,13,0,0,0-8.65-5C50.28,20.63,51.59,25.68,52.55,29.41Zm-.18-7.2c4,5.4,3.15,13.45,2.82,15.67-3.09-1.25-4.9-5.89-6.81-10.81a53.8,53.8,0,0,0-4.11-8.93C49.75,21.5,50.89,26,51.83,29.6a24.7,24.7,0,0,0,.87,2.94l.1.24.93-.37-.1-.24a24.34,24.34,0,0,1-.84-2.83c-.89-3.48-2.09-8.17-7.48-11.71A12.32,12.32,0,0,1,52.37,22.21Z"/>
        <path class="cls-2" d="M3.7,17.56A5.14,5.14,0,0,0,.78,20c2.15,1,4.35.49,6.68,0l-.07-.24c-2.19.49-4.26.95-6.26.15a5,5,0,0,1,2.65-2.1,8.38,8.38,0,0,1,5.55.43,9.4,9.4,0,0,0-6,.43l-.23.11.35.77.23-.1c1.44-.65,3.13-.93,6.41-.2-.89.13-1.77.31-2.66.51l.06.24a23.9,23.9,0,0,1,4.06-.64c-4.27-1.16-6.25-.92-8-.14l-.15-.32c1.76-.8,3.89-1.07,8.36.16C8.55,17.36,5.84,16.84,3.7,17.56Z"/>
        <path class="cls-2" d="M8.89,28.46a16.47,16.47,0,0,1-.79,1.72L7.8,30a14,14,0,0,0,.76-1.67c.91-2.2,2.15-5.17,6.25-6.78a7.79,7.79,0,0,0-5.45,2.19c-3.12,3.11-3.24,8.6-3.23,9.7,2.09-.39,3.64-3.17,5.29-6.11h0l-.22-.12c-1.53,2.74-3,5.33-4.82,5.91,0-1.56.34-6.4,3.16-9.2a7.07,7.07,0,0,1,3.81-2c-3.14,1.71-4.21,4.31-5,6.29a15.84,15.84,0,0,1-.75,1.63l-.12.22.73.42.13-.22a14.25,14.25,0,0,0,.8-1.74c.84-2,1.86-4.51,5.05-6.07a36.06,36.06,0,0,0-3,4.72l.22.12h0A30,30,0,0,1,15,21.84C11,23.37,9.83,26.19,8.89,28.46Z"/>
        <path class="cls-2" d="M13.81,15.53c1-1.36,1.87-2.65,1.61-3.6-.68.34-3.23,1.72-3.82,3.79A3.31,3.31,0,0,0,11.81,18a5.53,5.53,0,0,1,1.43-3.61l.22.27a5.43,5.43,0,0,0-1.31,3.6A15.45,15.45,0,0,1,13.81,15.53ZM13.27,14l-.19.16a4.81,4.81,0,0,0-1.34,2.56,2.86,2.86,0,0,1,.1-1c.49-1.73,2.43-3,3.38-3.47a7.44,7.44,0,0,1-1.61,3.06c-.37.53-.72,1-1,1.52a3.86,3.86,0,0,1,1-2l.19-.16Z"/>
        <path class="cls-2" d="M36.34,10.52l-.2-.12Z"/>
        <path class="cls-2" d="M39.89,13.48h0Z"/>
        <path class="cls-2" d="M52.62,10l.1-.06Z"/>
        <path class="cls-2" d="M49.41,12.05l-.23.31c.21-.3.43-.58.64-.87C49.68,11.68,49.54,11.85,49.41,12.05Z"/>
        <path class="cls-2" d="M64.58,14c-.26-.18-.55-.34-.84-.5C64,13.69,64.32,13.86,64.58,14Z"/>
        <path class="cls-2" d="M56.33,16.79l.16.06h0Z"/>
        <path class="cls-2" d="M59.37,17.89l-.32-.11Z"/>
        <path class="cls-2" d="M55.68,5.47c.16-.11.33-.2.49-.3C56,5.27,55.84,5.36,55.68,5.47Z"/>
        <path class="cls-2" d="M38.72,12.35l0,0Z"/>
        <path class="cls-2" d="M35.13,9.83l-.33-.15Z"/>
        <path class="cls-2" d="M37.54,11.36l-.11-.08Z"/>
        <path class="cls-2" d="M58.05,17.43l-.32-.12Z"/>
        <path class="cls-2" d="M62.84,13.1c.24.1.49.2.72.32h0C63.32,13.3,63.08,13.2,62.84,13.1Z"/>
        <path class="cls-2" d="M21.26,35c-.33.51-.66,1-1,1.56C20.6,36,20.93,35.46,21.26,35Z"/>
        <path class="cls-2" d="M50.58,10.47l.51-.62Z"/>
        <path class="cls-2" d="M60.36,12.39a11.57,11.57,0,0,0-1.2-.15A11.57,11.57,0,0,1,60.36,12.39Z"/>
        <path class="cls-2" d="M51.84,9c.17-.19.34-.35.5-.53C52.18,8.6,52,8.76,51.84,9Z"/>
        <path class="cls-2" d="M61.49,12.63,61,12.51Z"/>
        <path class="cls-2" d="M23,32.48l.43-.59Z"/>
        <path class="cls-2" d="M24.59,30.45l-.47.59c.18-.22.35-.45.54-.66Z"/>
        <path class="cls-2" d="M62.56,13c-.21-.08-.43-.14-.65-.21C62.13,12.83,62.35,12.89,62.56,13Z"/>
        <path class="cls-2" d="M54.4,6.45c.15-.13.31-.24.47-.37C54.71,6.21,54.55,6.32,54.4,6.45Z"/>
        <path class="cls-2" d="M21.93,34c.13-.18.25-.37.38-.56C22.18,33.59,22.06,33.78,21.93,34Z"/>
        <path class="cls-2" d="M51.73,10.7l.24-.18Z"/>
        <path class="cls-2" d="M64.09,3.66h0Z"/>
        <path class="cls-2" d="M66.36,5.05l0-.06c-.13.17-.28.32-.42.48A4.83,4.83,0,0,0,66.36,5.05Z"/>
        <path class="cls-2" d="M52.49,30.18c-.06-.24-.12-.46-.18-.71h0Z"/>
        <path class="cls-2" d="M55.7,37.87v0Z"/>
        <path class="cls-2" d="M50.34,12.62c.42-.2.85-.39,1.27-.57C51.19,12.23,50.76,12.42,50.34,12.62Z"/>
        <path class="cls-2" d="M49.78,12.37l.57-.5-.5.44Z"/>
        <path class="cls-2" d="M58.26,4.07a9.29,9.29,0,0,1,1.29-.43A9.29,9.29,0,0,0,58.26,4.07Z"/>
        <path class="cls-2" d="M55.3,10.77l.92-.28Z"/>
        <path class="cls-2" d="M62,3.35l.68,0Z"/>
        <path class="cls-2" d="M65.57,6c-.16.17-.33.31-.5.47C65.24,6.26,65.41,6.12,65.57,6Z"/>
        <path class="cls-2" d="M53.12,7.61l.48-.45Z"/>
        <path class="cls-2" d="M63.76,7.45c-.32.22-.65.42-1,.61C63.11,7.87,63.44,7.67,63.76,7.45Z"/>
        <path class="cls-2" d="M53.45,11.36c.46-.16.92-.31,1.39-.45C54.37,11.05,53.91,11.2,53.45,11.36Z"/>
        <path class="cls-2" d="M52,11.89l1.15-.43Z"/>
        <path class="cls-2" d="M64.69,6.76l-.62.47Z"/>
        <path class="cls-2" d="M33.9,9.29a5.6,5.6,0,0,0-.54-.17A5.6,5.6,0,0,1,33.9,9.29Z"/>
        <path class="cls-2" d="M63.49,18.84l-.27,0Z"/>
        <path class="cls-2" d="M63.27,3.48l.21,0Z"/>
        <path class="cls-2" d="M55.64,38.26v0c0,.06,0,.11,0,.15Z"/>
        <path class="cls-2" d="M29.49,8.64l.36,0Z"/>
        <path class="cls-2" d="M62.18,18.64l-.28-.05Z"/>
        <path class="cls-2" d="M32.66,8.9a11.46,11.46,0,0,0-1.28-.23A11.46,11.46,0,0,1,32.66,8.9Z"/>
        <path class="cls-2" d="M23.82,11.25c.15.15.3.27.45.4a5.56,5.56,0,0,1-.51-.47Z"/>
        <path class="cls-2" d="M28.45,8.77h0Z"/>
        <path class="cls-2" d="M26.82,13.25c.38.15.76.29,1.16.41C27.58,13.54,27.2,13.4,26.82,13.25Z"/>
        <path class="cls-2" d="M57,4.68c.19-.11.38-.18.57-.28C57.35,4.5,57.16,4.57,57,4.68Z"/>
        <path class="cls-2" d="M67.64,18.5h0l-.48.1C67.34,18.56,67.49,18.55,67.64,18.5Z"/>
        <path class="cls-2" d="M50.79,11.48l.39-.32Z"/>
        <path class="cls-2" d="M24.72,12.05c.18.14.37.25.56.37C25.09,12.3,24.9,12.19,24.72,12.05Z"/>
        <path class="cls-2" d="M25.73,12.72c.22.12.46.23.69.33C26.19,13,26,12.84,25.73,12.72Z"/>
        <path class="cls-2" d="M65.88,18.83a10.36,10.36,0,0,1-1.12.07A10.69,10.69,0,0,0,65.88,18.83Z"/>
      </g>
    </g>
  </g>
</svg>
